%TF.GenerationSoftware,KiCad,Pcbnew,6.0.11-2627ca5db0~126~ubuntu22.04.1*%
%TF.CreationDate,2026-05-01T17:22:13+10:00*%
%TF.ProjectId,CBR_AdapterBoard,4342525f-4164-4617-9074-6572426f6172,rev?*%
%TF.SameCoordinates,Original*%
%TF.FileFunction,Copper,L2,Bot*%
%TF.FilePolarity,Positive*%
%FSLAX46Y46*%
G04 Gerber Fmt 4.6, Leading zero omitted, Abs format (unit mm)*
G04 Created by KiCad (PCBNEW 6.0.11-2627ca5db0~126~ubuntu22.04.1) date 2026-05-01 17:22:13*
%MOMM*%
%LPD*%
G01*
G04 APERTURE LIST*
G04 Aperture macros list*
%AMRoundRect*
0 Rectangle with rounded corners*
0 $1 Rounding radius*
0 $2 $3 $4 $5 $6 $7 $8 $9 X,Y pos of 4 corners*
0 Add a 4 corners polygon primitive as box body*
4,1,4,$2,$3,$4,$5,$6,$7,$8,$9,$2,$3,0*
0 Add four circle primitives for the rounded corners*
1,1,$1+$1,$2,$3*
1,1,$1+$1,$4,$5*
1,1,$1+$1,$6,$7*
1,1,$1+$1,$8,$9*
0 Add four rect primitives between the rounded corners*
20,1,$1+$1,$2,$3,$4,$5,0*
20,1,$1+$1,$4,$5,$6,$7,0*
20,1,$1+$1,$6,$7,$8,$9,0*
20,1,$1+$1,$8,$9,$2,$3,0*%
G04 Aperture macros list end*
%TA.AperFunction,ComponentPad*%
%ADD10C,3.000000*%
%TD*%
%TA.AperFunction,ComponentPad*%
%ADD11RoundRect,0.675000X-0.675000X-0.975000X0.675000X-0.975000X0.675000X0.975000X-0.675000X0.975000X0*%
%TD*%
%TA.AperFunction,ComponentPad*%
%ADD12O,2.700000X3.300000*%
%TD*%
%TA.AperFunction,ViaPad*%
%ADD13C,2.000000*%
%TD*%
%TA.AperFunction,Conductor*%
%ADD14C,1.200000*%
%TD*%
G04 APERTURE END LIST*
D10*
%TO.P,J7,1,1*%
%TO.N,AB_1*%
X110975000Y-80500000D03*
%TO.P,J7,2,2*%
%TO.N,AB_2*%
X116775000Y-80500000D03*
%TO.P,J7,3,3*%
%TO.N,AB_3*%
X122575000Y-80500000D03*
%TO.P,J7,4,4*%
%TO.N,AB_4*%
X128375000Y-80500000D03*
%TO.P,J7,5,5*%
%TO.N,AB_5*%
X134175000Y-80500000D03*
%TO.P,J7,6,6*%
%TO.N,AB_6*%
X139975000Y-80500000D03*
%TO.P,J7,7,7*%
%TO.N,AB_7*%
X145775000Y-80500000D03*
%TO.P,J7,8,8*%
%TO.N,AB_8*%
X151575000Y-80500000D03*
%TO.P,J7,9,9*%
%TO.N,AB_9*%
X157375000Y-80500000D03*
%TO.P,J7,10,10*%
%TO.N,AB_10*%
X163175000Y-80500000D03*
%TO.P,J7,11,11*%
%TO.N,AB_11*%
X168975000Y-80500000D03*
%TO.P,J7,12,12*%
%TO.N,AB_12*%
X110975000Y-89000000D03*
%TO.P,J7,13,13*%
%TO.N,AB_13*%
X116775000Y-89000000D03*
%TO.P,J7,14,14*%
%TO.N,AB_14*%
X122575000Y-89000000D03*
%TO.P,J7,15,15*%
%TO.N,AB_15*%
X128375000Y-89000000D03*
%TO.P,J7,16,16*%
%TO.N,AB_16*%
X134175000Y-89000000D03*
%TO.P,J7,17,17*%
%TO.N,AB_17*%
X139975000Y-89000000D03*
%TO.P,J7,18,18*%
%TO.N,AB_18*%
X145775000Y-89000000D03*
%TO.P,J7,19,19*%
%TO.N,AB_19*%
X151575000Y-89000000D03*
%TO.P,J7,20,20*%
%TO.N,AB_20*%
X157375000Y-89000000D03*
%TO.P,J7,21,21*%
%TO.N,AB_21*%
X163175000Y-89000000D03*
%TO.P,J7,22,22*%
%TO.N,AB_22*%
X168975000Y-89000000D03*
%TD*%
D11*
%TO.P,J1,1,1*%
%TO.N,AB_1*%
X108800000Y-63520000D03*
D12*
%TO.P,J1,2,2*%
%TO.N,AB_2*%
X104600002Y-63520000D03*
%TO.P,J1,3,3*%
%TO.N,AB_3*%
X108800000Y-59320110D03*
%TO.P,J1,4,4*%
%TO.N,AB_4*%
X104600002Y-59320110D03*
%TD*%
D11*
%TO.P,J4,1,1*%
%TO.N,AB_13*%
X150575000Y-63520000D03*
D12*
%TO.P,J4,2,2*%
%TO.N,AB_14*%
X146375002Y-63520000D03*
%TO.P,J4,3,3*%
%TO.N,AB_15*%
X150575000Y-59320110D03*
%TO.P,J4,4,4*%
%TO.N,AB_16*%
X146375002Y-59320110D03*
%TD*%
D11*
%TO.P,J3,1,1*%
%TO.N,AB_9*%
X132650000Y-63520000D03*
D12*
%TO.P,J3,2,2*%
%TO.N,AB_10*%
X128450002Y-63520000D03*
%TO.P,J3,3,3*%
%TO.N,AB_11*%
X132650000Y-59320110D03*
%TO.P,J3,4,4*%
%TO.N,AB_12*%
X128450002Y-59320110D03*
%TD*%
D11*
%TO.P,J2,1,1*%
%TO.N,AB_5*%
X120750000Y-63520000D03*
D12*
%TO.P,J2,2,2*%
%TO.N,AB_6*%
X116550002Y-63520000D03*
%TO.P,J2,3,3*%
%TO.N,AB_7*%
X120750000Y-59320110D03*
%TO.P,J2,4,4*%
%TO.N,AB_8*%
X116550002Y-59320110D03*
%TD*%
D11*
%TO.P,J5,1,1*%
%TO.N,AB_17*%
X162800000Y-63520000D03*
D12*
%TO.P,J5,2,2*%
%TO.N,AB_18*%
X158600002Y-63520000D03*
%TO.P,J5,3,3*%
%TO.N,AB_19*%
X162800000Y-59320110D03*
%TO.P,J5,4,4*%
%TO.N,AB_20*%
X158600002Y-59320110D03*
%TD*%
D11*
%TO.P,J6,1,1*%
%TO.N,AB_21*%
X174650000Y-63520000D03*
D12*
%TO.P,J6,2,2*%
%TO.N,AB_22*%
X170450002Y-63520000D03*
%TO.P,J6,3,3*%
%TO.N,unconnected-(J6-Pad3)*%
X174650000Y-59320110D03*
%TO.P,J6,4,4*%
%TO.N,unconnected-(J6-Pad4)*%
X170450002Y-59320110D03*
%TD*%
D13*
%TO.N,AB_14*%
X139700000Y-65740000D03*
%TD*%
D14*
%TO.N,AB_3*%
X122575000Y-79195000D02*
X122575000Y-80500000D01*
X112950000Y-61630000D02*
X112950000Y-69570000D01*
X112950000Y-69570000D02*
X122575000Y-79195000D01*
X110640110Y-59320110D02*
X112950000Y-61630000D01*
X108800000Y-59320110D02*
X110640110Y-59320110D01*
%TO.N,AB_10*%
X139160000Y-61635000D02*
X139160000Y-62710000D01*
X157720000Y-67280000D02*
X155200000Y-64760000D01*
X163175000Y-78825000D02*
X157720000Y-73370000D01*
X133550000Y-68320000D02*
X130150000Y-68320000D01*
X139160000Y-62710000D02*
X133550000Y-68320000D01*
X157720000Y-73370000D02*
X157720000Y-67280000D01*
X130150000Y-68320000D02*
X128450002Y-66620002D01*
X155200000Y-58295000D02*
X153385000Y-56480000D01*
X128450002Y-66620002D02*
X128450002Y-63520000D01*
X144315000Y-56480000D02*
X139160000Y-61635000D01*
X163175000Y-80500000D02*
X163175000Y-78825000D01*
X153385000Y-56480000D02*
X144315000Y-56480000D01*
X155200000Y-64760000D02*
X155200000Y-58295000D01*
%TO.N,AB_11*%
X166710000Y-58455000D02*
X163000000Y-54745000D01*
X168975000Y-66695000D02*
X166710000Y-64430000D01*
X166710000Y-64430000D02*
X166710000Y-58455000D01*
X132650000Y-56995000D02*
X132650000Y-59320110D01*
X168975000Y-80500000D02*
X168975000Y-66695000D01*
X134900000Y-54745000D02*
X132650000Y-56995000D01*
X163000000Y-54745000D02*
X134900000Y-54745000D01*
%TO.N,AB_13*%
X150575000Y-63770000D02*
X154575000Y-67770000D01*
X152600000Y-83370000D02*
X141152308Y-83370000D01*
X154575000Y-67770000D02*
X154575000Y-81395000D01*
X118490000Y-92660000D02*
X116775000Y-90945000D01*
X154575000Y-81395000D02*
X152600000Y-83370000D01*
X116775000Y-90945000D02*
X116775000Y-89000000D01*
X137130000Y-87392308D02*
X137130000Y-91110000D01*
X137130000Y-91110000D02*
X135580000Y-92660000D01*
X135580000Y-92660000D02*
X118490000Y-92660000D01*
X141152308Y-83370000D02*
X137130000Y-87392308D01*
%TO.N,AB_14*%
X130025000Y-71270000D02*
X125550000Y-75745000D01*
X134170000Y-71270000D02*
X130025000Y-71270000D01*
X139700000Y-65740000D02*
X134170000Y-71270000D01*
X125550000Y-75745000D02*
X125550000Y-86025000D01*
X125550000Y-86025000D02*
X122575000Y-89000000D01*
%TO.N,AB_16*%
X142150000Y-62460000D02*
X145289890Y-59320110D01*
X134175000Y-86395000D02*
X136890000Y-83680000D01*
X142150000Y-68190000D02*
X142150000Y-62460000D01*
X134175000Y-86395000D02*
X134175000Y-89000000D01*
X136890000Y-73450000D02*
X142150000Y-68190000D01*
X136890000Y-83680000D02*
X136890000Y-73450000D01*
X145289890Y-59320110D02*
X146375002Y-59320110D01*
%TO.N,AB_17*%
X143485000Y-85490000D02*
X139975000Y-89000000D01*
X162800000Y-63520000D02*
X162800000Y-63845000D01*
X161755000Y-85490000D02*
X143485000Y-85490000D01*
X166175000Y-67220000D02*
X166175000Y-81070000D01*
X166175000Y-81070000D02*
X161755000Y-85490000D01*
X162800000Y-63845000D02*
X166175000Y-67220000D01*
%TO.N,AB_21*%
X174650000Y-63520000D02*
X174720000Y-63590000D01*
X163175000Y-91215000D02*
X163175000Y-89000000D01*
X164330000Y-92370000D02*
X163175000Y-91215000D01*
X174720000Y-88120000D02*
X170470000Y-92370000D01*
X170470000Y-92370000D02*
X164330000Y-92370000D01*
X174720000Y-63590000D02*
X174720000Y-88120000D01*
%TO.N,AB_22*%
X169780000Y-89000000D02*
X168975000Y-89000000D01*
X172220000Y-66610000D02*
X172220000Y-86560000D01*
X172220000Y-86560000D02*
X169780000Y-89000000D01*
X170450002Y-64840002D02*
X172220000Y-66610000D01*
X170450002Y-63520000D02*
X170450002Y-64840002D01*
%TD*%
M02*
