%TF.GenerationSoftware,KiCad,Pcbnew,6.0.11-2627ca5db0~126~ubuntu22.04.1*%
%TF.CreationDate,2026-05-01T17:22:13+10:00*%
%TF.ProjectId,CBR_AdapterBoard,4342525f-4164-4617-9074-6572426f6172,rev?*%
%TF.SameCoordinates,Original*%
%TF.FileFunction,Soldermask,Top*%
%TF.FilePolarity,Negative*%
%FSLAX46Y46*%
G04 Gerber Fmt 4.6, Leading zero omitted, Abs format (unit mm)*
G04 Created by KiCad (PCBNEW 6.0.11-2627ca5db0~126~ubuntu22.04.1) date 2026-05-01 17:22:13*
%MOMM*%
%LPD*%
G01*
G04 APERTURE LIST*
G04 Aperture macros list*
%AMRoundRect*
0 Rectangle with rounded corners*
0 $1 Rounding radius*
0 $2 $3 $4 $5 $6 $7 $8 $9 X,Y pos of 4 corners*
0 Add a 4 corners polygon primitive as box body*
4,1,4,$2,$3,$4,$5,$6,$7,$8,$9,$2,$3,0*
0 Add four circle primitives for the rounded corners*
1,1,$1+$1,$2,$3*
1,1,$1+$1,$4,$5*
1,1,$1+$1,$6,$7*
1,1,$1+$1,$8,$9*
0 Add four rect primitives between the rounded corners*
20,1,$1+$1,$2,$3,$4,$5,0*
20,1,$1+$1,$4,$5,$6,$7,0*
20,1,$1+$1,$6,$7,$8,$9,0*
20,1,$1+$1,$8,$9,$2,$3,0*%
G04 Aperture macros list end*
%ADD10C,3.000000*%
%ADD11RoundRect,0.675000X-0.675000X-0.975000X0.675000X-0.975000X0.675000X0.975000X-0.675000X0.975000X0*%
%ADD12O,2.700000X3.300000*%
G04 APERTURE END LIST*
D10*
%TO.C,J7*%
X110975000Y-80500000D03*
X116775000Y-80500000D03*
X122575000Y-80500000D03*
X128375000Y-80500000D03*
X134175000Y-80500000D03*
X139975000Y-80500000D03*
X145775000Y-80500000D03*
X151575000Y-80500000D03*
X157375000Y-80500000D03*
X163175000Y-80500000D03*
X168975000Y-80500000D03*
X110975000Y-89000000D03*
X116775000Y-89000000D03*
X122575000Y-89000000D03*
X128375000Y-89000000D03*
X134175000Y-89000000D03*
X139975000Y-89000000D03*
X145775000Y-89000000D03*
X151575000Y-89000000D03*
X157375000Y-89000000D03*
X163175000Y-89000000D03*
X168975000Y-89000000D03*
%TD*%
D11*
%TO.C,J1*%
X108800000Y-63520000D03*
D12*
X104600002Y-63520000D03*
X108800000Y-59320110D03*
X104600002Y-59320110D03*
%TD*%
D11*
%TO.C,J4*%
X150575000Y-63520000D03*
D12*
X146375002Y-63520000D03*
X150575000Y-59320110D03*
X146375002Y-59320110D03*
%TD*%
D11*
%TO.C,J3*%
X132650000Y-63520000D03*
D12*
X128450002Y-63520000D03*
X132650000Y-59320110D03*
X128450002Y-59320110D03*
%TD*%
D11*
%TO.C,J2*%
X120750000Y-63520000D03*
D12*
X116550002Y-63520000D03*
X120750000Y-59320110D03*
X116550002Y-59320110D03*
%TD*%
D11*
%TO.C,J5*%
X162800000Y-63520000D03*
D12*
X158600002Y-63520000D03*
X162800000Y-59320110D03*
X158600002Y-59320110D03*
%TD*%
D11*
%TO.C,J6*%
X174650000Y-63520000D03*
D12*
X170450002Y-63520000D03*
X174650000Y-59320110D03*
X170450002Y-59320110D03*
%TD*%
M02*
