%TF.GenerationSoftware,KiCad,Pcbnew,6.0.11-2627ca5db0~126~ubuntu22.04.1*%
%TF.CreationDate,2026-05-01T17:22:13+10:00*%
%TF.ProjectId,CBR_AdapterBoard,4342525f-4164-4617-9074-6572426f6172,rev?*%
%TF.SameCoordinates,Original*%
%TF.FileFunction,Legend,Bot*%
%TF.FilePolarity,Positive*%
%FSLAX46Y46*%
G04 Gerber Fmt 4.6, Leading zero omitted, Abs format (unit mm)*
G04 Created by KiCad (PCBNEW 6.0.11-2627ca5db0~126~ubuntu22.04.1) date 2026-05-01 17:22:13*
%MOMM*%
%LPD*%
G01*
G04 APERTURE LIST*
%ADD10C,0.150000*%
%ADD11C,0.200000*%
%ADD12C,0.300000*%
%ADD13C,0.508000*%
G04 APERTURE END LIST*
D10*
X160525000Y-76620000D02*
X160525000Y-67545000D01*
D11*
X140201000Y-59986000D02*
X140201000Y-56938000D01*
X140201000Y-56938000D02*
X139439000Y-57954000D01*
D10*
X113062500Y-76420000D02*
X123487500Y-76420000D01*
X123487500Y-76420000D02*
X123487500Y-67282500D01*
X123487500Y-67282500D02*
X113062500Y-67282500D01*
X113062500Y-67282500D02*
X113062500Y-76420000D01*
X118475000Y-76382500D02*
X118475000Y-67307500D01*
X155150000Y-71895000D02*
X165575000Y-71895000D01*
X148280000Y-76705000D02*
X148280000Y-67630000D01*
X101012500Y-71732500D02*
X111437500Y-71732500D01*
X100975000Y-76495000D02*
X111400000Y-76495000D01*
X111400000Y-76495000D02*
X111400000Y-67357500D01*
X111400000Y-67357500D02*
X100975000Y-67357500D01*
X100975000Y-67357500D02*
X100975000Y-76495000D01*
X106387500Y-76457500D02*
X106387500Y-67382500D01*
X124987500Y-76420000D02*
X135412500Y-76420000D01*
X135412500Y-76420000D02*
X135412500Y-67282500D01*
X135412500Y-67282500D02*
X124987500Y-67282500D01*
X124987500Y-67282500D02*
X124987500Y-76420000D01*
X167012500Y-76607500D02*
X177437500Y-76607500D01*
X177437500Y-76607500D02*
X177437500Y-67470000D01*
X177437500Y-67470000D02*
X167012500Y-67470000D01*
X167012500Y-67470000D02*
X167012500Y-76607500D01*
X167050000Y-71845000D02*
X177475000Y-71845000D01*
D11*
X140963000Y-57954000D02*
X140201000Y-56938000D01*
D10*
X172425000Y-76570000D02*
X172425000Y-67495000D01*
X125025000Y-71657500D02*
X135450000Y-71657500D01*
X143062500Y-71970000D02*
X153487500Y-71970000D01*
X155112500Y-76657500D02*
X165537500Y-76657500D01*
X165537500Y-76657500D02*
X165537500Y-67520000D01*
X165537500Y-67520000D02*
X155112500Y-67520000D01*
X155112500Y-67520000D02*
X155112500Y-76657500D01*
X143025000Y-76732500D02*
X153450000Y-76732500D01*
X153450000Y-76732500D02*
X153450000Y-67595000D01*
X153450000Y-67595000D02*
X143025000Y-67595000D01*
X143025000Y-67595000D02*
X143025000Y-76732500D01*
X130400000Y-76382500D02*
X130400000Y-67307500D01*
X113100000Y-71657500D02*
X123525000Y-71657500D01*
D12*
X146245833Y-75686666D02*
X147845833Y-75686666D01*
X147045833Y-75686666D02*
X147045833Y-72886666D01*
X147312500Y-73286666D01*
X147579166Y-73553333D01*
X147845833Y-73686666D01*
X143845833Y-73820000D02*
X143845833Y-75686666D01*
X144512500Y-72753333D02*
X145179166Y-74753333D01*
X143445833Y-74753333D01*
D10*
X170460476Y-83472380D02*
X171031904Y-83472380D01*
X170746190Y-83472380D02*
X170746190Y-82472380D01*
X170841428Y-82615238D01*
X170936666Y-82710476D01*
X171031904Y-82758095D01*
X169508095Y-83472380D02*
X170079523Y-83472380D01*
X169793809Y-83472380D02*
X169793809Y-82472380D01*
X169889047Y-82615238D01*
X169984285Y-82710476D01*
X170079523Y-82758095D01*
D12*
X133458333Y-75374166D02*
X132925000Y-75374166D01*
X132658333Y-75240833D01*
X132525000Y-75107500D01*
X132258333Y-74707500D01*
X132125000Y-74174166D01*
X132125000Y-73107500D01*
X132258333Y-72840833D01*
X132391666Y-72707500D01*
X132658333Y-72574166D01*
X133191666Y-72574166D01*
X133458333Y-72707500D01*
X133591666Y-72840833D01*
X133725000Y-73107500D01*
X133725000Y-73774166D01*
X133591666Y-74040833D01*
X133458333Y-74174166D01*
X133191666Y-74307500D01*
X132658333Y-74307500D01*
X132391666Y-74174166D01*
X132258333Y-74040833D01*
X132125000Y-73774166D01*
D10*
X155205714Y-94936857D02*
X155777142Y-94936857D01*
X155777142Y-93736857D01*
X154805714Y-94936857D02*
X154805714Y-94136857D01*
X154805714Y-93736857D02*
X154862857Y-93794000D01*
X154805714Y-93851142D01*
X154748571Y-93794000D01*
X154805714Y-93736857D01*
X154805714Y-93851142D01*
X153720000Y-94879714D02*
X153834285Y-94936857D01*
X154062857Y-94936857D01*
X154177142Y-94879714D01*
X154234285Y-94822571D01*
X154291428Y-94708285D01*
X154291428Y-94365428D01*
X154234285Y-94251142D01*
X154177142Y-94194000D01*
X154062857Y-94136857D01*
X153834285Y-94136857D01*
X153720000Y-94194000D01*
X152748571Y-94879714D02*
X152862857Y-94936857D01*
X153091428Y-94936857D01*
X153205714Y-94879714D01*
X153262857Y-94765428D01*
X153262857Y-94308285D01*
X153205714Y-94194000D01*
X153091428Y-94136857D01*
X152862857Y-94136857D01*
X152748571Y-94194000D01*
X152691428Y-94308285D01*
X152691428Y-94422571D01*
X153262857Y-94536857D01*
X152177142Y-94136857D02*
X152177142Y-94936857D01*
X152177142Y-94251142D02*
X152120000Y-94194000D01*
X152005714Y-94136857D01*
X151834285Y-94136857D01*
X151720000Y-94194000D01*
X151662857Y-94308285D01*
X151662857Y-94936857D01*
X151148571Y-94879714D02*
X151034285Y-94936857D01*
X150805714Y-94936857D01*
X150691428Y-94879714D01*
X150634285Y-94765428D01*
X150634285Y-94708285D01*
X150691428Y-94594000D01*
X150805714Y-94536857D01*
X150977142Y-94536857D01*
X151091428Y-94479714D01*
X151148571Y-94365428D01*
X151148571Y-94308285D01*
X151091428Y-94194000D01*
X150977142Y-94136857D01*
X150805714Y-94136857D01*
X150691428Y-94194000D01*
X149662857Y-94879714D02*
X149777142Y-94936857D01*
X150005714Y-94936857D01*
X150120000Y-94879714D01*
X150177142Y-94765428D01*
X150177142Y-94308285D01*
X150120000Y-94194000D01*
X150005714Y-94136857D01*
X149777142Y-94136857D01*
X149662857Y-94194000D01*
X149605714Y-94308285D01*
X149605714Y-94422571D01*
X150177142Y-94536857D01*
X148577142Y-94936857D02*
X148577142Y-93736857D01*
X148577142Y-94879714D02*
X148691428Y-94936857D01*
X148920000Y-94936857D01*
X149034285Y-94879714D01*
X149091428Y-94822571D01*
X149148571Y-94708285D01*
X149148571Y-94365428D01*
X149091428Y-94251142D01*
X149034285Y-94194000D01*
X148920000Y-94136857D01*
X148691428Y-94136857D01*
X148577142Y-94194000D01*
X146577142Y-94136857D02*
X146577142Y-94936857D01*
X147091428Y-94136857D02*
X147091428Y-94765428D01*
X147034285Y-94879714D01*
X146920000Y-94936857D01*
X146748571Y-94936857D01*
X146634285Y-94879714D01*
X146577142Y-94822571D01*
X146005714Y-94136857D02*
X146005714Y-94936857D01*
X146005714Y-94251142D02*
X145948571Y-94194000D01*
X145834285Y-94136857D01*
X145662857Y-94136857D01*
X145548571Y-94194000D01*
X145491428Y-94308285D01*
X145491428Y-94936857D01*
X144405714Y-94936857D02*
X144405714Y-93736857D01*
X144405714Y-94879714D02*
X144520000Y-94936857D01*
X144748571Y-94936857D01*
X144862857Y-94879714D01*
X144920000Y-94822571D01*
X144977142Y-94708285D01*
X144977142Y-94365428D01*
X144920000Y-94251142D01*
X144862857Y-94194000D01*
X144748571Y-94136857D01*
X144520000Y-94136857D01*
X144405714Y-94194000D01*
X143377142Y-94879714D02*
X143491428Y-94936857D01*
X143720000Y-94936857D01*
X143834285Y-94879714D01*
X143891428Y-94765428D01*
X143891428Y-94308285D01*
X143834285Y-94194000D01*
X143720000Y-94136857D01*
X143491428Y-94136857D01*
X143377142Y-94194000D01*
X143320000Y-94308285D01*
X143320000Y-94422571D01*
X143891428Y-94536857D01*
X142805714Y-94936857D02*
X142805714Y-94136857D01*
X142805714Y-94365428D02*
X142748571Y-94251142D01*
X142691428Y-94194000D01*
X142577142Y-94136857D01*
X142462857Y-94136857D01*
X141320000Y-94136857D02*
X140862857Y-94136857D01*
X141148571Y-93736857D02*
X141148571Y-94765428D01*
X141091428Y-94879714D01*
X140977142Y-94936857D01*
X140862857Y-94936857D01*
X140462857Y-94936857D02*
X140462857Y-93736857D01*
X139948571Y-94936857D02*
X139948571Y-94308285D01*
X140005714Y-94194000D01*
X140120000Y-94136857D01*
X140291428Y-94136857D01*
X140405714Y-94194000D01*
X140462857Y-94251142D01*
X138920000Y-94879714D02*
X139034285Y-94936857D01*
X139262857Y-94936857D01*
X139377142Y-94879714D01*
X139434285Y-94765428D01*
X139434285Y-94308285D01*
X139377142Y-94194000D01*
X139262857Y-94136857D01*
X139034285Y-94136857D01*
X138920000Y-94194000D01*
X138862857Y-94308285D01*
X138862857Y-94422571D01*
X139434285Y-94536857D01*
X136748571Y-94822571D02*
X136805714Y-94879714D01*
X136977142Y-94936857D01*
X137091428Y-94936857D01*
X137262857Y-94879714D01*
X137377142Y-94765428D01*
X137434285Y-94651142D01*
X137491428Y-94422571D01*
X137491428Y-94251142D01*
X137434285Y-94022571D01*
X137377142Y-93908285D01*
X137262857Y-93794000D01*
X137091428Y-93736857D01*
X136977142Y-93736857D01*
X136805714Y-93794000D01*
X136748571Y-93851142D01*
X136234285Y-94308285D02*
X135834285Y-94308285D01*
X135662857Y-94936857D02*
X136234285Y-94936857D01*
X136234285Y-93736857D01*
X135662857Y-93736857D01*
X134462857Y-94936857D02*
X134862857Y-94365428D01*
X135148571Y-94936857D02*
X135148571Y-93736857D01*
X134691428Y-93736857D01*
X134577142Y-93794000D01*
X134520000Y-93851142D01*
X134462857Y-93965428D01*
X134462857Y-94136857D01*
X134520000Y-94251142D01*
X134577142Y-94308285D01*
X134691428Y-94365428D01*
X135148571Y-94365428D01*
X133948571Y-94936857D02*
X133948571Y-93736857D01*
X133262857Y-94936857D01*
X133262857Y-93736857D01*
X132691428Y-94479714D02*
X131777142Y-94479714D01*
X130977142Y-93736857D02*
X130748571Y-93736857D01*
X130634285Y-93794000D01*
X130520000Y-93908285D01*
X130462857Y-94136857D01*
X130462857Y-94536857D01*
X130520000Y-94765428D01*
X130634285Y-94879714D01*
X130748571Y-94936857D01*
X130977142Y-94936857D01*
X131091428Y-94879714D01*
X131205714Y-94765428D01*
X131262857Y-94536857D01*
X131262857Y-94136857D01*
X131205714Y-93908285D01*
X131091428Y-93794000D01*
X130977142Y-93736857D01*
X129948571Y-94936857D02*
X129948571Y-93736857D01*
X129948571Y-94308285D02*
X129262857Y-94308285D01*
X129262857Y-94936857D02*
X129262857Y-93736857D01*
X128120000Y-94936857D02*
X128691428Y-94936857D01*
X128691428Y-93736857D01*
X127720000Y-94479714D02*
X126805714Y-94479714D01*
X126291428Y-94879714D02*
X126120000Y-94936857D01*
X125834285Y-94936857D01*
X125720000Y-94879714D01*
X125662857Y-94822571D01*
X125605714Y-94708285D01*
X125605714Y-94594000D01*
X125662857Y-94479714D01*
X125720000Y-94422571D01*
X125834285Y-94365428D01*
X126062857Y-94308285D01*
X126177142Y-94251142D01*
X126234285Y-94194000D01*
X126291428Y-94079714D01*
X126291428Y-93965428D01*
X126234285Y-93851142D01*
X126177142Y-93794000D01*
X126062857Y-93736857D01*
X125777142Y-93736857D01*
X125605714Y-93794000D01*
X152120000Y-95954571D02*
X152234285Y-95897428D01*
X152462857Y-95897428D01*
X152577142Y-95954571D01*
X152691428Y-96068857D01*
X152748571Y-96183142D01*
X152748571Y-96411714D01*
X152691428Y-96526000D01*
X152577142Y-96640285D01*
X152462857Y-96697428D01*
X152234285Y-96697428D01*
X152120000Y-96640285D01*
X152348571Y-95497428D02*
X152634285Y-95554571D01*
X152920000Y-95726000D01*
X153091428Y-96011714D01*
X153148571Y-96297428D01*
X153091428Y-96583142D01*
X152920000Y-96868857D01*
X152634285Y-97040285D01*
X152348571Y-97097428D01*
X152062857Y-97040285D01*
X151777142Y-96868857D01*
X151605714Y-96583142D01*
X151548571Y-96297428D01*
X151605714Y-96011714D01*
X151777142Y-95726000D01*
X152062857Y-95554571D01*
X152348571Y-95497428D01*
X150177142Y-95783142D02*
X150120000Y-95726000D01*
X150005714Y-95668857D01*
X149720000Y-95668857D01*
X149605714Y-95726000D01*
X149548571Y-95783142D01*
X149491428Y-95897428D01*
X149491428Y-96011714D01*
X149548571Y-96183142D01*
X150234285Y-96868857D01*
X149491428Y-96868857D01*
X148748571Y-95668857D02*
X148634285Y-95668857D01*
X148520000Y-95726000D01*
X148462857Y-95783142D01*
X148405714Y-95897428D01*
X148348571Y-96126000D01*
X148348571Y-96411714D01*
X148405714Y-96640285D01*
X148462857Y-96754571D01*
X148520000Y-96811714D01*
X148634285Y-96868857D01*
X148748571Y-96868857D01*
X148862857Y-96811714D01*
X148920000Y-96754571D01*
X148977142Y-96640285D01*
X149034285Y-96411714D01*
X149034285Y-96126000D01*
X148977142Y-95897428D01*
X148920000Y-95783142D01*
X148862857Y-95726000D01*
X148748571Y-95668857D01*
X147891428Y-95783142D02*
X147834285Y-95726000D01*
X147720000Y-95668857D01*
X147434285Y-95668857D01*
X147320000Y-95726000D01*
X147262857Y-95783142D01*
X147205714Y-95897428D01*
X147205714Y-96011714D01*
X147262857Y-96183142D01*
X147948571Y-96868857D01*
X147205714Y-96868857D01*
X146177142Y-95668857D02*
X146405714Y-95668857D01*
X146520000Y-95726000D01*
X146577142Y-95783142D01*
X146691428Y-95954571D01*
X146748571Y-96183142D01*
X146748571Y-96640285D01*
X146691428Y-96754571D01*
X146634285Y-96811714D01*
X146520000Y-96868857D01*
X146291428Y-96868857D01*
X146177142Y-96811714D01*
X146120000Y-96754571D01*
X146062857Y-96640285D01*
X146062857Y-96354571D01*
X146120000Y-96240285D01*
X146177142Y-96183142D01*
X146291428Y-96126000D01*
X146520000Y-96126000D01*
X146634285Y-96183142D01*
X146691428Y-96240285D01*
X146748571Y-96354571D01*
X144691428Y-96526000D02*
X144120000Y-96526000D01*
X144805714Y-96868857D02*
X144405714Y-95668857D01*
X144005714Y-96868857D01*
X143434285Y-96868857D02*
X143548571Y-96811714D01*
X143605714Y-96697428D01*
X143605714Y-95668857D01*
X142520000Y-96811714D02*
X142634285Y-96868857D01*
X142862857Y-96868857D01*
X142977142Y-96811714D01*
X143034285Y-96697428D01*
X143034285Y-96240285D01*
X142977142Y-96126000D01*
X142862857Y-96068857D01*
X142634285Y-96068857D01*
X142520000Y-96126000D01*
X142462857Y-96240285D01*
X142462857Y-96354571D01*
X143034285Y-96468857D01*
X142062857Y-96868857D02*
X141434285Y-96068857D01*
X142062857Y-96068857D02*
X141434285Y-96868857D01*
X140062857Y-96868857D02*
X140062857Y-95668857D01*
X139377142Y-96868857D02*
X139891428Y-96183142D01*
X139377142Y-95668857D02*
X140062857Y-96354571D01*
X138862857Y-96868857D02*
X138862857Y-96068857D01*
X138862857Y-95668857D02*
X138920000Y-95726000D01*
X138862857Y-95783142D01*
X138805714Y-95726000D01*
X138862857Y-95668857D01*
X138862857Y-95783142D01*
X137777142Y-96868857D02*
X137777142Y-96240285D01*
X137834285Y-96126000D01*
X137948571Y-96068857D01*
X138177142Y-96068857D01*
X138291428Y-96126000D01*
X137777142Y-96811714D02*
X137891428Y-96868857D01*
X138177142Y-96868857D01*
X138291428Y-96811714D01*
X138348571Y-96697428D01*
X138348571Y-96583142D01*
X138291428Y-96468857D01*
X138177142Y-96411714D01*
X137891428Y-96411714D01*
X137777142Y-96354571D01*
X137034285Y-96868857D02*
X137148571Y-96811714D01*
X137205714Y-96754571D01*
X137262857Y-96640285D01*
X137262857Y-96297428D01*
X137205714Y-96183142D01*
X137148571Y-96126000D01*
X137034285Y-96068857D01*
X136862857Y-96068857D01*
X136748571Y-96126000D01*
X136691428Y-96183142D01*
X136634285Y-96297428D01*
X136634285Y-96640285D01*
X136691428Y-96754571D01*
X136748571Y-96811714D01*
X136862857Y-96868857D01*
X137034285Y-96868857D01*
X136177142Y-96811714D02*
X136062857Y-96868857D01*
X135834285Y-96868857D01*
X135720000Y-96811714D01*
X135662857Y-96697428D01*
X135662857Y-96640285D01*
X135720000Y-96526000D01*
X135834285Y-96468857D01*
X136005714Y-96468857D01*
X136120000Y-96411714D01*
X136177142Y-96297428D01*
X136177142Y-96240285D01*
X136120000Y-96126000D01*
X136005714Y-96068857D01*
X135834285Y-96068857D01*
X135720000Y-96126000D01*
X133891428Y-97326000D02*
X133948571Y-97268857D01*
X134062857Y-97097428D01*
X134120000Y-96983142D01*
X134177142Y-96811714D01*
X134234285Y-96526000D01*
X134234285Y-96297428D01*
X134177142Y-96011714D01*
X134120000Y-95840285D01*
X134062857Y-95726000D01*
X133948571Y-95554571D01*
X133891428Y-95497428D01*
X133548571Y-96068857D02*
X133262857Y-96868857D01*
X132977142Y-96068857D01*
X132291428Y-95668857D02*
X132177142Y-95668857D01*
X132062857Y-95726000D01*
X132005714Y-95783142D01*
X131948571Y-95897428D01*
X131891428Y-96126000D01*
X131891428Y-96411714D01*
X131948571Y-96640285D01*
X132005714Y-96754571D01*
X132062857Y-96811714D01*
X132177142Y-96868857D01*
X132291428Y-96868857D01*
X132405714Y-96811714D01*
X132462857Y-96754571D01*
X132520000Y-96640285D01*
X132577142Y-96411714D01*
X132577142Y-96126000D01*
X132520000Y-95897428D01*
X132462857Y-95783142D01*
X132405714Y-95726000D01*
X132291428Y-95668857D01*
X131377142Y-96754571D02*
X131320000Y-96811714D01*
X131377142Y-96868857D01*
X131434285Y-96811714D01*
X131377142Y-96754571D01*
X131377142Y-96868857D01*
X130862857Y-95783142D02*
X130805714Y-95726000D01*
X130691428Y-95668857D01*
X130405714Y-95668857D01*
X130291428Y-95726000D01*
X130234285Y-95783142D01*
X130177142Y-95897428D01*
X130177142Y-96011714D01*
X130234285Y-96183142D01*
X130920000Y-96868857D01*
X130177142Y-96868857D01*
X129662857Y-96868857D02*
X129662857Y-95668857D01*
X129662857Y-96126000D02*
X129548571Y-96068857D01*
X129320000Y-96068857D01*
X129205714Y-96126000D01*
X129148571Y-96183142D01*
X129091428Y-96297428D01*
X129091428Y-96640285D01*
X129148571Y-96754571D01*
X129205714Y-96811714D01*
X129320000Y-96868857D01*
X129548571Y-96868857D01*
X129662857Y-96811714D01*
X128691428Y-97326000D02*
X128634285Y-97268857D01*
X128520000Y-97097428D01*
X128462857Y-96983142D01*
X128405714Y-96811714D01*
X128348571Y-96526000D01*
X128348571Y-96297428D01*
X128405714Y-96011714D01*
X128462857Y-95840285D01*
X128520000Y-95726000D01*
X128634285Y-95554571D01*
X128691428Y-95497428D01*
D12*
X163608333Y-75611666D02*
X165208333Y-75611666D01*
X164408333Y-75611666D02*
X164408333Y-72811666D01*
X164675000Y-73211666D01*
X164941666Y-73478333D01*
X165208333Y-73611666D01*
X162675000Y-72811666D02*
X160808333Y-72811666D01*
X162008333Y-75611666D01*
X151520833Y-71061666D02*
X153120833Y-71061666D01*
X152320833Y-71061666D02*
X152320833Y-68261666D01*
X152587500Y-68661666D01*
X152854166Y-68928333D01*
X153120833Y-69061666D01*
X148987500Y-68261666D02*
X150320833Y-68261666D01*
X150454166Y-69595000D01*
X150320833Y-69461666D01*
X150054166Y-69328333D01*
X149387500Y-69328333D01*
X149120833Y-69461666D01*
X148987500Y-69595000D01*
X148854166Y-69861666D01*
X148854166Y-70528333D01*
X148987500Y-70795000D01*
X149120833Y-70928333D01*
X149387500Y-71061666D01*
X150054166Y-71061666D01*
X150320833Y-70928333D01*
X150454166Y-70795000D01*
X151495833Y-75686666D02*
X153095833Y-75686666D01*
X152295833Y-75686666D02*
X152295833Y-72886666D01*
X152562500Y-73286666D01*
X152829166Y-73553333D01*
X153095833Y-73686666D01*
X150562500Y-72886666D02*
X148829166Y-72886666D01*
X149762500Y-73953333D01*
X149362500Y-73953333D01*
X149095833Y-74086666D01*
X148962500Y-74220000D01*
X148829166Y-74486666D01*
X148829166Y-75153333D01*
X148962500Y-75420000D01*
X149095833Y-75553333D01*
X149362500Y-75686666D01*
X150162500Y-75686666D01*
X150429166Y-75553333D01*
X150562500Y-75420000D01*
X170575000Y-68052142D02*
X168575000Y-71052142D01*
X168575000Y-68052142D02*
X170575000Y-71052142D01*
D10*
X107003333Y-55452380D02*
X107003333Y-56166666D01*
X107050952Y-56309523D01*
X107146190Y-56404761D01*
X107289047Y-56452380D01*
X107384285Y-56452380D01*
X106003333Y-56452380D02*
X106574761Y-56452380D01*
X106289047Y-56452380D02*
X106289047Y-55452380D01*
X106384285Y-55595238D01*
X106479523Y-55690476D01*
X106574761Y-55738095D01*
X172963333Y-55452380D02*
X172963333Y-56166666D01*
X173010952Y-56309523D01*
X173106190Y-56404761D01*
X173249047Y-56452380D01*
X173344285Y-56452380D01*
X172058571Y-55452380D02*
X172249047Y-55452380D01*
X172344285Y-55500000D01*
X172391904Y-55547619D01*
X172487142Y-55690476D01*
X172534761Y-55880952D01*
X172534761Y-56261904D01*
X172487142Y-56357142D01*
X172439523Y-56404761D01*
X172344285Y-56452380D01*
X172153809Y-56452380D01*
X172058571Y-56404761D01*
X172010952Y-56357142D01*
X171963333Y-56261904D01*
X171963333Y-56023809D01*
X172010952Y-55928571D01*
X172058571Y-55880952D01*
X172153809Y-55833333D01*
X172344285Y-55833333D01*
X172439523Y-55880952D01*
X172487142Y-55928571D01*
X172534761Y-56023809D01*
D12*
X175975000Y-68027142D02*
X173975000Y-71027142D01*
X173975000Y-68027142D02*
X175975000Y-71027142D01*
X108055357Y-75539642D02*
X109769642Y-75539642D01*
X108912500Y-75539642D02*
X108912500Y-72539642D01*
X109198214Y-72968214D01*
X109483928Y-73253928D01*
X109769642Y-73396785D01*
X122025000Y-67839642D02*
X120025000Y-67839642D01*
X121310714Y-70839642D01*
D10*
X148783333Y-55452380D02*
X148783333Y-56166666D01*
X148830952Y-56309523D01*
X148926190Y-56404761D01*
X149069047Y-56452380D01*
X149164285Y-56452380D01*
X147878571Y-55785714D02*
X147878571Y-56452380D01*
X148116666Y-55404761D02*
X148354761Y-56119047D01*
X147735714Y-56119047D01*
D12*
X171833333Y-73028333D02*
X171700000Y-72895000D01*
X171433333Y-72761666D01*
X170766666Y-72761666D01*
X170500000Y-72895000D01*
X170366666Y-73028333D01*
X170233333Y-73295000D01*
X170233333Y-73561666D01*
X170366666Y-73961666D01*
X171966666Y-75561666D01*
X170233333Y-75561666D01*
X169166666Y-73028333D02*
X169033333Y-72895000D01*
X168766666Y-72761666D01*
X168100000Y-72761666D01*
X167833333Y-72895000D01*
X167700000Y-73028333D01*
X167566666Y-73295000D01*
X167566666Y-73561666D01*
X167700000Y-73961666D01*
X169300000Y-75561666D01*
X167566666Y-75561666D01*
D10*
X130803333Y-55452380D02*
X130803333Y-56166666D01*
X130850952Y-56309523D01*
X130946190Y-56404761D01*
X131089047Y-56452380D01*
X131184285Y-56452380D01*
X130422380Y-55452380D02*
X129803333Y-55452380D01*
X130136666Y-55833333D01*
X129993809Y-55833333D01*
X129898571Y-55880952D01*
X129850952Y-55928571D01*
X129803333Y-56023809D01*
X129803333Y-56261904D01*
X129850952Y-56357142D01*
X129898571Y-56404761D01*
X129993809Y-56452380D01*
X130279523Y-56452380D01*
X130374761Y-56404761D01*
X130422380Y-56357142D01*
D12*
X133483333Y-70749166D02*
X135083333Y-70749166D01*
X134283333Y-70749166D02*
X134283333Y-67949166D01*
X134550000Y-68349166D01*
X134816666Y-68615833D01*
X135083333Y-68749166D01*
X130816666Y-70749166D02*
X132416666Y-70749166D01*
X131616666Y-70749166D02*
X131616666Y-67949166D01*
X131883333Y-68349166D01*
X132150000Y-68615833D01*
X132416666Y-68749166D01*
X128208333Y-75374166D02*
X129808333Y-75374166D01*
X129008333Y-75374166D02*
X129008333Y-72574166D01*
X129275000Y-72974166D01*
X129541666Y-73240833D01*
X129808333Y-73374166D01*
X126475000Y-72574166D02*
X126208333Y-72574166D01*
X125941666Y-72707500D01*
X125808333Y-72840833D01*
X125675000Y-73107500D01*
X125541666Y-73640833D01*
X125541666Y-74307500D01*
X125675000Y-74840833D01*
X125808333Y-75107500D01*
X125941666Y-75240833D01*
X126208333Y-75374166D01*
X126475000Y-75374166D01*
X126741666Y-75240833D01*
X126875000Y-75107500D01*
X127008333Y-74840833D01*
X127141666Y-74307500D01*
X127141666Y-73640833D01*
X127008333Y-73107500D01*
X126875000Y-72840833D01*
X126741666Y-72707500D01*
X126475000Y-72574166D01*
D10*
X119103333Y-55452380D02*
X119103333Y-56166666D01*
X119150952Y-56309523D01*
X119246190Y-56404761D01*
X119389047Y-56452380D01*
X119484285Y-56452380D01*
X118674761Y-55547619D02*
X118627142Y-55500000D01*
X118531904Y-55452380D01*
X118293809Y-55452380D01*
X118198571Y-55500000D01*
X118150952Y-55547619D01*
X118103333Y-55642857D01*
X118103333Y-55738095D01*
X118150952Y-55880952D01*
X118722380Y-56452380D01*
X118103333Y-56452380D01*
X108864285Y-81697380D02*
X109435714Y-81697380D01*
X109150000Y-81697380D02*
X109150000Y-80697380D01*
X109245238Y-80840238D01*
X109340476Y-80935476D01*
X109435714Y-80983095D01*
D12*
X176958333Y-73078333D02*
X176825000Y-72945000D01*
X176558333Y-72811666D01*
X175891666Y-72811666D01*
X175625000Y-72945000D01*
X175491666Y-73078333D01*
X175358333Y-73345000D01*
X175358333Y-73611666D01*
X175491666Y-74011666D01*
X177091666Y-75611666D01*
X175358333Y-75611666D01*
X172691666Y-75611666D02*
X174291666Y-75611666D01*
X173491666Y-75611666D02*
X173491666Y-72811666D01*
X173758333Y-73211666D01*
X174025000Y-73478333D01*
X174291666Y-73611666D01*
X146120833Y-71086666D02*
X147720833Y-71086666D01*
X146920833Y-71086666D02*
X146920833Y-68286666D01*
X147187500Y-68686666D01*
X147454166Y-68953333D01*
X147720833Y-69086666D01*
X143720833Y-68286666D02*
X144254166Y-68286666D01*
X144520833Y-68420000D01*
X144654166Y-68553333D01*
X144920833Y-68953333D01*
X145054166Y-69486666D01*
X145054166Y-70553333D01*
X144920833Y-70820000D01*
X144787500Y-70953333D01*
X144520833Y-71086666D01*
X143987500Y-71086666D01*
X143720833Y-70953333D01*
X143587500Y-70820000D01*
X143454166Y-70553333D01*
X143454166Y-69886666D01*
X143587500Y-69620000D01*
X143720833Y-69486666D01*
X143987500Y-69353333D01*
X144520833Y-69353333D01*
X144787500Y-69486666D01*
X144920833Y-69620000D01*
X145054166Y-69886666D01*
X104519642Y-72825357D02*
X104376785Y-72682500D01*
X104091071Y-72539642D01*
X103376785Y-72539642D01*
X103091071Y-72682500D01*
X102948214Y-72825357D01*
X102805357Y-73111071D01*
X102805357Y-73396785D01*
X102948214Y-73825357D01*
X104662500Y-75539642D01*
X102805357Y-75539642D01*
X115178571Y-72464642D02*
X115750000Y-72464642D01*
X116035714Y-72607500D01*
X116178571Y-72750357D01*
X116464285Y-73178928D01*
X116607142Y-73750357D01*
X116607142Y-74893214D01*
X116464285Y-75178928D01*
X116321428Y-75321785D01*
X116035714Y-75464642D01*
X115464285Y-75464642D01*
X115178571Y-75321785D01*
X115035714Y-75178928D01*
X114892857Y-74893214D01*
X114892857Y-74178928D01*
X115035714Y-73893214D01*
X115178571Y-73750357D01*
X115464285Y-73607500D01*
X116035714Y-73607500D01*
X116321428Y-73750357D01*
X116464285Y-73893214D01*
X116607142Y-74178928D01*
D10*
X161173333Y-55452380D02*
X161173333Y-56166666D01*
X161220952Y-56309523D01*
X161316190Y-56404761D01*
X161459047Y-56452380D01*
X161554285Y-56452380D01*
X160220952Y-55452380D02*
X160697142Y-55452380D01*
X160744761Y-55928571D01*
X160697142Y-55880952D01*
X160601904Y-55833333D01*
X160363809Y-55833333D01*
X160268571Y-55880952D01*
X160220952Y-55928571D01*
X160173333Y-56023809D01*
X160173333Y-56261904D01*
X160220952Y-56357142D01*
X160268571Y-56404761D01*
X160363809Y-56452380D01*
X160601904Y-56452380D01*
X160697142Y-56404761D01*
X160744761Y-56357142D01*
D12*
X159808333Y-68478333D02*
X159675000Y-68345000D01*
X159408333Y-68211666D01*
X158741666Y-68211666D01*
X158475000Y-68345000D01*
X158341666Y-68478333D01*
X158208333Y-68745000D01*
X158208333Y-69011666D01*
X158341666Y-69411666D01*
X159941666Y-71011666D01*
X158208333Y-71011666D01*
X156475000Y-68211666D02*
X156208333Y-68211666D01*
X155941666Y-68345000D01*
X155808333Y-68478333D01*
X155675000Y-68745000D01*
X155541666Y-69278333D01*
X155541666Y-69945000D01*
X155675000Y-70478333D01*
X155808333Y-70745000D01*
X155941666Y-70878333D01*
X156208333Y-71011666D01*
X156475000Y-71011666D01*
X156741666Y-70878333D01*
X156875000Y-70745000D01*
X157008333Y-70478333D01*
X157141666Y-69945000D01*
X157141666Y-69278333D01*
X157008333Y-68745000D01*
X156875000Y-68478333D01*
X156741666Y-68345000D01*
X156475000Y-68211666D01*
X109937500Y-67914642D02*
X108080357Y-67914642D01*
X109080357Y-69057500D01*
X108651785Y-69057500D01*
X108366071Y-69200357D01*
X108223214Y-69343214D01*
X108080357Y-69628928D01*
X108080357Y-70343214D01*
X108223214Y-70628928D01*
X108366071Y-70771785D01*
X108651785Y-70914642D01*
X109508928Y-70914642D01*
X109794642Y-70771785D01*
X109937500Y-70628928D01*
D10*
X139335714Y-58422380D02*
X139335714Y-59231904D01*
X139288095Y-59327142D01*
X139240476Y-59374761D01*
X139145238Y-59422380D01*
X138954761Y-59422380D01*
X138859523Y-59374761D01*
X138811904Y-59327142D01*
X138764285Y-59231904D01*
X138764285Y-58422380D01*
X138288095Y-59422380D02*
X138288095Y-58422380D01*
X137907142Y-58422380D01*
X137811904Y-58470000D01*
X137764285Y-58517619D01*
X137716666Y-58612857D01*
X137716666Y-58755714D01*
X137764285Y-58850952D01*
X137811904Y-58898571D01*
X137907142Y-58946190D01*
X138288095Y-58946190D01*
D12*
X128083333Y-70774166D02*
X129683333Y-70774166D01*
X128883333Y-70774166D02*
X128883333Y-67974166D01*
X129150000Y-68374166D01*
X129416666Y-68640833D01*
X129683333Y-68774166D01*
X127016666Y-68240833D02*
X126883333Y-68107500D01*
X126616666Y-67974166D01*
X125950000Y-67974166D01*
X125683333Y-68107500D01*
X125550000Y-68240833D01*
X125416666Y-68507500D01*
X125416666Y-68774166D01*
X125550000Y-69174166D01*
X127150000Y-70774166D01*
X125416666Y-70774166D01*
X163608333Y-70986666D02*
X165208333Y-70986666D01*
X164408333Y-70986666D02*
X164408333Y-68186666D01*
X164675000Y-68586666D01*
X164941666Y-68853333D01*
X165208333Y-68986666D01*
X162275000Y-70986666D02*
X161741666Y-70986666D01*
X161475000Y-70853333D01*
X161341666Y-70720000D01*
X161075000Y-70320000D01*
X160941666Y-69786666D01*
X160941666Y-68720000D01*
X161075000Y-68453333D01*
X161208333Y-68320000D01*
X161475000Y-68186666D01*
X162008333Y-68186666D01*
X162275000Y-68320000D01*
X162408333Y-68453333D01*
X162541666Y-68720000D01*
X162541666Y-69386666D01*
X162408333Y-69653333D01*
X162275000Y-69786666D01*
X162008333Y-69920000D01*
X161475000Y-69920000D01*
X161208333Y-69786666D01*
X161075000Y-69653333D01*
X160941666Y-69386666D01*
X120285714Y-72464642D02*
X121714285Y-72464642D01*
X121857142Y-73893214D01*
X121714285Y-73750357D01*
X121428571Y-73607500D01*
X120714285Y-73607500D01*
X120428571Y-73750357D01*
X120285714Y-73893214D01*
X120142857Y-74178928D01*
X120142857Y-74893214D01*
X120285714Y-75178928D01*
X120428571Y-75321785D01*
X120714285Y-75464642D01*
X121428571Y-75464642D01*
X121714285Y-75321785D01*
X121857142Y-75178928D01*
X115910714Y-69150357D02*
X116196428Y-69007500D01*
X116339285Y-68864642D01*
X116482142Y-68578928D01*
X116482142Y-68436071D01*
X116339285Y-68150357D01*
X116196428Y-68007500D01*
X115910714Y-67864642D01*
X115339285Y-67864642D01*
X115053571Y-68007500D01*
X114910714Y-68150357D01*
X114767857Y-68436071D01*
X114767857Y-68578928D01*
X114910714Y-68864642D01*
X115053571Y-69007500D01*
X115339285Y-69150357D01*
X115910714Y-69150357D01*
X116196428Y-69293214D01*
X116339285Y-69436071D01*
X116482142Y-69721785D01*
X116482142Y-70293214D01*
X116339285Y-70578928D01*
X116196428Y-70721785D01*
X115910714Y-70864642D01*
X115339285Y-70864642D01*
X115053571Y-70721785D01*
X114910714Y-70578928D01*
X114767857Y-70293214D01*
X114767857Y-69721785D01*
X114910714Y-69436071D01*
X115053571Y-69293214D01*
X115339285Y-69150357D01*
D10*
X163867857Y-84046857D02*
X163867857Y-82846857D01*
X163867857Y-83418285D02*
X163182142Y-83418285D01*
X163182142Y-84046857D02*
X163182142Y-82846857D01*
X162382142Y-82846857D02*
X162153571Y-82846857D01*
X162039285Y-82904000D01*
X161925000Y-83018285D01*
X161867857Y-83246857D01*
X161867857Y-83646857D01*
X161925000Y-83875428D01*
X162039285Y-83989714D01*
X162153571Y-84046857D01*
X162382142Y-84046857D01*
X162496428Y-83989714D01*
X162610714Y-83875428D01*
X162667857Y-83646857D01*
X162667857Y-83246857D01*
X162610714Y-83018285D01*
X162496428Y-82904000D01*
X162382142Y-82846857D01*
X161353571Y-84046857D02*
X161353571Y-82846857D01*
X160667857Y-84046857D01*
X160667857Y-82846857D01*
X160096428Y-84046857D02*
X160096428Y-82846857D01*
X159810714Y-82846857D01*
X159639285Y-82904000D01*
X159525000Y-83018285D01*
X159467857Y-83132571D01*
X159410714Y-83361142D01*
X159410714Y-83532571D01*
X159467857Y-83761142D01*
X159525000Y-83875428D01*
X159639285Y-83989714D01*
X159810714Y-84046857D01*
X160096428Y-84046857D01*
X158953571Y-83704000D02*
X158382142Y-83704000D01*
X159067857Y-84046857D02*
X158667857Y-82846857D01*
X158267857Y-84046857D01*
X156267857Y-83932571D02*
X156325000Y-83989714D01*
X156496428Y-84046857D01*
X156610714Y-84046857D01*
X156782142Y-83989714D01*
X156896428Y-83875428D01*
X156953571Y-83761142D01*
X157010714Y-83532571D01*
X157010714Y-83361142D01*
X156953571Y-83132571D01*
X156896428Y-83018285D01*
X156782142Y-82904000D01*
X156610714Y-82846857D01*
X156496428Y-82846857D01*
X156325000Y-82904000D01*
X156267857Y-82961142D01*
X155353571Y-83418285D02*
X155182142Y-83475428D01*
X155125000Y-83532571D01*
X155067857Y-83646857D01*
X155067857Y-83818285D01*
X155125000Y-83932571D01*
X155182142Y-83989714D01*
X155296428Y-84046857D01*
X155753571Y-84046857D01*
X155753571Y-82846857D01*
X155353571Y-82846857D01*
X155239285Y-82904000D01*
X155182142Y-82961142D01*
X155125000Y-83075428D01*
X155125000Y-83189714D01*
X155182142Y-83304000D01*
X155239285Y-83361142D01*
X155353571Y-83418285D01*
X155753571Y-83418285D01*
X153867857Y-84046857D02*
X154267857Y-83475428D01*
X154553571Y-84046857D02*
X154553571Y-82846857D01*
X154096428Y-82846857D01*
X153982142Y-82904000D01*
X153925000Y-82961142D01*
X153867857Y-83075428D01*
X153867857Y-83246857D01*
X153925000Y-83361142D01*
X153982142Y-83418285D01*
X154096428Y-83475428D01*
X154553571Y-83475428D01*
X152725000Y-84046857D02*
X153410714Y-84046857D01*
X153067857Y-84046857D02*
X153067857Y-82846857D01*
X153182142Y-83018285D01*
X153296428Y-83132571D01*
X153410714Y-83189714D01*
X151582142Y-84046857D02*
X152267857Y-84046857D01*
X151925000Y-84046857D02*
X151925000Y-82846857D01*
X152039285Y-83018285D01*
X152153571Y-83132571D01*
X152267857Y-83189714D01*
X150839285Y-82846857D02*
X150725000Y-82846857D01*
X150610714Y-82904000D01*
X150553571Y-82961142D01*
X150496428Y-83075428D01*
X150439285Y-83304000D01*
X150439285Y-83589714D01*
X150496428Y-83818285D01*
X150553571Y-83932571D01*
X150610714Y-83989714D01*
X150725000Y-84046857D01*
X150839285Y-84046857D01*
X150953571Y-83989714D01*
X151010714Y-83932571D01*
X151067857Y-83818285D01*
X151125000Y-83589714D01*
X151125000Y-83304000D01*
X151067857Y-83075428D01*
X151010714Y-82961142D01*
X150953571Y-82904000D01*
X150839285Y-82846857D01*
X149696428Y-82846857D02*
X149582142Y-82846857D01*
X149467857Y-82904000D01*
X149410714Y-82961142D01*
X149353571Y-83075428D01*
X149296428Y-83304000D01*
X149296428Y-83589714D01*
X149353571Y-83818285D01*
X149410714Y-83932571D01*
X149467857Y-83989714D01*
X149582142Y-84046857D01*
X149696428Y-84046857D01*
X149810714Y-83989714D01*
X149867857Y-83932571D01*
X149925000Y-83818285D01*
X149982142Y-83589714D01*
X149982142Y-83304000D01*
X149925000Y-83075428D01*
X149867857Y-82961142D01*
X149810714Y-82904000D01*
X149696428Y-82846857D01*
X148896428Y-82846857D02*
X148096428Y-84046857D01*
X148096428Y-82846857D02*
X148896428Y-84046857D01*
X147753571Y-82846857D02*
X146953571Y-84046857D01*
X146953571Y-82846857D02*
X147753571Y-84046857D01*
X145639285Y-83989714D02*
X145467857Y-84046857D01*
X145182142Y-84046857D01*
X145067857Y-83989714D01*
X145010714Y-83932571D01*
X144953571Y-83818285D01*
X144953571Y-83704000D01*
X145010714Y-83589714D01*
X145067857Y-83532571D01*
X145182142Y-83475428D01*
X145410714Y-83418285D01*
X145525000Y-83361142D01*
X145582142Y-83304000D01*
X145639285Y-83189714D01*
X145639285Y-83075428D01*
X145582142Y-82961142D01*
X145525000Y-82904000D01*
X145410714Y-82846857D01*
X145125000Y-82846857D01*
X144953571Y-82904000D01*
X144439285Y-82846857D02*
X144439285Y-83818285D01*
X144382142Y-83932571D01*
X144325000Y-83989714D01*
X144210714Y-84046857D01*
X143982142Y-84046857D01*
X143867857Y-83989714D01*
X143810714Y-83932571D01*
X143753571Y-83818285D01*
X143753571Y-82846857D01*
X143182142Y-84046857D02*
X143182142Y-82846857D01*
X142725000Y-82846857D01*
X142610714Y-82904000D01*
X142553571Y-82961142D01*
X142496428Y-83075428D01*
X142496428Y-83246857D01*
X142553571Y-83361142D01*
X142610714Y-83418285D01*
X142725000Y-83475428D01*
X143182142Y-83475428D01*
X141982142Y-83418285D02*
X141582142Y-83418285D01*
X141410714Y-84046857D02*
X141982142Y-84046857D01*
X141982142Y-82846857D01*
X141410714Y-82846857D01*
X140210714Y-84046857D02*
X140610714Y-83475428D01*
X140896428Y-84046857D02*
X140896428Y-82846857D01*
X140439285Y-82846857D01*
X140325000Y-82904000D01*
X140267857Y-82961142D01*
X140210714Y-83075428D01*
X140210714Y-83246857D01*
X140267857Y-83361142D01*
X140325000Y-83418285D01*
X140439285Y-83475428D01*
X140896428Y-83475428D01*
X138382142Y-83418285D02*
X138210714Y-83475428D01*
X138153571Y-83532571D01*
X138096428Y-83646857D01*
X138096428Y-83818285D01*
X138153571Y-83932571D01*
X138210714Y-83989714D01*
X138325000Y-84046857D01*
X138782142Y-84046857D01*
X138782142Y-82846857D01*
X138382142Y-82846857D01*
X138267857Y-82904000D01*
X138210714Y-82961142D01*
X138153571Y-83075428D01*
X138153571Y-83189714D01*
X138210714Y-83304000D01*
X138267857Y-83361142D01*
X138382142Y-83418285D01*
X138782142Y-83418285D01*
X137010714Y-84046857D02*
X137582142Y-84046857D01*
X137582142Y-82846857D01*
X136667857Y-83704000D02*
X136096428Y-83704000D01*
X136782142Y-84046857D02*
X136382142Y-82846857D01*
X135982142Y-84046857D01*
X134896428Y-83932571D02*
X134953571Y-83989714D01*
X135125000Y-84046857D01*
X135239285Y-84046857D01*
X135410714Y-83989714D01*
X135525000Y-83875428D01*
X135582142Y-83761142D01*
X135639285Y-83532571D01*
X135639285Y-83361142D01*
X135582142Y-83132571D01*
X135525000Y-83018285D01*
X135410714Y-82904000D01*
X135239285Y-82846857D01*
X135125000Y-82846857D01*
X134953571Y-82904000D01*
X134896428Y-82961142D01*
X134382142Y-84046857D02*
X134382142Y-82846857D01*
X133696428Y-84046857D02*
X134210714Y-83361142D01*
X133696428Y-82846857D02*
X134382142Y-83532571D01*
X132782142Y-83418285D02*
X132610714Y-83475428D01*
X132553571Y-83532571D01*
X132496428Y-83646857D01*
X132496428Y-83818285D01*
X132553571Y-83932571D01*
X132610714Y-83989714D01*
X132725000Y-84046857D01*
X133182142Y-84046857D01*
X133182142Y-82846857D01*
X132782142Y-82846857D01*
X132667857Y-82904000D01*
X132610714Y-82961142D01*
X132553571Y-83075428D01*
X132553571Y-83189714D01*
X132610714Y-83304000D01*
X132667857Y-83361142D01*
X132782142Y-83418285D01*
X133182142Y-83418285D01*
X131982142Y-84046857D02*
X131982142Y-82846857D01*
X130725000Y-84046857D02*
X131125000Y-83475428D01*
X131410714Y-84046857D02*
X131410714Y-82846857D01*
X130953571Y-82846857D01*
X130839285Y-82904000D01*
X130782142Y-82961142D01*
X130725000Y-83075428D01*
X130725000Y-83246857D01*
X130782142Y-83361142D01*
X130839285Y-83418285D01*
X130953571Y-83475428D01*
X131410714Y-83475428D01*
X130210714Y-84046857D02*
X130210714Y-82846857D01*
X129925000Y-82846857D01*
X129753571Y-82904000D01*
X129639285Y-83018285D01*
X129582142Y-83132571D01*
X129525000Y-83361142D01*
X129525000Y-83532571D01*
X129582142Y-83761142D01*
X129639285Y-83875428D01*
X129753571Y-83989714D01*
X129925000Y-84046857D01*
X130210714Y-84046857D01*
X128096428Y-83589714D02*
X127182142Y-83589714D01*
X125696428Y-83418285D02*
X125296428Y-83418285D01*
X125125000Y-84046857D02*
X125696428Y-84046857D01*
X125696428Y-82846857D01*
X125125000Y-82846857D01*
X124210714Y-83418285D02*
X124610714Y-83418285D01*
X124610714Y-84046857D02*
X124610714Y-82846857D01*
X124039285Y-82846857D01*
X123582142Y-84046857D02*
X123582142Y-82846857D01*
X122096428Y-84046857D02*
X122096428Y-82846857D01*
X121696428Y-83704000D01*
X121296428Y-82846857D01*
X121296428Y-84046857D01*
X120496428Y-82846857D02*
X120267857Y-82846857D01*
X120153571Y-82904000D01*
X120039285Y-83018285D01*
X119982142Y-83246857D01*
X119982142Y-83646857D01*
X120039285Y-83875428D01*
X120153571Y-83989714D01*
X120267857Y-84046857D01*
X120496428Y-84046857D01*
X120610714Y-83989714D01*
X120725000Y-83875428D01*
X120782142Y-83646857D01*
X120782142Y-83246857D01*
X120725000Y-83018285D01*
X120610714Y-82904000D01*
X120496428Y-82846857D01*
X119467857Y-84046857D02*
X119467857Y-82846857D01*
X119182142Y-82846857D01*
X119010714Y-82904000D01*
X118896428Y-83018285D01*
X118839285Y-83132571D01*
X118782142Y-83361142D01*
X118782142Y-83532571D01*
X118839285Y-83761142D01*
X118896428Y-83875428D01*
X119010714Y-83989714D01*
X119182142Y-84046857D01*
X119467857Y-84046857D01*
X118267857Y-83418285D02*
X117867857Y-83418285D01*
X117696428Y-84046857D02*
X118267857Y-84046857D01*
X118267857Y-82846857D01*
X117696428Y-82846857D01*
X116610714Y-84046857D02*
X117182142Y-84046857D01*
X117182142Y-82846857D01*
X168667857Y-84778857D02*
X168382142Y-85978857D01*
X168153571Y-85121714D01*
X167925000Y-85978857D01*
X167639285Y-84778857D01*
X167182142Y-85978857D02*
X167182142Y-84778857D01*
X165925000Y-85978857D02*
X166325000Y-85407428D01*
X166610714Y-85978857D02*
X166610714Y-84778857D01*
X166153571Y-84778857D01*
X166039285Y-84836000D01*
X165982142Y-84893142D01*
X165925000Y-85007428D01*
X165925000Y-85178857D01*
X165982142Y-85293142D01*
X166039285Y-85350285D01*
X166153571Y-85407428D01*
X166610714Y-85407428D01*
X165410714Y-85978857D02*
X165410714Y-84778857D01*
X164839285Y-85978857D02*
X164839285Y-84778857D01*
X164153571Y-85978857D01*
X164153571Y-84778857D01*
X162953571Y-84836000D02*
X163067857Y-84778857D01*
X163239285Y-84778857D01*
X163410714Y-84836000D01*
X163525000Y-84950285D01*
X163582142Y-85064571D01*
X163639285Y-85293142D01*
X163639285Y-85464571D01*
X163582142Y-85693142D01*
X163525000Y-85807428D01*
X163410714Y-85921714D01*
X163239285Y-85978857D01*
X163125000Y-85978857D01*
X162953571Y-85921714D01*
X162896428Y-85864571D01*
X162896428Y-85464571D01*
X163125000Y-85464571D01*
X161467857Y-85978857D02*
X161467857Y-84778857D01*
X161467857Y-85350285D02*
X160782142Y-85350285D01*
X160782142Y-85978857D02*
X160782142Y-84778857D01*
X160267857Y-85636000D02*
X159696428Y-85636000D01*
X160382142Y-85978857D02*
X159982142Y-84778857D01*
X159582142Y-85978857D01*
X158496428Y-85978857D02*
X158896428Y-85407428D01*
X159182142Y-85978857D02*
X159182142Y-84778857D01*
X158725000Y-84778857D01*
X158610714Y-84836000D01*
X158553571Y-84893142D01*
X158496428Y-85007428D01*
X158496428Y-85178857D01*
X158553571Y-85293142D01*
X158610714Y-85350285D01*
X158725000Y-85407428D01*
X159182142Y-85407428D01*
X157982142Y-85978857D02*
X157982142Y-84778857D01*
X157296428Y-85978857D01*
X157296428Y-84778857D01*
X156725000Y-85350285D02*
X156325000Y-85350285D01*
X156153571Y-85978857D02*
X156725000Y-85978857D01*
X156725000Y-84778857D01*
X156153571Y-84778857D01*
X155696428Y-85921714D02*
X155525000Y-85978857D01*
X155239285Y-85978857D01*
X155125000Y-85921714D01*
X155067857Y-85864571D01*
X155010714Y-85750285D01*
X155010714Y-85636000D01*
X155067857Y-85521714D01*
X155125000Y-85464571D01*
X155239285Y-85407428D01*
X155467857Y-85350285D01*
X155582142Y-85293142D01*
X155639285Y-85236000D01*
X155696428Y-85121714D01*
X155696428Y-85007428D01*
X155639285Y-84893142D01*
X155582142Y-84836000D01*
X155467857Y-84778857D01*
X155182142Y-84778857D01*
X155010714Y-84836000D01*
X154553571Y-85921714D02*
X154382142Y-85978857D01*
X154096428Y-85978857D01*
X153982142Y-85921714D01*
X153925000Y-85864571D01*
X153867857Y-85750285D01*
X153867857Y-85636000D01*
X153925000Y-85521714D01*
X153982142Y-85464571D01*
X154096428Y-85407428D01*
X154325000Y-85350285D01*
X154439285Y-85293142D01*
X154496428Y-85236000D01*
X154553571Y-85121714D01*
X154553571Y-85007428D01*
X154496428Y-84893142D01*
X154439285Y-84836000D01*
X154325000Y-84778857D01*
X154039285Y-84778857D01*
X153867857Y-84836000D01*
X152610714Y-84778857D02*
X151925000Y-84778857D01*
X152267857Y-85978857D02*
X152267857Y-84778857D01*
X151296428Y-84778857D02*
X151067857Y-84778857D01*
X150953571Y-84836000D01*
X150839285Y-84950285D01*
X150782142Y-85178857D01*
X150782142Y-85578857D01*
X150839285Y-85807428D01*
X150953571Y-85921714D01*
X151067857Y-85978857D01*
X151296428Y-85978857D01*
X151410714Y-85921714D01*
X151525000Y-85807428D01*
X151582142Y-85578857D01*
X151582142Y-85178857D01*
X151525000Y-84950285D01*
X151410714Y-84836000D01*
X151296428Y-84778857D01*
X149410714Y-85921714D02*
X149239285Y-85978857D01*
X148953571Y-85978857D01*
X148839285Y-85921714D01*
X148782142Y-85864571D01*
X148725000Y-85750285D01*
X148725000Y-85636000D01*
X148782142Y-85521714D01*
X148839285Y-85464571D01*
X148953571Y-85407428D01*
X149182142Y-85350285D01*
X149296428Y-85293142D01*
X149353571Y-85236000D01*
X149410714Y-85121714D01*
X149410714Y-85007428D01*
X149353571Y-84893142D01*
X149296428Y-84836000D01*
X149182142Y-84778857D01*
X148896428Y-84778857D01*
X148725000Y-84836000D01*
X148382142Y-84778857D02*
X147696428Y-84778857D01*
X148039285Y-85978857D02*
X148039285Y-84778857D01*
X147353571Y-85636000D02*
X146782142Y-85636000D01*
X147467857Y-85978857D02*
X147067857Y-84778857D01*
X146667857Y-85978857D01*
X146267857Y-85978857D02*
X146267857Y-84778857D01*
X145582142Y-85978857D01*
X145582142Y-84778857D01*
X145010714Y-85978857D02*
X145010714Y-84778857D01*
X144725000Y-84778857D01*
X144553571Y-84836000D01*
X144439285Y-84950285D01*
X144382142Y-85064571D01*
X144325000Y-85293142D01*
X144325000Y-85464571D01*
X144382142Y-85693142D01*
X144439285Y-85807428D01*
X144553571Y-85921714D01*
X144725000Y-85978857D01*
X145010714Y-85978857D01*
X143810714Y-85521714D02*
X142896428Y-85521714D01*
X142382142Y-85636000D02*
X141810714Y-85636000D01*
X142496428Y-85978857D02*
X142096428Y-84778857D01*
X141696428Y-85978857D01*
X140725000Y-85978857D02*
X141296428Y-85978857D01*
X141296428Y-84778857D01*
X140096428Y-84778857D02*
X139867857Y-84778857D01*
X139753571Y-84836000D01*
X139639285Y-84950285D01*
X139582142Y-85178857D01*
X139582142Y-85578857D01*
X139639285Y-85807428D01*
X139753571Y-85921714D01*
X139867857Y-85978857D01*
X140096428Y-85978857D01*
X140210714Y-85921714D01*
X140325000Y-85807428D01*
X140382142Y-85578857D01*
X140382142Y-85178857D01*
X140325000Y-84950285D01*
X140210714Y-84836000D01*
X140096428Y-84778857D01*
X139067857Y-85978857D02*
X139067857Y-84778857D01*
X138382142Y-85978857D01*
X138382142Y-84778857D01*
X137810714Y-85350285D02*
X137410714Y-85350285D01*
X137239285Y-85978857D02*
X137810714Y-85978857D01*
X137810714Y-84778857D01*
X137239285Y-84778857D01*
X135810714Y-85350285D02*
X135410714Y-85350285D01*
X135239285Y-85978857D02*
X135810714Y-85978857D01*
X135810714Y-84778857D01*
X135239285Y-84778857D01*
X134039285Y-85864571D02*
X134096428Y-85921714D01*
X134267857Y-85978857D01*
X134382142Y-85978857D01*
X134553571Y-85921714D01*
X134667857Y-85807428D01*
X134724999Y-85693142D01*
X134782142Y-85464571D01*
X134782142Y-85293142D01*
X134724999Y-85064571D01*
X134667857Y-84950285D01*
X134553571Y-84836000D01*
X134382142Y-84778857D01*
X134267857Y-84778857D01*
X134096428Y-84836000D01*
X134039285Y-84893142D01*
X133524999Y-84778857D02*
X133524999Y-85750285D01*
X133467857Y-85864571D01*
X133410714Y-85921714D01*
X133296428Y-85978857D01*
X133067857Y-85978857D01*
X132953571Y-85921714D01*
X132896428Y-85864571D01*
X132839285Y-85750285D01*
X132839285Y-84778857D01*
X131353571Y-85521714D02*
X130439285Y-85521714D01*
X128267857Y-85864571D02*
X128324999Y-85921714D01*
X128496428Y-85978857D01*
X128610714Y-85978857D01*
X128782142Y-85921714D01*
X128896428Y-85807428D01*
X128953571Y-85693142D01*
X129010714Y-85464571D01*
X129010714Y-85293142D01*
X128953571Y-85064571D01*
X128896428Y-84950285D01*
X128782142Y-84836000D01*
X128610714Y-84778857D01*
X128496428Y-84778857D01*
X128324999Y-84836000D01*
X128267857Y-84893142D01*
X127524999Y-84778857D02*
X127296428Y-84778857D01*
X127182142Y-84836000D01*
X127067857Y-84950285D01*
X127010714Y-85178857D01*
X127010714Y-85578857D01*
X127067857Y-85807428D01*
X127182142Y-85921714D01*
X127296428Y-85978857D01*
X127524999Y-85978857D01*
X127639285Y-85921714D01*
X127753571Y-85807428D01*
X127810714Y-85578857D01*
X127810714Y-85178857D01*
X127753571Y-84950285D01*
X127639285Y-84836000D01*
X127524999Y-84778857D01*
X126496428Y-85978857D02*
X126496428Y-84778857D01*
X125810714Y-85978857D01*
X125810714Y-84778857D01*
X125239285Y-85978857D02*
X125239285Y-84778857D01*
X124553571Y-85978857D01*
X124553571Y-84778857D01*
X123982142Y-85350285D02*
X123582142Y-85350285D01*
X123410714Y-85978857D02*
X123982142Y-85978857D01*
X123982142Y-84778857D01*
X123410714Y-84778857D01*
X122210714Y-85864571D02*
X122267857Y-85921714D01*
X122439285Y-85978857D01*
X122553571Y-85978857D01*
X122724999Y-85921714D01*
X122839285Y-85807428D01*
X122896428Y-85693142D01*
X122953571Y-85464571D01*
X122953571Y-85293142D01*
X122896428Y-85064571D01*
X122839285Y-84950285D01*
X122724999Y-84836000D01*
X122553571Y-84778857D01*
X122439285Y-84778857D01*
X122267857Y-84836000D01*
X122210714Y-84893142D01*
X121867857Y-84778857D02*
X121182142Y-84778857D01*
X121524999Y-85978857D02*
X121524999Y-84778857D01*
X120553571Y-84778857D02*
X120324999Y-84778857D01*
X120210714Y-84836000D01*
X120096428Y-84950285D01*
X120039285Y-85178857D01*
X120039285Y-85578857D01*
X120096428Y-85807428D01*
X120210714Y-85921714D01*
X120324999Y-85978857D01*
X120553571Y-85978857D01*
X120667857Y-85921714D01*
X120782142Y-85807428D01*
X120839285Y-85578857D01*
X120839285Y-85178857D01*
X120782142Y-84950285D01*
X120667857Y-84836000D01*
X120553571Y-84778857D01*
X118839285Y-85978857D02*
X119239285Y-85407428D01*
X119524999Y-85978857D02*
X119524999Y-84778857D01*
X119067857Y-84778857D01*
X118953571Y-84836000D01*
X118896428Y-84893142D01*
X118839285Y-85007428D01*
X118839285Y-85178857D01*
X118896428Y-85293142D01*
X118953571Y-85350285D01*
X119067857Y-85407428D01*
X119524999Y-85407428D01*
X117010714Y-85350285D02*
X116839285Y-85407428D01*
X116782142Y-85464571D01*
X116724999Y-85578857D01*
X116724999Y-85750285D01*
X116782142Y-85864571D01*
X116839285Y-85921714D01*
X116953571Y-85978857D01*
X117410714Y-85978857D01*
X117410714Y-84778857D01*
X117010714Y-84778857D01*
X116896428Y-84836000D01*
X116839285Y-84893142D01*
X116782142Y-85007428D01*
X116782142Y-85121714D01*
X116839285Y-85236000D01*
X116896428Y-85293142D01*
X117010714Y-85350285D01*
X117410714Y-85350285D01*
X115982142Y-84778857D02*
X115753571Y-84778857D01*
X115639285Y-84836000D01*
X115524999Y-84950285D01*
X115467857Y-85178857D01*
X115467857Y-85578857D01*
X115524999Y-85807428D01*
X115639285Y-85921714D01*
X115753571Y-85978857D01*
X115982142Y-85978857D01*
X116096428Y-85921714D01*
X116210714Y-85807428D01*
X116267857Y-85578857D01*
X116267857Y-85178857D01*
X116210714Y-84950285D01*
X116096428Y-84836000D01*
X115982142Y-84778857D01*
X115010714Y-85636000D02*
X114439285Y-85636000D01*
X115124999Y-85978857D02*
X114724999Y-84778857D01*
X114324999Y-85978857D01*
X113239285Y-85978857D02*
X113639285Y-85407428D01*
X113924999Y-85978857D02*
X113924999Y-84778857D01*
X113467857Y-84778857D01*
X113353571Y-84836000D01*
X113296428Y-84893142D01*
X113239285Y-85007428D01*
X113239285Y-85178857D01*
X113296428Y-85293142D01*
X113353571Y-85350285D01*
X113467857Y-85407428D01*
X113924999Y-85407428D01*
X112724999Y-85978857D02*
X112724999Y-84778857D01*
X112439285Y-84778857D01*
X112267857Y-84836000D01*
X112153571Y-84950285D01*
X112096428Y-85064571D01*
X112039285Y-85293142D01*
X112039285Y-85464571D01*
X112096428Y-85693142D01*
X112153571Y-85807428D01*
X112267857Y-85921714D01*
X112439285Y-85978857D01*
X112724999Y-85978857D01*
X109940476Y-87047380D02*
X110511904Y-87047380D01*
X110226190Y-87047380D02*
X110226190Y-86047380D01*
X110321428Y-86190238D01*
X110416666Y-86285476D01*
X110511904Y-86333095D01*
X109559523Y-86142619D02*
X109511904Y-86095000D01*
X109416666Y-86047380D01*
X109178571Y-86047380D01*
X109083333Y-86095000D01*
X109035714Y-86142619D01*
X108988095Y-86237857D01*
X108988095Y-86333095D01*
X109035714Y-86475952D01*
X109607142Y-87047380D01*
X108988095Y-87047380D01*
D12*
X158333333Y-75611666D02*
X159933333Y-75611666D01*
X159133333Y-75611666D02*
X159133333Y-72811666D01*
X159400000Y-73211666D01*
X159666666Y-73478333D01*
X159933333Y-73611666D01*
X156733333Y-74011666D02*
X157000000Y-73878333D01*
X157133333Y-73745000D01*
X157266666Y-73478333D01*
X157266666Y-73345000D01*
X157133333Y-73078333D01*
X157000000Y-72945000D01*
X156733333Y-72811666D01*
X156200000Y-72811666D01*
X155933333Y-72945000D01*
X155800000Y-73078333D01*
X155666666Y-73345000D01*
X155666666Y-73478333D01*
X155800000Y-73745000D01*
X155933333Y-73878333D01*
X156200000Y-74011666D01*
X156733333Y-74011666D01*
X157000000Y-74145000D01*
X157133333Y-74278333D01*
X157266666Y-74545000D01*
X157266666Y-75078333D01*
X157133333Y-75345000D01*
X157000000Y-75478333D01*
X156733333Y-75611666D01*
X156200000Y-75611666D01*
X155933333Y-75478333D01*
X155800000Y-75345000D01*
X155666666Y-75078333D01*
X155666666Y-74545000D01*
X155800000Y-74278333D01*
X155933333Y-74145000D01*
X156200000Y-74011666D01*
X102966071Y-68939642D02*
X102966071Y-70939642D01*
X103680357Y-67796785D02*
X104394642Y-69939642D01*
X102537500Y-69939642D01*
D10*
X171036904Y-86167619D02*
X170989285Y-86120000D01*
X170894047Y-86072380D01*
X170655952Y-86072380D01*
X170560714Y-86120000D01*
X170513095Y-86167619D01*
X170465476Y-86262857D01*
X170465476Y-86358095D01*
X170513095Y-86500952D01*
X171084523Y-87072380D01*
X170465476Y-87072380D01*
X170084523Y-86167619D02*
X170036904Y-86120000D01*
X169941666Y-86072380D01*
X169703571Y-86072380D01*
X169608333Y-86120000D01*
X169560714Y-86167619D01*
X169513095Y-86262857D01*
X169513095Y-86358095D01*
X169560714Y-86500952D01*
X170132142Y-87072380D01*
X169513095Y-87072380D01*
D13*
%TO.C,J7*%
X110196000Y-83050000D02*
G75*
G03*
X110196000Y-83050000I-381000J0D01*
G01*
%TD*%
M02*
