G04 #@! TF.GenerationSoftware,KiCad,Pcbnew,6.0.11-2627ca5db0~126~ubuntu22.04.1*
G04 #@! TF.CreationDate,2026-01-10T21:31:22+11:00*
G04 #@! TF.ProjectId,CBR_AdapterBoard,4342525f-4164-4617-9074-6572426f6172,rev?*
G04 #@! TF.SameCoordinates,Original*
G04 #@! TF.FileFunction,Legend,Top*
G04 #@! TF.FilePolarity,Positive*
%FSLAX46Y46*%
G04 Gerber Fmt 4.6, Leading zero omitted, Abs format (unit mm)*
G04 Created by KiCad (PCBNEW 6.0.11-2627ca5db0~126~ubuntu22.04.1) date 2026-01-10 21:31:22*
%MOMM*%
%LPD*%
G01*
G04 APERTURE LIST*
%ADD10C,0.150000*%
%ADD11C,0.200000*%
%ADD12C,0.300000*%
%ADD13C,0.400000*%
%ADD14C,0.120000*%
%ADD15C,0.508000*%
%ADD16C,0.152400*%
G04 APERTURE END LIST*
D10*
X125350000Y-71695000D02*
X135775000Y-71695000D01*
X118437500Y-67295000D02*
X118437500Y-76370000D01*
X113387500Y-71645000D02*
X123812500Y-71645000D01*
X125387500Y-67320000D02*
X135812500Y-67320000D01*
X135812500Y-67320000D02*
X135812500Y-76457500D01*
X135812500Y-76457500D02*
X125387500Y-76457500D01*
X125387500Y-76457500D02*
X125387500Y-67320000D01*
X155225000Y-67520000D02*
X165650000Y-67520000D01*
X165650000Y-67520000D02*
X165650000Y-76657500D01*
X165650000Y-76657500D02*
X155225000Y-76657500D01*
X155225000Y-76657500D02*
X155225000Y-67520000D01*
X155187500Y-71895000D02*
X165612500Y-71895000D01*
D11*
X138619000Y-56864000D02*
X137857000Y-57880000D01*
D10*
X143000000Y-71957500D02*
X153425000Y-71957500D01*
X167387500Y-67507500D02*
X177812500Y-67507500D01*
X177812500Y-67507500D02*
X177812500Y-76645000D01*
X177812500Y-76645000D02*
X167387500Y-76645000D01*
X167387500Y-76645000D02*
X167387500Y-67507500D01*
X106387500Y-67345000D02*
X106387500Y-76420000D01*
X113425000Y-67270000D02*
X123850000Y-67270000D01*
X123850000Y-67270000D02*
X123850000Y-76407500D01*
X123850000Y-76407500D02*
X113425000Y-76407500D01*
X113425000Y-76407500D02*
X113425000Y-67270000D01*
D11*
X138619000Y-56864000D02*
X138619000Y-59912000D01*
D10*
X172400000Y-67532500D02*
X172400000Y-76607500D01*
D11*
X139381000Y-57880000D02*
X138619000Y-56864000D01*
D10*
X160237500Y-67545000D02*
X160237500Y-76620000D01*
X101375000Y-67320000D02*
X111800000Y-67320000D01*
X111800000Y-67320000D02*
X111800000Y-76457500D01*
X111800000Y-76457500D02*
X101375000Y-76457500D01*
X101375000Y-76457500D02*
X101375000Y-67320000D01*
X101337500Y-71695000D02*
X111762500Y-71695000D01*
X148050000Y-67607500D02*
X148050000Y-76682500D01*
X167350000Y-71882500D02*
X177775000Y-71882500D01*
X130400000Y-67345000D02*
X130400000Y-76420000D01*
X143037500Y-67582500D02*
X153462500Y-67582500D01*
X153462500Y-67582500D02*
X153462500Y-76720000D01*
X153462500Y-76720000D02*
X143037500Y-76720000D01*
X143037500Y-76720000D02*
X143037500Y-67582500D01*
D12*
X155616666Y-68553333D02*
X155750000Y-68420000D01*
X156016666Y-68286666D01*
X156683333Y-68286666D01*
X156950000Y-68420000D01*
X157083333Y-68553333D01*
X157216666Y-68820000D01*
X157216666Y-69086666D01*
X157083333Y-69486666D01*
X155483333Y-71086666D01*
X157216666Y-71086666D01*
X158950000Y-68286666D02*
X159216666Y-68286666D01*
X159483333Y-68420000D01*
X159616666Y-68553333D01*
X159750000Y-68820000D01*
X159883333Y-69353333D01*
X159883333Y-70020000D01*
X159750000Y-70553333D01*
X159616666Y-70820000D01*
X159483333Y-70953333D01*
X159216666Y-71086666D01*
X158950000Y-71086666D01*
X158683333Y-70953333D01*
X158550000Y-70820000D01*
X158416666Y-70553333D01*
X158283333Y-70020000D01*
X158283333Y-69353333D01*
X158416666Y-68820000D01*
X158550000Y-68553333D01*
X158683333Y-68420000D01*
X158950000Y-68286666D01*
X127316666Y-70786666D02*
X125716666Y-70786666D01*
X126516666Y-70786666D02*
X126516666Y-67986666D01*
X126250000Y-68386666D01*
X125983333Y-68653333D01*
X125716666Y-68786666D01*
X128383333Y-68253333D02*
X128516666Y-68120000D01*
X128783333Y-67986666D01*
X129450000Y-67986666D01*
X129716666Y-68120000D01*
X129850000Y-68253333D01*
X129983333Y-68520000D01*
X129983333Y-68786666D01*
X129850000Y-69186666D01*
X128250000Y-70786666D01*
X129983333Y-70786666D01*
X127341666Y-75411666D02*
X125741666Y-75411666D01*
X126541666Y-75411666D02*
X126541666Y-72611666D01*
X126275000Y-73011666D01*
X126008333Y-73278333D01*
X125741666Y-73411666D01*
X129075000Y-72611666D02*
X129341666Y-72611666D01*
X129608333Y-72745000D01*
X129741666Y-72878333D01*
X129875000Y-73145000D01*
X130008333Y-73678333D01*
X130008333Y-74345000D01*
X129875000Y-74878333D01*
X129741666Y-75145000D01*
X129608333Y-75278333D01*
X129341666Y-75411666D01*
X129075000Y-75411666D01*
X128808333Y-75278333D01*
X128675000Y-75145000D01*
X128541666Y-74878333D01*
X128408333Y-74345000D01*
X128408333Y-73678333D01*
X128541666Y-73145000D01*
X128675000Y-72878333D01*
X128808333Y-72745000D01*
X129075000Y-72611666D01*
D10*
X139484285Y-58348380D02*
X139484285Y-59157904D01*
X139531904Y-59253142D01*
X139579523Y-59300761D01*
X139674761Y-59348380D01*
X139865238Y-59348380D01*
X139960476Y-59300761D01*
X140008095Y-59253142D01*
X140055714Y-59157904D01*
X140055714Y-58348380D01*
X140531904Y-59348380D02*
X140531904Y-58348380D01*
X140912857Y-58348380D01*
X141008095Y-58396000D01*
X141055714Y-58443619D01*
X141103333Y-58538857D01*
X141103333Y-58681714D01*
X141055714Y-58776952D01*
X141008095Y-58824571D01*
X140912857Y-58872190D01*
X140531904Y-58872190D01*
D12*
X144966666Y-71049166D02*
X143366666Y-71049166D01*
X144166666Y-71049166D02*
X144166666Y-68249166D01*
X143900000Y-68649166D01*
X143633333Y-68915833D01*
X143366666Y-69049166D01*
X147366666Y-68249166D02*
X146833333Y-68249166D01*
X146566666Y-68382500D01*
X146433333Y-68515833D01*
X146166666Y-68915833D01*
X146033333Y-69449166D01*
X146033333Y-70515833D01*
X146166666Y-70782500D01*
X146300000Y-70915833D01*
X146566666Y-71049166D01*
X147100000Y-71049166D01*
X147366666Y-70915833D01*
X147500000Y-70782500D01*
X147633333Y-70515833D01*
X147633333Y-69849166D01*
X147500000Y-69582500D01*
X147366666Y-69449166D01*
X147100000Y-69315833D01*
X146566666Y-69315833D01*
X146300000Y-69449166D01*
X146166666Y-69582500D01*
X146033333Y-69849166D01*
X162554166Y-71011666D02*
X160954166Y-71011666D01*
X161754166Y-71011666D02*
X161754166Y-68211666D01*
X161487500Y-68611666D01*
X161220833Y-68878333D01*
X160954166Y-69011666D01*
X163887500Y-71011666D02*
X164420833Y-71011666D01*
X164687500Y-70878333D01*
X164820833Y-70745000D01*
X165087500Y-70345000D01*
X165220833Y-69811666D01*
X165220833Y-68745000D01*
X165087500Y-68478333D01*
X164954166Y-68345000D01*
X164687500Y-68211666D01*
X164154166Y-68211666D01*
X163887500Y-68345000D01*
X163754166Y-68478333D01*
X163620833Y-68745000D01*
X163620833Y-69411666D01*
X163754166Y-69678333D01*
X163887500Y-69811666D01*
X164154166Y-69945000D01*
X164687500Y-69945000D01*
X164954166Y-69811666D01*
X165087500Y-69678333D01*
X165220833Y-69411666D01*
X162429166Y-75611666D02*
X160829166Y-75611666D01*
X161629166Y-75611666D02*
X161629166Y-72811666D01*
X161362500Y-73211666D01*
X161095833Y-73478333D01*
X160829166Y-73611666D01*
X163362500Y-72811666D02*
X165229166Y-72811666D01*
X164029166Y-75611666D01*
X150366666Y-71074166D02*
X148766666Y-71074166D01*
X149566666Y-71074166D02*
X149566666Y-68274166D01*
X149300000Y-68674166D01*
X149033333Y-68940833D01*
X148766666Y-69074166D01*
X152900000Y-68274166D02*
X151566666Y-68274166D01*
X151433333Y-69607500D01*
X151566666Y-69474166D01*
X151833333Y-69340833D01*
X152500000Y-69340833D01*
X152766666Y-69474166D01*
X152900000Y-69607500D01*
X153033333Y-69874166D01*
X153033333Y-70540833D01*
X152900000Y-70807500D01*
X152766666Y-70940833D01*
X152500000Y-71074166D01*
X151833333Y-71074166D01*
X151566666Y-70940833D01*
X151433333Y-70807500D01*
X120287500Y-67852142D02*
X122287500Y-67852142D01*
X121001785Y-70852142D01*
X116483928Y-72452142D02*
X115912500Y-72452142D01*
X115626785Y-72595000D01*
X115483928Y-72737857D01*
X115198214Y-73166428D01*
X115055357Y-73737857D01*
X115055357Y-74880714D01*
X115198214Y-75166428D01*
X115341071Y-75309285D01*
X115626785Y-75452142D01*
X116198214Y-75452142D01*
X116483928Y-75309285D01*
X116626785Y-75166428D01*
X116769642Y-74880714D01*
X116769642Y-74166428D01*
X116626785Y-73880714D01*
X116483928Y-73737857D01*
X116198214Y-73595000D01*
X115626785Y-73595000D01*
X115341071Y-73737857D01*
X115198214Y-73880714D01*
X115055357Y-74166428D01*
X150241666Y-75674166D02*
X148641666Y-75674166D01*
X149441666Y-75674166D02*
X149441666Y-72874166D01*
X149175000Y-73274166D01*
X148908333Y-73540833D01*
X148641666Y-73674166D01*
X151175000Y-72874166D02*
X152908333Y-72874166D01*
X151975000Y-73940833D01*
X152375000Y-73940833D01*
X152641666Y-74074166D01*
X152775000Y-74207500D01*
X152908333Y-74474166D01*
X152908333Y-75140833D01*
X152775000Y-75407500D01*
X152641666Y-75540833D01*
X152375000Y-75674166D01*
X151575000Y-75674166D01*
X151308333Y-75540833D01*
X151175000Y-75407500D01*
X121876785Y-72452142D02*
X120448214Y-72452142D01*
X120305357Y-73880714D01*
X120448214Y-73737857D01*
X120733928Y-73595000D01*
X121448214Y-73595000D01*
X121733928Y-73737857D01*
X121876785Y-73880714D01*
X122019642Y-74166428D01*
X122019642Y-74880714D01*
X121876785Y-75166428D01*
X121733928Y-75309285D01*
X121448214Y-75452142D01*
X120733928Y-75452142D01*
X120448214Y-75309285D01*
X120305357Y-75166428D01*
X174250000Y-68089642D02*
X176250000Y-71089642D01*
X176250000Y-68089642D02*
X174250000Y-71089642D01*
D13*
X125678571Y-97257142D02*
X125678571Y-94257142D01*
X125678571Y-95685714D02*
X127392857Y-95685714D01*
X127392857Y-97257142D02*
X127392857Y-94257142D01*
X128678571Y-96400000D02*
X130107142Y-96400000D01*
X128392857Y-97257142D02*
X129392857Y-94257142D01*
X130392857Y-97257142D01*
X133107142Y-97257142D02*
X132107142Y-95828571D01*
X131392857Y-97257142D02*
X131392857Y-94257142D01*
X132535714Y-94257142D01*
X132821428Y-94400000D01*
X132964285Y-94542857D01*
X133107142Y-94828571D01*
X133107142Y-95257142D01*
X132964285Y-95542857D01*
X132821428Y-95685714D01*
X132535714Y-95828571D01*
X131392857Y-95828571D01*
X134392857Y-97257142D02*
X134392857Y-94257142D01*
X136107142Y-97257142D01*
X136107142Y-94257142D01*
X137535714Y-95685714D02*
X138535714Y-95685714D01*
X138964285Y-97257142D02*
X137535714Y-97257142D01*
X137535714Y-94257142D01*
X138964285Y-94257142D01*
X140107142Y-97114285D02*
X140535714Y-97257142D01*
X141250000Y-97257142D01*
X141535714Y-97114285D01*
X141678571Y-96971428D01*
X141821428Y-96685714D01*
X141821428Y-96400000D01*
X141678571Y-96114285D01*
X141535714Y-95971428D01*
X141250000Y-95828571D01*
X140678571Y-95685714D01*
X140392857Y-95542857D01*
X140250000Y-95400000D01*
X140107142Y-95114285D01*
X140107142Y-94828571D01*
X140250000Y-94542857D01*
X140392857Y-94400000D01*
X140678571Y-94257142D01*
X141392857Y-94257142D01*
X141821428Y-94400000D01*
X142964285Y-97114285D02*
X143392857Y-97257142D01*
X144107142Y-97257142D01*
X144392857Y-97114285D01*
X144535714Y-96971428D01*
X144678571Y-96685714D01*
X144678571Y-96400000D01*
X144535714Y-96114285D01*
X144392857Y-95971428D01*
X144107142Y-95828571D01*
X143535714Y-95685714D01*
X143250000Y-95542857D01*
X143107142Y-95400000D01*
X142964285Y-95114285D01*
X142964285Y-94828571D01*
X143107142Y-94542857D01*
X143250000Y-94400000D01*
X143535714Y-94257142D01*
X144250000Y-94257142D01*
X144678571Y-94400000D01*
X148107142Y-97114285D02*
X148535714Y-97257142D01*
X149250000Y-97257142D01*
X149535714Y-97114285D01*
X149678571Y-96971428D01*
X149821428Y-96685714D01*
X149821428Y-96400000D01*
X149678571Y-96114285D01*
X149535714Y-95971428D01*
X149250000Y-95828571D01*
X148678571Y-95685714D01*
X148392857Y-95542857D01*
X148250000Y-95400000D01*
X148107142Y-95114285D01*
X148107142Y-94828571D01*
X148250000Y-94542857D01*
X148392857Y-94400000D01*
X148678571Y-94257142D01*
X149392857Y-94257142D01*
X149821428Y-94400000D01*
X151107142Y-97257142D02*
X151107142Y-94257142D01*
X152535714Y-97257142D02*
X152535714Y-94257142D01*
X153250000Y-94257142D01*
X153678571Y-94400000D01*
X153964285Y-94685714D01*
X154107142Y-94971428D01*
X154250000Y-95542857D01*
X154250000Y-95971428D01*
X154107142Y-96542857D01*
X153964285Y-96828571D01*
X153678571Y-97114285D01*
X153250000Y-97257142D01*
X152535714Y-97257142D01*
X155535714Y-95685714D02*
X156535714Y-95685714D01*
X156964285Y-97257142D02*
X155535714Y-97257142D01*
X155535714Y-94257142D01*
X156964285Y-94257142D01*
D12*
X172991666Y-73065833D02*
X173125000Y-72932500D01*
X173391666Y-72799166D01*
X174058333Y-72799166D01*
X174325000Y-72932500D01*
X174458333Y-73065833D01*
X174591666Y-73332500D01*
X174591666Y-73599166D01*
X174458333Y-73999166D01*
X172858333Y-75599166D01*
X174591666Y-75599166D01*
X177258333Y-75599166D02*
X175658333Y-75599166D01*
X176458333Y-75599166D02*
X176458333Y-72799166D01*
X176191666Y-73199166D01*
X175925000Y-73465833D01*
X175658333Y-73599166D01*
D10*
X117835714Y-84612857D02*
X117835714Y-83412857D01*
X118292857Y-83412857D01*
X118407142Y-83470000D01*
X118464285Y-83527142D01*
X118521428Y-83641428D01*
X118521428Y-83812857D01*
X118464285Y-83927142D01*
X118407142Y-83984285D01*
X118292857Y-84041428D01*
X117835714Y-84041428D01*
X119035714Y-84612857D02*
X119035714Y-83812857D01*
X119035714Y-83412857D02*
X118978571Y-83470000D01*
X119035714Y-83527142D01*
X119092857Y-83470000D01*
X119035714Y-83412857D01*
X119035714Y-83527142D01*
X119607142Y-83812857D02*
X119607142Y-84612857D01*
X119607142Y-83927142D02*
X119664285Y-83870000D01*
X119778571Y-83812857D01*
X119950000Y-83812857D01*
X120064285Y-83870000D01*
X120121428Y-83984285D01*
X120121428Y-84612857D01*
X120635714Y-84555714D02*
X120750000Y-84612857D01*
X120978571Y-84612857D01*
X121092857Y-84555714D01*
X121150000Y-84441428D01*
X121150000Y-84384285D01*
X121092857Y-84270000D01*
X120978571Y-84212857D01*
X120807142Y-84212857D01*
X120692857Y-84155714D01*
X120635714Y-84041428D01*
X120635714Y-83984285D01*
X120692857Y-83870000D01*
X120807142Y-83812857D01*
X120978571Y-83812857D01*
X121092857Y-83870000D01*
X122750000Y-84612857D02*
X122635714Y-84555714D01*
X122578571Y-84498571D01*
X122521428Y-84384285D01*
X122521428Y-84041428D01*
X122578571Y-83927142D01*
X122635714Y-83870000D01*
X122750000Y-83812857D01*
X122921428Y-83812857D01*
X123035714Y-83870000D01*
X123092857Y-83927142D01*
X123150000Y-84041428D01*
X123150000Y-84384285D01*
X123092857Y-84498571D01*
X123035714Y-84555714D01*
X122921428Y-84612857D01*
X122750000Y-84612857D01*
X123664285Y-83812857D02*
X123664285Y-84612857D01*
X123664285Y-83927142D02*
X123721428Y-83870000D01*
X123835714Y-83812857D01*
X124007142Y-83812857D01*
X124121428Y-83870000D01*
X124178571Y-83984285D01*
X124178571Y-84612857D01*
X125492857Y-83812857D02*
X125950000Y-83812857D01*
X125664285Y-83412857D02*
X125664285Y-84441428D01*
X125721428Y-84555714D01*
X125835714Y-84612857D01*
X125950000Y-84612857D01*
X126350000Y-84612857D02*
X126350000Y-83412857D01*
X126864285Y-84612857D02*
X126864285Y-83984285D01*
X126807142Y-83870000D01*
X126692857Y-83812857D01*
X126521428Y-83812857D01*
X126407142Y-83870000D01*
X126350000Y-83927142D01*
X127435714Y-84612857D02*
X127435714Y-83812857D01*
X127435714Y-83412857D02*
X127378571Y-83470000D01*
X127435714Y-83527142D01*
X127492857Y-83470000D01*
X127435714Y-83412857D01*
X127435714Y-83527142D01*
X127950000Y-84555714D02*
X128064285Y-84612857D01*
X128292857Y-84612857D01*
X128407142Y-84555714D01*
X128464285Y-84441428D01*
X128464285Y-84384285D01*
X128407142Y-84270000D01*
X128292857Y-84212857D01*
X128121428Y-84212857D01*
X128007142Y-84155714D01*
X127950000Y-84041428D01*
X127950000Y-83984285D01*
X128007142Y-83870000D01*
X128121428Y-83812857D01*
X128292857Y-83812857D01*
X128407142Y-83870000D01*
X129835714Y-84555714D02*
X129950000Y-84612857D01*
X130178571Y-84612857D01*
X130292857Y-84555714D01*
X130350000Y-84441428D01*
X130350000Y-84384285D01*
X130292857Y-84270000D01*
X130178571Y-84212857D01*
X130007142Y-84212857D01*
X129892857Y-84155714D01*
X129835714Y-84041428D01*
X129835714Y-83984285D01*
X129892857Y-83870000D01*
X130007142Y-83812857D01*
X130178571Y-83812857D01*
X130292857Y-83870000D01*
X130864285Y-84612857D02*
X130864285Y-83812857D01*
X130864285Y-83412857D02*
X130807142Y-83470000D01*
X130864285Y-83527142D01*
X130921428Y-83470000D01*
X130864285Y-83412857D01*
X130864285Y-83527142D01*
X131950000Y-84612857D02*
X131950000Y-83412857D01*
X131950000Y-84555714D02*
X131835714Y-84612857D01*
X131607142Y-84612857D01*
X131492857Y-84555714D01*
X131435714Y-84498571D01*
X131378571Y-84384285D01*
X131378571Y-84041428D01*
X131435714Y-83927142D01*
X131492857Y-83870000D01*
X131607142Y-83812857D01*
X131835714Y-83812857D01*
X131950000Y-83870000D01*
X132978571Y-84555714D02*
X132864285Y-84612857D01*
X132635714Y-84612857D01*
X132521428Y-84555714D01*
X132464285Y-84441428D01*
X132464285Y-83984285D01*
X132521428Y-83870000D01*
X132635714Y-83812857D01*
X132864285Y-83812857D01*
X132978571Y-83870000D01*
X133035714Y-83984285D01*
X133035714Y-84098571D01*
X132464285Y-84212857D01*
X134464285Y-83812857D02*
X134464285Y-85012857D01*
X134464285Y-83870000D02*
X134578571Y-83812857D01*
X134807142Y-83812857D01*
X134921428Y-83870000D01*
X134978571Y-83927142D01*
X135035714Y-84041428D01*
X135035714Y-84384285D01*
X134978571Y-84498571D01*
X134921428Y-84555714D01*
X134807142Y-84612857D01*
X134578571Y-84612857D01*
X134464285Y-84555714D01*
X135721428Y-84612857D02*
X135607142Y-84555714D01*
X135550000Y-84441428D01*
X135550000Y-83412857D01*
X136692857Y-83812857D02*
X136692857Y-84612857D01*
X136178571Y-83812857D02*
X136178571Y-84441428D01*
X136235714Y-84555714D01*
X136350000Y-84612857D01*
X136521428Y-84612857D01*
X136635714Y-84555714D01*
X136692857Y-84498571D01*
X137778571Y-83812857D02*
X137778571Y-84784285D01*
X137721428Y-84898571D01*
X137664285Y-84955714D01*
X137550000Y-85012857D01*
X137378571Y-85012857D01*
X137264285Y-84955714D01*
X137778571Y-84555714D02*
X137664285Y-84612857D01*
X137435714Y-84612857D01*
X137321428Y-84555714D01*
X137264285Y-84498571D01*
X137207142Y-84384285D01*
X137207142Y-84041428D01*
X137264285Y-83927142D01*
X137321428Y-83870000D01*
X137435714Y-83812857D01*
X137664285Y-83812857D01*
X137778571Y-83870000D01*
X139264285Y-84612857D02*
X139264285Y-83812857D01*
X139264285Y-83412857D02*
X139207142Y-83470000D01*
X139264285Y-83527142D01*
X139321428Y-83470000D01*
X139264285Y-83412857D01*
X139264285Y-83527142D01*
X139835714Y-83812857D02*
X139835714Y-84612857D01*
X139835714Y-83927142D02*
X139892857Y-83870000D01*
X140007142Y-83812857D01*
X140178571Y-83812857D01*
X140292857Y-83870000D01*
X140350000Y-83984285D01*
X140350000Y-84612857D01*
X140750000Y-83812857D02*
X141207142Y-83812857D01*
X140921428Y-83412857D02*
X140921428Y-84441428D01*
X140978571Y-84555714D01*
X141092857Y-84612857D01*
X141207142Y-84612857D01*
X141778571Y-84612857D02*
X141664285Y-84555714D01*
X141607142Y-84498571D01*
X141550000Y-84384285D01*
X141550000Y-84041428D01*
X141607142Y-83927142D01*
X141664285Y-83870000D01*
X141778571Y-83812857D01*
X141950000Y-83812857D01*
X142064285Y-83870000D01*
X142121428Y-83927142D01*
X142178571Y-84041428D01*
X142178571Y-84384285D01*
X142121428Y-84498571D01*
X142064285Y-84555714D01*
X141950000Y-84612857D01*
X141778571Y-84612857D01*
X143435714Y-83812857D02*
X143892857Y-83812857D01*
X143607142Y-83412857D02*
X143607142Y-84441428D01*
X143664285Y-84555714D01*
X143778571Y-84612857D01*
X143892857Y-84612857D01*
X144292857Y-84612857D02*
X144292857Y-83412857D01*
X144807142Y-84612857D02*
X144807142Y-83984285D01*
X144750000Y-83870000D01*
X144635714Y-83812857D01*
X144464285Y-83812857D01*
X144350000Y-83870000D01*
X144292857Y-83927142D01*
X145835714Y-84555714D02*
X145721428Y-84612857D01*
X145492857Y-84612857D01*
X145378571Y-84555714D01*
X145321428Y-84441428D01*
X145321428Y-83984285D01*
X145378571Y-83870000D01*
X145492857Y-83812857D01*
X145721428Y-83812857D01*
X145835714Y-83870000D01*
X145892857Y-83984285D01*
X145892857Y-84098571D01*
X145321428Y-84212857D01*
X147321428Y-84612857D02*
X147321428Y-83412857D01*
X147321428Y-83984285D02*
X148007142Y-83984285D01*
X148007142Y-84612857D02*
X148007142Y-83412857D01*
X148750000Y-84612857D02*
X148635714Y-84555714D01*
X148578571Y-84498571D01*
X148521428Y-84384285D01*
X148521428Y-84041428D01*
X148578571Y-83927142D01*
X148635714Y-83870000D01*
X148750000Y-83812857D01*
X148921428Y-83812857D01*
X149035714Y-83870000D01*
X149092857Y-83927142D01*
X149150000Y-84041428D01*
X149150000Y-84384285D01*
X149092857Y-84498571D01*
X149035714Y-84555714D01*
X148921428Y-84612857D01*
X148750000Y-84612857D01*
X149664285Y-83812857D02*
X149664285Y-84612857D01*
X149664285Y-83927142D02*
X149721428Y-83870000D01*
X149835714Y-83812857D01*
X150007142Y-83812857D01*
X150121428Y-83870000D01*
X150178571Y-83984285D01*
X150178571Y-84612857D01*
X151264285Y-84612857D02*
X151264285Y-83412857D01*
X151264285Y-84555714D02*
X151150000Y-84612857D01*
X150921428Y-84612857D01*
X150807142Y-84555714D01*
X150750000Y-84498571D01*
X150692857Y-84384285D01*
X150692857Y-84041428D01*
X150750000Y-83927142D01*
X150807142Y-83870000D01*
X150921428Y-83812857D01*
X151150000Y-83812857D01*
X151264285Y-83870000D01*
X152350000Y-84612857D02*
X152350000Y-83984285D01*
X152292857Y-83870000D01*
X152178571Y-83812857D01*
X151950000Y-83812857D01*
X151835714Y-83870000D01*
X152350000Y-84555714D02*
X152235714Y-84612857D01*
X151950000Y-84612857D01*
X151835714Y-84555714D01*
X151778571Y-84441428D01*
X151778571Y-84327142D01*
X151835714Y-84212857D01*
X151950000Y-84155714D01*
X152235714Y-84155714D01*
X152350000Y-84098571D01*
X153721428Y-83812857D02*
X153950000Y-84612857D01*
X154178571Y-84041428D01*
X154407142Y-84612857D01*
X154635714Y-83812857D01*
X155092857Y-84612857D02*
X155092857Y-83812857D01*
X155092857Y-83412857D02*
X155035714Y-83470000D01*
X155092857Y-83527142D01*
X155150000Y-83470000D01*
X155092857Y-83412857D01*
X155092857Y-83527142D01*
X155664285Y-84612857D02*
X155664285Y-83812857D01*
X155664285Y-84041428D02*
X155721428Y-83927142D01*
X155778571Y-83870000D01*
X155892857Y-83812857D01*
X156007142Y-83812857D01*
X156407142Y-84612857D02*
X156407142Y-83812857D01*
X156407142Y-83412857D02*
X156350000Y-83470000D01*
X156407142Y-83527142D01*
X156464285Y-83470000D01*
X156407142Y-83412857D01*
X156407142Y-83527142D01*
X156978571Y-83812857D02*
X156978571Y-84612857D01*
X156978571Y-83927142D02*
X157035714Y-83870000D01*
X157150000Y-83812857D01*
X157321428Y-83812857D01*
X157435714Y-83870000D01*
X157492857Y-83984285D01*
X157492857Y-84612857D01*
X158578571Y-83812857D02*
X158578571Y-84784285D01*
X158521428Y-84898571D01*
X158464285Y-84955714D01*
X158350000Y-85012857D01*
X158178571Y-85012857D01*
X158064285Y-84955714D01*
X158578571Y-84555714D02*
X158464285Y-84612857D01*
X158235714Y-84612857D01*
X158121428Y-84555714D01*
X158064285Y-84498571D01*
X158007142Y-84384285D01*
X158007142Y-84041428D01*
X158064285Y-83927142D01*
X158121428Y-83870000D01*
X158235714Y-83812857D01*
X158464285Y-83812857D01*
X158578571Y-83870000D01*
X160064285Y-84612857D02*
X160064285Y-83412857D01*
X160578571Y-84612857D02*
X160578571Y-83984285D01*
X160521428Y-83870000D01*
X160407142Y-83812857D01*
X160235714Y-83812857D01*
X160121428Y-83870000D01*
X160064285Y-83927142D01*
X161664285Y-84612857D02*
X161664285Y-83984285D01*
X161607142Y-83870000D01*
X161492857Y-83812857D01*
X161264285Y-83812857D01*
X161150000Y-83870000D01*
X161664285Y-84555714D02*
X161550000Y-84612857D01*
X161264285Y-84612857D01*
X161150000Y-84555714D01*
X161092857Y-84441428D01*
X161092857Y-84327142D01*
X161150000Y-84212857D01*
X161264285Y-84155714D01*
X161550000Y-84155714D01*
X161664285Y-84098571D01*
X162235714Y-84612857D02*
X162235714Y-83812857D01*
X162235714Y-84041428D02*
X162292857Y-83927142D01*
X162350000Y-83870000D01*
X162464285Y-83812857D01*
X162578571Y-83812857D01*
X162978571Y-83812857D02*
X162978571Y-84612857D01*
X162978571Y-83927142D02*
X163035714Y-83870000D01*
X163150000Y-83812857D01*
X163321428Y-83812857D01*
X163435714Y-83870000D01*
X163492857Y-83984285D01*
X163492857Y-84612857D01*
X164521428Y-84555714D02*
X164407142Y-84612857D01*
X164178571Y-84612857D01*
X164064285Y-84555714D01*
X164007142Y-84441428D01*
X164007142Y-83984285D01*
X164064285Y-83870000D01*
X164178571Y-83812857D01*
X164407142Y-83812857D01*
X164521428Y-83870000D01*
X164578571Y-83984285D01*
X164578571Y-84098571D01*
X164007142Y-84212857D01*
X165035714Y-84555714D02*
X165150000Y-84612857D01*
X165378571Y-84612857D01*
X165492857Y-84555714D01*
X165550000Y-84441428D01*
X165550000Y-84384285D01*
X165492857Y-84270000D01*
X165378571Y-84212857D01*
X165207142Y-84212857D01*
X165092857Y-84155714D01*
X165035714Y-84041428D01*
X165035714Y-83984285D01*
X165092857Y-83870000D01*
X165207142Y-83812857D01*
X165378571Y-83812857D01*
X165492857Y-83870000D01*
X166007142Y-84555714D02*
X166121428Y-84612857D01*
X166350000Y-84612857D01*
X166464285Y-84555714D01*
X166521428Y-84441428D01*
X166521428Y-84384285D01*
X166464285Y-84270000D01*
X166350000Y-84212857D01*
X166178571Y-84212857D01*
X166064285Y-84155714D01*
X166007142Y-84041428D01*
X166007142Y-83984285D01*
X166064285Y-83870000D01*
X166178571Y-83812857D01*
X166350000Y-83812857D01*
X166464285Y-83870000D01*
D12*
X144991666Y-75674166D02*
X143391666Y-75674166D01*
X144191666Y-75674166D02*
X144191666Y-72874166D01*
X143925000Y-73274166D01*
X143658333Y-73540833D01*
X143391666Y-73674166D01*
X147391666Y-73807500D02*
X147391666Y-75674166D01*
X146725000Y-72740833D02*
X146058333Y-74740833D01*
X147791666Y-74740833D01*
X157179166Y-75611666D02*
X155579166Y-75611666D01*
X156379166Y-75611666D02*
X156379166Y-72811666D01*
X156112500Y-73211666D01*
X155845833Y-73478333D01*
X155579166Y-73611666D01*
X158779166Y-74011666D02*
X158512500Y-73878333D01*
X158379166Y-73745000D01*
X158245833Y-73478333D01*
X158245833Y-73345000D01*
X158379166Y-73078333D01*
X158512500Y-72945000D01*
X158779166Y-72811666D01*
X159312500Y-72811666D01*
X159579166Y-72945000D01*
X159712500Y-73078333D01*
X159845833Y-73345000D01*
X159845833Y-73478333D01*
X159712500Y-73745000D01*
X159579166Y-73878333D01*
X159312500Y-74011666D01*
X158779166Y-74011666D01*
X158512500Y-74145000D01*
X158379166Y-74278333D01*
X158245833Y-74545000D01*
X158245833Y-75078333D01*
X158379166Y-75345000D01*
X158512500Y-75478333D01*
X158779166Y-75611666D01*
X159312500Y-75611666D01*
X159579166Y-75478333D01*
X159712500Y-75345000D01*
X159845833Y-75078333D01*
X159845833Y-74545000D01*
X159712500Y-74278333D01*
X159579166Y-74145000D01*
X159312500Y-74011666D01*
D10*
X109455714Y-82342380D02*
X108884285Y-82342380D01*
X109170000Y-82342380D02*
X109170000Y-81342380D01*
X109074761Y-81485238D01*
X108979523Y-81580476D01*
X108884285Y-81628095D01*
D12*
X167804166Y-73065833D02*
X167937500Y-72932500D01*
X168204166Y-72799166D01*
X168870833Y-72799166D01*
X169137500Y-72932500D01*
X169270833Y-73065833D01*
X169404166Y-73332500D01*
X169404166Y-73599166D01*
X169270833Y-73999166D01*
X167670833Y-75599166D01*
X169404166Y-75599166D01*
X170470833Y-73065833D02*
X170604166Y-72932500D01*
X170870833Y-72799166D01*
X171537500Y-72799166D01*
X171804166Y-72932500D01*
X171937500Y-73065833D01*
X172070833Y-73332500D01*
X172070833Y-73599166D01*
X171937500Y-73999166D01*
X170337500Y-75599166D01*
X172070833Y-75599166D01*
X132553571Y-75502142D02*
X133125000Y-75502142D01*
X133410714Y-75359285D01*
X133553571Y-75216428D01*
X133839285Y-74787857D01*
X133982142Y-74216428D01*
X133982142Y-73073571D01*
X133839285Y-72787857D01*
X133696428Y-72645000D01*
X133410714Y-72502142D01*
X132839285Y-72502142D01*
X132553571Y-72645000D01*
X132410714Y-72787857D01*
X132267857Y-73073571D01*
X132267857Y-73787857D01*
X132410714Y-74073571D01*
X132553571Y-74216428D01*
X132839285Y-74359285D01*
X133410714Y-74359285D01*
X133696428Y-74216428D01*
X133839285Y-74073571D01*
X133982142Y-73787857D01*
X132716666Y-70811666D02*
X131116666Y-70811666D01*
X131916666Y-70811666D02*
X131916666Y-68011666D01*
X131650000Y-68411666D01*
X131383333Y-68678333D01*
X131116666Y-68811666D01*
X135383333Y-70811666D02*
X133783333Y-70811666D01*
X134583333Y-70811666D02*
X134583333Y-68011666D01*
X134316666Y-68411666D01*
X134050000Y-68678333D01*
X133783333Y-68811666D01*
X109969642Y-75502142D02*
X108255357Y-75502142D01*
X109112500Y-75502142D02*
X109112500Y-72502142D01*
X108826785Y-72930714D01*
X108541071Y-73216428D01*
X108255357Y-73359285D01*
X108237500Y-67902142D02*
X110094642Y-67902142D01*
X109094642Y-69045000D01*
X109523214Y-69045000D01*
X109808928Y-69187857D01*
X109951785Y-69330714D01*
X110094642Y-69616428D01*
X110094642Y-70330714D01*
X109951785Y-70616428D01*
X109808928Y-70759285D01*
X109523214Y-70902142D01*
X108666071Y-70902142D01*
X108380357Y-70759285D01*
X108237500Y-70616428D01*
X103005357Y-72787857D02*
X103148214Y-72645000D01*
X103433928Y-72502142D01*
X104148214Y-72502142D01*
X104433928Y-72645000D01*
X104576785Y-72787857D01*
X104719642Y-73073571D01*
X104719642Y-73359285D01*
X104576785Y-73787857D01*
X102862500Y-75502142D01*
X104719642Y-75502142D01*
D10*
X169538095Y-86167619D02*
X169585714Y-86120000D01*
X169680952Y-86072380D01*
X169919047Y-86072380D01*
X170014285Y-86120000D01*
X170061904Y-86167619D01*
X170109523Y-86262857D01*
X170109523Y-86358095D01*
X170061904Y-86500952D01*
X169490476Y-87072380D01*
X170109523Y-87072380D01*
X170490476Y-86167619D02*
X170538095Y-86120000D01*
X170633333Y-86072380D01*
X170871428Y-86072380D01*
X170966666Y-86120000D01*
X171014285Y-86167619D01*
X171061904Y-86262857D01*
X171061904Y-86358095D01*
X171014285Y-86500952D01*
X170442857Y-87072380D01*
X171061904Y-87072380D01*
D12*
X168850000Y-68064642D02*
X170850000Y-71064642D01*
X170850000Y-68064642D02*
X168850000Y-71064642D01*
X115601785Y-69112857D02*
X115316071Y-68970000D01*
X115173214Y-68827142D01*
X115030357Y-68541428D01*
X115030357Y-68398571D01*
X115173214Y-68112857D01*
X115316071Y-67970000D01*
X115601785Y-67827142D01*
X116173214Y-67827142D01*
X116458928Y-67970000D01*
X116601785Y-68112857D01*
X116744642Y-68398571D01*
X116744642Y-68541428D01*
X116601785Y-68827142D01*
X116458928Y-68970000D01*
X116173214Y-69112857D01*
X115601785Y-69112857D01*
X115316071Y-69255714D01*
X115173214Y-69398571D01*
X115030357Y-69684285D01*
X115030357Y-70255714D01*
X115173214Y-70541428D01*
X115316071Y-70684285D01*
X115601785Y-70827142D01*
X116173214Y-70827142D01*
X116458928Y-70684285D01*
X116601785Y-70541428D01*
X116744642Y-70255714D01*
X116744642Y-69684285D01*
X116601785Y-69398571D01*
X116458928Y-69255714D01*
X116173214Y-69112857D01*
X104408928Y-68877142D02*
X104408928Y-70877142D01*
X103694642Y-67734285D02*
X102980357Y-69877142D01*
X104837500Y-69877142D01*
D10*
X109559523Y-87047380D02*
X108988095Y-87047380D01*
X109273809Y-87047380D02*
X109273809Y-86047380D01*
X109178571Y-86190238D01*
X109083333Y-86285476D01*
X108988095Y-86333095D01*
X109940476Y-86142619D02*
X109988095Y-86095000D01*
X110083333Y-86047380D01*
X110321428Y-86047380D01*
X110416666Y-86095000D01*
X110464285Y-86142619D01*
X110511904Y-86237857D01*
X110511904Y-86333095D01*
X110464285Y-86475952D01*
X109892857Y-87047380D01*
X110511904Y-87047380D01*
X170099523Y-83452380D02*
X169528095Y-83452380D01*
X169813809Y-83452380D02*
X169813809Y-82452380D01*
X169718571Y-82595238D01*
X169623333Y-82690476D01*
X169528095Y-82738095D01*
X171051904Y-83452380D02*
X170480476Y-83452380D01*
X170766190Y-83452380D02*
X170766190Y-82452380D01*
X170670952Y-82595238D01*
X170575714Y-82690476D01*
X170480476Y-82738095D01*
X114801666Y-84242380D02*
X114801666Y-84956666D01*
X114754047Y-85099523D01*
X114658809Y-85194761D01*
X114515952Y-85242380D01*
X114420714Y-85242380D01*
X115182619Y-84242380D02*
X115849285Y-84242380D01*
X115420714Y-85242380D01*
X106291666Y-55452380D02*
X106291666Y-56166666D01*
X106244047Y-56309523D01*
X106148809Y-56404761D01*
X106005952Y-56452380D01*
X105910714Y-56452380D01*
X107291666Y-56452380D02*
X106720238Y-56452380D01*
X107005952Y-56452380D02*
X107005952Y-55452380D01*
X106910714Y-55595238D01*
X106815476Y-55690476D01*
X106720238Y-55738095D01*
X148141666Y-55452380D02*
X148141666Y-56166666D01*
X148094047Y-56309523D01*
X147998809Y-56404761D01*
X147855952Y-56452380D01*
X147760714Y-56452380D01*
X149046428Y-55785714D02*
X149046428Y-56452380D01*
X148808333Y-55404761D02*
X148570238Y-56119047D01*
X149189285Y-56119047D01*
X130116666Y-55452380D02*
X130116666Y-56166666D01*
X130069047Y-56309523D01*
X129973809Y-56404761D01*
X129830952Y-56452380D01*
X129735714Y-56452380D01*
X130497619Y-55452380D02*
X131116666Y-55452380D01*
X130783333Y-55833333D01*
X130926190Y-55833333D01*
X131021428Y-55880952D01*
X131069047Y-55928571D01*
X131116666Y-56023809D01*
X131116666Y-56261904D01*
X131069047Y-56357142D01*
X131021428Y-56404761D01*
X130926190Y-56452380D01*
X130640476Y-56452380D01*
X130545238Y-56404761D01*
X130497619Y-56357142D01*
X118316666Y-55452380D02*
X118316666Y-56166666D01*
X118269047Y-56309523D01*
X118173809Y-56404761D01*
X118030952Y-56452380D01*
X117935714Y-56452380D01*
X118745238Y-55547619D02*
X118792857Y-55500000D01*
X118888095Y-55452380D01*
X119126190Y-55452380D01*
X119221428Y-55500000D01*
X119269047Y-55547619D01*
X119316666Y-55642857D01*
X119316666Y-55738095D01*
X119269047Y-55880952D01*
X118697619Y-56452380D01*
X119316666Y-56452380D01*
X160576666Y-55452380D02*
X160576666Y-56166666D01*
X160529047Y-56309523D01*
X160433809Y-56404761D01*
X160290952Y-56452380D01*
X160195714Y-56452380D01*
X161529047Y-55452380D02*
X161052857Y-55452380D01*
X161005238Y-55928571D01*
X161052857Y-55880952D01*
X161148095Y-55833333D01*
X161386190Y-55833333D01*
X161481428Y-55880952D01*
X161529047Y-55928571D01*
X161576666Y-56023809D01*
X161576666Y-56261904D01*
X161529047Y-56357142D01*
X161481428Y-56404761D01*
X161386190Y-56452380D01*
X161148095Y-56452380D01*
X161052857Y-56404761D01*
X161005238Y-56357142D01*
X172216666Y-55452380D02*
X172216666Y-56166666D01*
X172169047Y-56309523D01*
X172073809Y-56404761D01*
X171930952Y-56452380D01*
X171835714Y-56452380D01*
X173121428Y-55452380D02*
X172930952Y-55452380D01*
X172835714Y-55500000D01*
X172788095Y-55547619D01*
X172692857Y-55690476D01*
X172645238Y-55880952D01*
X172645238Y-56261904D01*
X172692857Y-56357142D01*
X172740476Y-56404761D01*
X172835714Y-56452380D01*
X173026190Y-56452380D01*
X173121428Y-56404761D01*
X173169047Y-56357142D01*
X173216666Y-56261904D01*
X173216666Y-56023809D01*
X173169047Y-55928571D01*
X173121428Y-55880952D01*
X173026190Y-55833333D01*
X172835714Y-55833333D01*
X172740476Y-55880952D01*
X172692857Y-55928571D01*
X172645238Y-56023809D01*
D14*
X108425000Y-78470000D02*
X171715000Y-78470000D01*
X171715000Y-78470000D02*
X171715000Y-91970000D01*
X171715000Y-91970000D02*
X108425000Y-91970000D01*
X108425000Y-91970000D02*
X108425000Y-78470000D01*
D15*
X110195000Y-83050000D02*
G75*
G03*
X110195000Y-83050000I-381000J0D01*
G01*
D16*
X101772400Y-55243054D02*
X101772400Y-66546054D01*
X111627600Y-55243054D02*
X101772400Y-55243054D01*
X111627600Y-66546054D02*
X111627600Y-55243054D01*
X101772400Y-66546054D02*
X111627600Y-66546054D01*
X143547400Y-66546054D02*
X153402600Y-66546054D01*
X143547400Y-55243054D02*
X143547400Y-66546054D01*
X153402600Y-66546054D02*
X153402600Y-55243054D01*
X153402600Y-55243054D02*
X143547400Y-55243054D01*
X125622400Y-66546054D02*
X135477600Y-66546054D01*
X125622400Y-55243054D02*
X125622400Y-66546054D01*
X135477600Y-55243054D02*
X125622400Y-55243054D01*
X135477600Y-66546054D02*
X135477600Y-55243054D01*
X113722400Y-66546054D02*
X123577600Y-66546054D01*
X113722400Y-55243054D02*
X113722400Y-66546054D01*
X123577600Y-66546054D02*
X123577600Y-55243054D01*
X123577600Y-55243054D02*
X113722400Y-55243054D01*
X165627600Y-66546054D02*
X165627600Y-55243054D01*
X155772400Y-55243054D02*
X155772400Y-66546054D01*
X155772400Y-66546054D02*
X165627600Y-66546054D01*
X165627600Y-55243054D02*
X155772400Y-55243054D01*
X177477600Y-66546054D02*
X177477600Y-55243054D01*
X167622400Y-66546054D02*
X177477600Y-66546054D01*
X177477600Y-55243054D02*
X167622400Y-55243054D01*
X167622400Y-55243054D02*
X167622400Y-66546054D01*
M02*
