G04 #@! TF.GenerationSoftware,KiCad,Pcbnew,6.0.11-2627ca5db0~126~ubuntu22.04.1*
G04 #@! TF.CreationDate,2026-01-10T21:31:22+11:00*
G04 #@! TF.ProjectId,CBR_AdapterBoard,4342525f-4164-4617-9074-6572426f6172,rev?*
G04 #@! TF.SameCoordinates,Original*
G04 #@! TF.FileFunction,Copper,L1,Top*
G04 #@! TF.FilePolarity,Positive*
%FSLAX46Y46*%
G04 Gerber Fmt 4.6, Leading zero omitted, Abs format (unit mm)*
G04 Created by KiCad (PCBNEW 6.0.11-2627ca5db0~126~ubuntu22.04.1) date 2026-01-10 21:31:22*
%MOMM*%
%LPD*%
G01*
G04 APERTURE LIST*
G04 Aperture macros list*
%AMRoundRect*
0 Rectangle with rounded corners*
0 $1 Rounding radius*
0 $2 $3 $4 $5 $6 $7 $8 $9 X,Y pos of 4 corners*
0 Add a 4 corners polygon primitive as box body*
4,1,4,$2,$3,$4,$5,$6,$7,$8,$9,$2,$3,0*
0 Add four circle primitives for the rounded corners*
1,1,$1+$1,$2,$3*
1,1,$1+$1,$4,$5*
1,1,$1+$1,$6,$7*
1,1,$1+$1,$8,$9*
0 Add four rect primitives between the rounded corners*
20,1,$1+$1,$2,$3,$4,$5,0*
20,1,$1+$1,$4,$5,$6,$7,0*
20,1,$1+$1,$6,$7,$8,$9,0*
20,1,$1+$1,$8,$9,$2,$3,0*%
G04 Aperture macros list end*
G04 #@! TA.AperFunction,ComponentPad*
%ADD10C,3.000000*%
G04 #@! TD*
G04 #@! TA.AperFunction,ComponentPad*
%ADD11RoundRect,0.675000X-0.675000X-0.975000X0.675000X-0.975000X0.675000X0.975000X-0.675000X0.975000X0*%
G04 #@! TD*
G04 #@! TA.AperFunction,ComponentPad*
%ADD12O,2.700000X3.300000*%
G04 #@! TD*
G04 #@! TA.AperFunction,ViaPad*
%ADD13C,2.000000*%
G04 #@! TD*
G04 #@! TA.AperFunction,Conductor*
%ADD14C,1.200000*%
G04 #@! TD*
G04 APERTURE END LIST*
D10*
X110975000Y-80500000D03*
X116775000Y-80500000D03*
X122575000Y-80500000D03*
X128375000Y-80500000D03*
X134175000Y-80500000D03*
X139975000Y-80500000D03*
X145775000Y-80500000D03*
X151575000Y-80500000D03*
X157375000Y-80500000D03*
X163175000Y-80500000D03*
X168975000Y-80500000D03*
X110975000Y-89000000D03*
X116775000Y-89000000D03*
X122575000Y-89000000D03*
X128375000Y-89000000D03*
X134175000Y-89000000D03*
X139975000Y-89000000D03*
X145775000Y-89000000D03*
X151575000Y-89000000D03*
X157375000Y-89000000D03*
X163175000Y-89000000D03*
X168975000Y-89000000D03*
D11*
X108800000Y-63520000D03*
D12*
X104600002Y-63520000D03*
X108800000Y-59320110D03*
X104600002Y-59320110D03*
D11*
X150575000Y-63520000D03*
D12*
X146375002Y-63520000D03*
X150575000Y-59320110D03*
X146375002Y-59320110D03*
D11*
X132650000Y-63520000D03*
D12*
X128450002Y-63520000D03*
X132650000Y-59320110D03*
X128450002Y-59320110D03*
D11*
X120750000Y-63520000D03*
D12*
X116550002Y-63520000D03*
X120750000Y-59320110D03*
X116550002Y-59320110D03*
D11*
X162800000Y-63520000D03*
D12*
X158600002Y-63520000D03*
X162800000Y-59320110D03*
X158600002Y-59320110D03*
D11*
X174650000Y-63520000D03*
D12*
X170450002Y-63520000D03*
X174650000Y-59320110D03*
X170450002Y-59320110D03*
D13*
X139700000Y-65740000D03*
D14*
X110975000Y-65695000D02*
X108800000Y-63520000D01*
X110975000Y-65695000D02*
X110975000Y-80500000D01*
X116775000Y-80500000D02*
X112185000Y-85090000D01*
X104600002Y-81880002D02*
X104600002Y-63520000D01*
X112185000Y-85090000D02*
X107810000Y-85090000D01*
X107810000Y-85090000D02*
X104600002Y-81880002D01*
X101575000Y-86570000D02*
X107000000Y-91995000D01*
X121765000Y-84230000D02*
X124645000Y-84230000D01*
X124645000Y-84230000D02*
X128375000Y-80500000D01*
X107000000Y-91995000D02*
X118175000Y-91995000D01*
X101575000Y-62345112D02*
X101575000Y-86570000D01*
X104600002Y-59320110D02*
X101575000Y-62345112D01*
X119750000Y-86245000D02*
X121765000Y-84230000D01*
X118175000Y-91995000D02*
X119750000Y-90420000D01*
X119750000Y-90420000D02*
X119750000Y-86245000D01*
X120750000Y-68495000D02*
X120750000Y-63520000D01*
X126450000Y-74195000D02*
X120750000Y-68495000D01*
X134175000Y-80500000D02*
X134175000Y-77645000D01*
X134175000Y-77645000D02*
X130725000Y-74195000D01*
X130725000Y-74195000D02*
X126450000Y-74195000D01*
X137045000Y-83430000D02*
X139975000Y-80500000D01*
X131230000Y-78000000D02*
X131230000Y-81820000D01*
X116550002Y-63520000D02*
X116550002Y-67170002D01*
X131230000Y-81820000D02*
X132840000Y-83430000D01*
X116550002Y-67170002D02*
X125925000Y-76545000D01*
X129775000Y-76545000D02*
X131230000Y-78000000D01*
X132840000Y-83430000D02*
X137045000Y-83430000D01*
X125925000Y-76545000D02*
X129775000Y-76545000D01*
X120750000Y-59320110D02*
X123200000Y-61770110D01*
X128675000Y-72145000D02*
X131525000Y-72145000D01*
X141070000Y-75795000D02*
X145775000Y-80500000D01*
X123200000Y-66670000D02*
X128675000Y-72145000D01*
X135175000Y-75795000D02*
X141070000Y-75795000D01*
X123200000Y-61770110D02*
X123200000Y-66670000D01*
X131525000Y-72145000D02*
X135175000Y-75795000D01*
X133150000Y-70045000D02*
X130900000Y-70045000D01*
X151575000Y-80500000D02*
X144015000Y-72940000D01*
X117422347Y-56472653D02*
X116550002Y-57344998D01*
X121452653Y-56472653D02*
X117422347Y-56472653D01*
X130900000Y-70045000D02*
X125075000Y-64220000D01*
X125075000Y-60095000D02*
X121452653Y-56472653D01*
X116550002Y-57344998D02*
X116550002Y-59320110D01*
X125075000Y-64220000D02*
X125075000Y-60095000D01*
X136045000Y-72940000D02*
X133150000Y-70045000D01*
X144015000Y-72940000D02*
X136045000Y-72940000D01*
X157375000Y-78605000D02*
X157375000Y-80500000D01*
X132650000Y-63520000D02*
X138030000Y-68900000D01*
X138030000Y-68900000D02*
X147670000Y-68900000D01*
X147670000Y-68900000D02*
X157375000Y-78605000D01*
X110975000Y-89000000D02*
X112860000Y-89000000D01*
X113325000Y-66945000D02*
X113325000Y-55520000D01*
X118160000Y-83700000D02*
X118160000Y-83680000D01*
X114050000Y-54795000D02*
X123924892Y-54795000D01*
X116825000Y-70420000D02*
X116800000Y-70420000D01*
X116800000Y-70420000D02*
X113325000Y-66945000D01*
X112860000Y-89000000D02*
X118160000Y-83700000D01*
X119680000Y-73275000D02*
X116825000Y-70420000D01*
X113325000Y-55520000D02*
X114050000Y-54795000D01*
X123924892Y-54795000D02*
X128450002Y-59320110D01*
X118160000Y-83680000D02*
X119680000Y-82160000D01*
X119680000Y-82160000D02*
X119680000Y-73275000D01*
X139700000Y-65740000D02*
X139700000Y-65500000D01*
X139700000Y-65500000D02*
X141680000Y-63520000D01*
X141680000Y-63520000D02*
X146375002Y-63520000D01*
X154510000Y-63255110D02*
X150575000Y-59320110D01*
X131545000Y-85830000D02*
X138765000Y-85830000D01*
X128375000Y-89000000D02*
X131545000Y-85830000D01*
X160370000Y-81620000D02*
X160370000Y-71420000D01*
X160370000Y-71420000D02*
X154510000Y-65560000D01*
X138765000Y-85830000D02*
X141615000Y-82980000D01*
X154510000Y-65560000D02*
X154510000Y-63255110D01*
X159010000Y-82980000D02*
X160370000Y-81620000D01*
X141615000Y-82980000D02*
X159010000Y-82980000D01*
X149550000Y-84540000D02*
X145775000Y-88315000D01*
X145775000Y-88315000D02*
X145775000Y-89000000D01*
X166050000Y-82870000D02*
X164380000Y-84540000D01*
X166050000Y-72845000D02*
X166050000Y-82870000D01*
X158600002Y-63520000D02*
X158600002Y-64345002D01*
X164380000Y-84540000D02*
X149550000Y-84540000D01*
X163050000Y-68795000D02*
X163050000Y-69845000D01*
X163050000Y-69845000D02*
X166050000Y-72845000D01*
X158600002Y-64345002D02*
X163050000Y-68795000D01*
X172850000Y-76720000D02*
X165700000Y-69570000D01*
X165700000Y-69570000D02*
X165700000Y-62220110D01*
X154345000Y-86230000D02*
X169540000Y-86230000D01*
X151575000Y-89000000D02*
X154345000Y-86230000D01*
X169540000Y-86230000D02*
X172850000Y-82920000D01*
X165700000Y-62220110D02*
X162800000Y-59320110D01*
X172850000Y-82920000D02*
X172850000Y-76720000D01*
X158600002Y-57094998D02*
X159850000Y-55845000D01*
X162937500Y-55845000D02*
X167900000Y-60807500D01*
X171025000Y-92520000D02*
X158860000Y-92520000D01*
X175375000Y-72995000D02*
X175375000Y-88170000D01*
X159850000Y-55845000D02*
X162937500Y-55845000D01*
X167900000Y-60807500D02*
X167900000Y-65520000D01*
X158600002Y-59320110D02*
X158600002Y-57094998D01*
X175375000Y-88170000D02*
X171025000Y-92520000D01*
X157375000Y-91035000D02*
X157375000Y-89000000D01*
X158860000Y-92520000D02*
X157375000Y-91035000D01*
X167900000Y-65520000D02*
X175375000Y-72995000D01*
M02*
