M48
INCH,TZ
T1C0.0394
T2C0.0551
T3C0.0709
%
G90
G05
T1
X55000Y-25882
T2
X41181Y-23354
X41181Y-25008
X42835Y-23354
X42835Y-25008
X45886Y-23354
X45886Y-25008
X47539Y-23354
X47539Y-25008
X50571Y-23354
X50571Y-25008
X52224Y-23354
X52224Y-25008
X57628Y-23354
X57628Y-25008
X59281Y-23354
X59281Y-25008
X62441Y-23354
X62441Y-25008
X64094Y-23354
X64094Y-25008
X67106Y-23354
X67106Y-25008
X68760Y-23354
X68760Y-25008
T3
X43691Y-31693
X43691Y-35039
X45974Y-31693
X45974Y-35039
X48258Y-31693
X48258Y-35039
X50541Y-31693
X50541Y-35039
X52825Y-31693
X52825Y-35039
X55108Y-31693
X55108Y-35039
X57392Y-31693
X57392Y-35039
X59675Y-31693
X59675Y-35039
X61959Y-31693
X61959Y-35039
X64242Y-31693
X64242Y-35039
X66526Y-31693
X66526Y-35039
T0
M30
