G04 #@! TF.GenerationSoftware,KiCad,Pcbnew,6.0.11-2627ca5db0~126~ubuntu22.04.1*
G04 #@! TF.CreationDate,2026-01-10T21:31:22+11:00*
G04 #@! TF.ProjectId,CBR_AdapterBoard,4342525f-4164-4617-9074-6572426f6172,rev?*
G04 #@! TF.SameCoordinates,Original*
G04 #@! TF.FileFunction,Legend,Bot*
G04 #@! TF.FilePolarity,Positive*
%FSLAX46Y46*%
G04 Gerber Fmt 4.6, Leading zero omitted, Abs format (unit mm)*
G04 Created by KiCad (PCBNEW 6.0.11-2627ca5db0~126~ubuntu22.04.1) date 2026-01-10 21:31:22*
%MOMM*%
%LPD*%
G01*
G04 APERTURE LIST*
%ADD10C,0.150000*%
%ADD11C,0.200000*%
%ADD12C,0.300000*%
%ADD13C,0.508000*%
G04 APERTURE END LIST*
D10*
X160525000Y-76620000D02*
X160525000Y-67545000D01*
D11*
X140201000Y-59986000D02*
X140201000Y-56938000D01*
X140201000Y-56938000D02*
X139439000Y-57954000D01*
D10*
X113062500Y-76420000D02*
X123487500Y-76420000D01*
X123487500Y-76420000D02*
X123487500Y-67282500D01*
X123487500Y-67282500D02*
X113062500Y-67282500D01*
X113062500Y-67282500D02*
X113062500Y-76420000D01*
X118475000Y-76382500D02*
X118475000Y-67307500D01*
X155150000Y-71895000D02*
X165575000Y-71895000D01*
X148280000Y-76705000D02*
X148280000Y-67630000D01*
X101012500Y-71732500D02*
X111437500Y-71732500D01*
X100975000Y-76495000D02*
X111400000Y-76495000D01*
X111400000Y-76495000D02*
X111400000Y-67357500D01*
X111400000Y-67357500D02*
X100975000Y-67357500D01*
X100975000Y-67357500D02*
X100975000Y-76495000D01*
X106387500Y-76457500D02*
X106387500Y-67382500D01*
X124987500Y-76420000D02*
X135412500Y-76420000D01*
X135412500Y-76420000D02*
X135412500Y-67282500D01*
X135412500Y-67282500D02*
X124987500Y-67282500D01*
X124987500Y-67282500D02*
X124987500Y-76420000D01*
X167012500Y-76607500D02*
X177437500Y-76607500D01*
X177437500Y-76607500D02*
X177437500Y-67470000D01*
X177437500Y-67470000D02*
X167012500Y-67470000D01*
X167012500Y-67470000D02*
X167012500Y-76607500D01*
X167050000Y-71845000D02*
X177475000Y-71845000D01*
D11*
X140963000Y-57954000D02*
X140201000Y-56938000D01*
D10*
X172425000Y-76570000D02*
X172425000Y-67495000D01*
X125025000Y-71657500D02*
X135450000Y-71657500D01*
X143062500Y-71970000D02*
X153487500Y-71970000D01*
X155112500Y-76657500D02*
X165537500Y-76657500D01*
X165537500Y-76657500D02*
X165537500Y-67520000D01*
X165537500Y-67520000D02*
X155112500Y-67520000D01*
X155112500Y-67520000D02*
X155112500Y-76657500D01*
X143025000Y-76732500D02*
X153450000Y-76732500D01*
X153450000Y-76732500D02*
X153450000Y-67595000D01*
X153450000Y-67595000D02*
X143025000Y-67595000D01*
X143025000Y-67595000D02*
X143025000Y-76732500D01*
X130400000Y-76382500D02*
X130400000Y-67307500D01*
X113100000Y-71657500D02*
X123525000Y-71657500D01*
D12*
X146245833Y-75686666D02*
X147845833Y-75686666D01*
X147045833Y-75686666D02*
X147045833Y-72886666D01*
X147312500Y-73286666D01*
X147579166Y-73553333D01*
X147845833Y-73686666D01*
X143845833Y-73820000D02*
X143845833Y-75686666D01*
X144512500Y-72753333D02*
X145179166Y-74753333D01*
X143445833Y-74753333D01*
D10*
X170460476Y-83472380D02*
X171031904Y-83472380D01*
X170746190Y-83472380D02*
X170746190Y-82472380D01*
X170841428Y-82615238D01*
X170936666Y-82710476D01*
X171031904Y-82758095D01*
X169508095Y-83472380D02*
X170079523Y-83472380D01*
X169793809Y-83472380D02*
X169793809Y-82472380D01*
X169889047Y-82615238D01*
X169984285Y-82710476D01*
X170079523Y-82758095D01*
D12*
X133458333Y-75374166D02*
X132925000Y-75374166D01*
X132658333Y-75240833D01*
X132525000Y-75107500D01*
X132258333Y-74707500D01*
X132125000Y-74174166D01*
X132125000Y-73107500D01*
X132258333Y-72840833D01*
X132391666Y-72707500D01*
X132658333Y-72574166D01*
X133191666Y-72574166D01*
X133458333Y-72707500D01*
X133591666Y-72840833D01*
X133725000Y-73107500D01*
X133725000Y-73774166D01*
X133591666Y-74040833D01*
X133458333Y-74174166D01*
X133191666Y-74307500D01*
X132658333Y-74307500D01*
X132391666Y-74174166D01*
X132258333Y-74040833D01*
X132125000Y-73774166D01*
D10*
X171634285Y-95902857D02*
X172205714Y-95902857D01*
X172205714Y-94702857D01*
X171234285Y-95902857D02*
X171234285Y-95102857D01*
X171234285Y-94702857D02*
X171291428Y-94760000D01*
X171234285Y-94817142D01*
X171177142Y-94760000D01*
X171234285Y-94702857D01*
X171234285Y-94817142D01*
X170148571Y-95845714D02*
X170262857Y-95902857D01*
X170491428Y-95902857D01*
X170605714Y-95845714D01*
X170662857Y-95788571D01*
X170720000Y-95674285D01*
X170720000Y-95331428D01*
X170662857Y-95217142D01*
X170605714Y-95160000D01*
X170491428Y-95102857D01*
X170262857Y-95102857D01*
X170148571Y-95160000D01*
X169177142Y-95845714D02*
X169291428Y-95902857D01*
X169520000Y-95902857D01*
X169634285Y-95845714D01*
X169691428Y-95731428D01*
X169691428Y-95274285D01*
X169634285Y-95160000D01*
X169520000Y-95102857D01*
X169291428Y-95102857D01*
X169177142Y-95160000D01*
X169120000Y-95274285D01*
X169120000Y-95388571D01*
X169691428Y-95502857D01*
X168605714Y-95102857D02*
X168605714Y-95902857D01*
X168605714Y-95217142D02*
X168548571Y-95160000D01*
X168434285Y-95102857D01*
X168262857Y-95102857D01*
X168148571Y-95160000D01*
X168091428Y-95274285D01*
X168091428Y-95902857D01*
X167577142Y-95845714D02*
X167462857Y-95902857D01*
X167234285Y-95902857D01*
X167120000Y-95845714D01*
X167062857Y-95731428D01*
X167062857Y-95674285D01*
X167120000Y-95560000D01*
X167234285Y-95502857D01*
X167405714Y-95502857D01*
X167520000Y-95445714D01*
X167577142Y-95331428D01*
X167577142Y-95274285D01*
X167520000Y-95160000D01*
X167405714Y-95102857D01*
X167234285Y-95102857D01*
X167120000Y-95160000D01*
X166091428Y-95845714D02*
X166205714Y-95902857D01*
X166434285Y-95902857D01*
X166548571Y-95845714D01*
X166605714Y-95731428D01*
X166605714Y-95274285D01*
X166548571Y-95160000D01*
X166434285Y-95102857D01*
X166205714Y-95102857D01*
X166091428Y-95160000D01*
X166034285Y-95274285D01*
X166034285Y-95388571D01*
X166605714Y-95502857D01*
X165005714Y-95902857D02*
X165005714Y-94702857D01*
X165005714Y-95845714D02*
X165120000Y-95902857D01*
X165348571Y-95902857D01*
X165462857Y-95845714D01*
X165520000Y-95788571D01*
X165577142Y-95674285D01*
X165577142Y-95331428D01*
X165520000Y-95217142D01*
X165462857Y-95160000D01*
X165348571Y-95102857D01*
X165120000Y-95102857D01*
X165005714Y-95160000D01*
X163005714Y-95102857D02*
X163005714Y-95902857D01*
X163520000Y-95102857D02*
X163520000Y-95731428D01*
X163462857Y-95845714D01*
X163348571Y-95902857D01*
X163177142Y-95902857D01*
X163062857Y-95845714D01*
X163005714Y-95788571D01*
X162434285Y-95102857D02*
X162434285Y-95902857D01*
X162434285Y-95217142D02*
X162377142Y-95160000D01*
X162262857Y-95102857D01*
X162091428Y-95102857D01*
X161977142Y-95160000D01*
X161920000Y-95274285D01*
X161920000Y-95902857D01*
X160834285Y-95902857D02*
X160834285Y-94702857D01*
X160834285Y-95845714D02*
X160948571Y-95902857D01*
X161177142Y-95902857D01*
X161291428Y-95845714D01*
X161348571Y-95788571D01*
X161405714Y-95674285D01*
X161405714Y-95331428D01*
X161348571Y-95217142D01*
X161291428Y-95160000D01*
X161177142Y-95102857D01*
X160948571Y-95102857D01*
X160834285Y-95160000D01*
X159805714Y-95845714D02*
X159920000Y-95902857D01*
X160148571Y-95902857D01*
X160262857Y-95845714D01*
X160320000Y-95731428D01*
X160320000Y-95274285D01*
X160262857Y-95160000D01*
X160148571Y-95102857D01*
X159920000Y-95102857D01*
X159805714Y-95160000D01*
X159748571Y-95274285D01*
X159748571Y-95388571D01*
X160320000Y-95502857D01*
X159234285Y-95902857D02*
X159234285Y-95102857D01*
X159234285Y-95331428D02*
X159177142Y-95217142D01*
X159120000Y-95160000D01*
X159005714Y-95102857D01*
X158891428Y-95102857D01*
X157748571Y-95102857D02*
X157291428Y-95102857D01*
X157577142Y-94702857D02*
X157577142Y-95731428D01*
X157520000Y-95845714D01*
X157405714Y-95902857D01*
X157291428Y-95902857D01*
X156891428Y-95902857D02*
X156891428Y-94702857D01*
X156377142Y-95902857D02*
X156377142Y-95274285D01*
X156434285Y-95160000D01*
X156548571Y-95102857D01*
X156720000Y-95102857D01*
X156834285Y-95160000D01*
X156891428Y-95217142D01*
X155348571Y-95845714D02*
X155462857Y-95902857D01*
X155691428Y-95902857D01*
X155805714Y-95845714D01*
X155862857Y-95731428D01*
X155862857Y-95274285D01*
X155805714Y-95160000D01*
X155691428Y-95102857D01*
X155462857Y-95102857D01*
X155348571Y-95160000D01*
X155291428Y-95274285D01*
X155291428Y-95388571D01*
X155862857Y-95502857D01*
X154034285Y-94702857D02*
X153348571Y-94702857D01*
X153691428Y-95902857D02*
X153691428Y-94702857D01*
X153005714Y-95560000D02*
X152434285Y-95560000D01*
X153120000Y-95902857D02*
X152720000Y-94702857D01*
X152320000Y-95902857D01*
X151920000Y-95902857D02*
X151920000Y-94702857D01*
X151462857Y-94702857D01*
X151348571Y-94760000D01*
X151291428Y-94817142D01*
X151234285Y-94931428D01*
X151234285Y-95102857D01*
X151291428Y-95217142D01*
X151348571Y-95274285D01*
X151462857Y-95331428D01*
X151920000Y-95331428D01*
X150034285Y-95902857D02*
X150434285Y-95331428D01*
X150720000Y-95902857D02*
X150720000Y-94702857D01*
X150262857Y-94702857D01*
X150148571Y-94760000D01*
X150091428Y-94817142D01*
X150034285Y-94931428D01*
X150034285Y-95102857D01*
X150091428Y-95217142D01*
X150148571Y-95274285D01*
X150262857Y-95331428D01*
X150720000Y-95331428D01*
X148377142Y-94702857D02*
X148148571Y-94702857D01*
X148034285Y-94760000D01*
X147920000Y-94874285D01*
X147862857Y-95102857D01*
X147862857Y-95502857D01*
X147920000Y-95731428D01*
X148034285Y-95845714D01*
X148148571Y-95902857D01*
X148377142Y-95902857D01*
X148491428Y-95845714D01*
X148605714Y-95731428D01*
X148662857Y-95502857D01*
X148662857Y-95102857D01*
X148605714Y-94874285D01*
X148491428Y-94760000D01*
X148377142Y-94702857D01*
X147348571Y-95102857D02*
X147348571Y-96302857D01*
X147348571Y-95160000D02*
X147234285Y-95102857D01*
X147005714Y-95102857D01*
X146891428Y-95160000D01*
X146834285Y-95217142D01*
X146777142Y-95331428D01*
X146777142Y-95674285D01*
X146834285Y-95788571D01*
X146891428Y-95845714D01*
X147005714Y-95902857D01*
X147234285Y-95902857D01*
X147348571Y-95845714D01*
X145805714Y-95845714D02*
X145920000Y-95902857D01*
X146148571Y-95902857D01*
X146262857Y-95845714D01*
X146320000Y-95731428D01*
X146320000Y-95274285D01*
X146262857Y-95160000D01*
X146148571Y-95102857D01*
X145920000Y-95102857D01*
X145805714Y-95160000D01*
X145748571Y-95274285D01*
X145748571Y-95388571D01*
X146320000Y-95502857D01*
X145234285Y-95102857D02*
X145234285Y-95902857D01*
X145234285Y-95217142D02*
X145177142Y-95160000D01*
X145062857Y-95102857D01*
X144891428Y-95102857D01*
X144777142Y-95160000D01*
X144720000Y-95274285D01*
X144720000Y-95902857D01*
X143234285Y-95902857D02*
X143234285Y-94702857D01*
X143234285Y-95274285D02*
X142548571Y-95274285D01*
X142548571Y-95902857D02*
X142548571Y-94702857D01*
X141462857Y-95902857D02*
X141462857Y-95274285D01*
X141520000Y-95160000D01*
X141634285Y-95102857D01*
X141862857Y-95102857D01*
X141977142Y-95160000D01*
X141462857Y-95845714D02*
X141577142Y-95902857D01*
X141862857Y-95902857D01*
X141977142Y-95845714D01*
X142034285Y-95731428D01*
X142034285Y-95617142D01*
X141977142Y-95502857D01*
X141862857Y-95445714D01*
X141577142Y-95445714D01*
X141462857Y-95388571D01*
X140891428Y-95902857D02*
X140891428Y-95102857D01*
X140891428Y-95331428D02*
X140834285Y-95217142D01*
X140777142Y-95160000D01*
X140662857Y-95102857D01*
X140548571Y-95102857D01*
X139634285Y-95902857D02*
X139634285Y-94702857D01*
X139634285Y-95845714D02*
X139748571Y-95902857D01*
X139977142Y-95902857D01*
X140091428Y-95845714D01*
X140148571Y-95788571D01*
X140205714Y-95674285D01*
X140205714Y-95331428D01*
X140148571Y-95217142D01*
X140091428Y-95160000D01*
X139977142Y-95102857D01*
X139748571Y-95102857D01*
X139634285Y-95160000D01*
X139177142Y-95102857D02*
X138948571Y-95902857D01*
X138720000Y-95331428D01*
X138491428Y-95902857D01*
X138262857Y-95102857D01*
X137291428Y-95902857D02*
X137291428Y-95274285D01*
X137348571Y-95160000D01*
X137462857Y-95102857D01*
X137691428Y-95102857D01*
X137805714Y-95160000D01*
X137291428Y-95845714D02*
X137405714Y-95902857D01*
X137691428Y-95902857D01*
X137805714Y-95845714D01*
X137862857Y-95731428D01*
X137862857Y-95617142D01*
X137805714Y-95502857D01*
X137691428Y-95445714D01*
X137405714Y-95445714D01*
X137291428Y-95388571D01*
X136720000Y-95902857D02*
X136720000Y-95102857D01*
X136720000Y-95331428D02*
X136662857Y-95217142D01*
X136605714Y-95160000D01*
X136491428Y-95102857D01*
X136377142Y-95102857D01*
X135520000Y-95845714D02*
X135634285Y-95902857D01*
X135862857Y-95902857D01*
X135977142Y-95845714D01*
X136034285Y-95731428D01*
X136034285Y-95274285D01*
X135977142Y-95160000D01*
X135862857Y-95102857D01*
X135634285Y-95102857D01*
X135520000Y-95160000D01*
X135462857Y-95274285D01*
X135462857Y-95388571D01*
X136034285Y-95502857D01*
X133462857Y-95902857D02*
X134034285Y-95902857D01*
X134034285Y-94702857D01*
X133062857Y-95902857D02*
X133062857Y-95102857D01*
X133062857Y-94702857D02*
X133120000Y-94760000D01*
X133062857Y-94817142D01*
X133005714Y-94760000D01*
X133062857Y-94702857D01*
X133062857Y-94817142D01*
X131977142Y-95845714D02*
X132091428Y-95902857D01*
X132320000Y-95902857D01*
X132434285Y-95845714D01*
X132491428Y-95788571D01*
X132548571Y-95674285D01*
X132548571Y-95331428D01*
X132491428Y-95217142D01*
X132434285Y-95160000D01*
X132320000Y-95102857D01*
X132091428Y-95102857D01*
X131977142Y-95160000D01*
X131005714Y-95845714D02*
X131120000Y-95902857D01*
X131348571Y-95902857D01*
X131462857Y-95845714D01*
X131520000Y-95731428D01*
X131520000Y-95274285D01*
X131462857Y-95160000D01*
X131348571Y-95102857D01*
X131120000Y-95102857D01*
X131005714Y-95160000D01*
X130948571Y-95274285D01*
X130948571Y-95388571D01*
X131520000Y-95502857D01*
X130434285Y-95102857D02*
X130434285Y-95902857D01*
X130434285Y-95217142D02*
X130377142Y-95160000D01*
X130262857Y-95102857D01*
X130091428Y-95102857D01*
X129977142Y-95160000D01*
X129920000Y-95274285D01*
X129920000Y-95902857D01*
X129405714Y-95845714D02*
X129291428Y-95902857D01*
X129062857Y-95902857D01*
X128948571Y-95845714D01*
X128891428Y-95731428D01*
X128891428Y-95674285D01*
X128948571Y-95560000D01*
X129062857Y-95502857D01*
X129234285Y-95502857D01*
X129348571Y-95445714D01*
X129405714Y-95331428D01*
X129405714Y-95274285D01*
X129348571Y-95160000D01*
X129234285Y-95102857D01*
X129062857Y-95102857D01*
X128948571Y-95160000D01*
X127920000Y-95845714D02*
X128034285Y-95902857D01*
X128262857Y-95902857D01*
X128377142Y-95845714D01*
X128434285Y-95731428D01*
X128434285Y-95274285D01*
X128377142Y-95160000D01*
X128262857Y-95102857D01*
X128034285Y-95102857D01*
X127920000Y-95160000D01*
X127862857Y-95274285D01*
X127862857Y-95388571D01*
X128434285Y-95502857D01*
X126091428Y-96360000D02*
X126148571Y-96302857D01*
X126262857Y-96131428D01*
X126320000Y-96017142D01*
X126377142Y-95845714D01*
X126434285Y-95560000D01*
X126434285Y-95331428D01*
X126377142Y-95045714D01*
X126320000Y-94874285D01*
X126262857Y-94760000D01*
X126148571Y-94588571D01*
X126091428Y-94531428D01*
X125748571Y-95102857D02*
X125520000Y-95902857D01*
X125291428Y-95331428D01*
X125062857Y-95902857D01*
X124834285Y-95102857D01*
X124491428Y-95102857D02*
X124262857Y-95902857D01*
X124034285Y-95331428D01*
X123805714Y-95902857D01*
X123577142Y-95102857D01*
X123234285Y-95102857D02*
X123005714Y-95902857D01*
X122777142Y-95331428D01*
X122548571Y-95902857D01*
X122320000Y-95102857D01*
X121862857Y-95788571D02*
X121805714Y-95845714D01*
X121862857Y-95902857D01*
X121920000Y-95845714D01*
X121862857Y-95788571D01*
X121862857Y-95902857D01*
X121462857Y-95102857D02*
X121005714Y-95102857D01*
X121291428Y-94702857D02*
X121291428Y-95731428D01*
X121234285Y-95845714D01*
X121120000Y-95902857D01*
X121005714Y-95902857D01*
X120091428Y-95902857D02*
X120091428Y-95274285D01*
X120148571Y-95160000D01*
X120262857Y-95102857D01*
X120491428Y-95102857D01*
X120605714Y-95160000D01*
X120091428Y-95845714D02*
X120205714Y-95902857D01*
X120491428Y-95902857D01*
X120605714Y-95845714D01*
X120662857Y-95731428D01*
X120662857Y-95617142D01*
X120605714Y-95502857D01*
X120491428Y-95445714D01*
X120205714Y-95445714D01*
X120091428Y-95388571D01*
X119520000Y-95102857D02*
X119520000Y-96302857D01*
X119520000Y-95160000D02*
X119405714Y-95102857D01*
X119177142Y-95102857D01*
X119062857Y-95160000D01*
X119005714Y-95217142D01*
X118948571Y-95331428D01*
X118948571Y-95674285D01*
X119005714Y-95788571D01*
X119062857Y-95845714D01*
X119177142Y-95902857D01*
X119405714Y-95902857D01*
X119520000Y-95845714D01*
X118434285Y-95902857D02*
X118434285Y-95102857D01*
X118434285Y-95331428D02*
X118377142Y-95217142D01*
X118320000Y-95160000D01*
X118205714Y-95102857D01*
X118091428Y-95102857D01*
X117691428Y-95788571D02*
X117634285Y-95845714D01*
X117691428Y-95902857D01*
X117748571Y-95845714D01*
X117691428Y-95788571D01*
X117691428Y-95902857D01*
X116948571Y-95902857D02*
X117062857Y-95845714D01*
X117120000Y-95788571D01*
X117177142Y-95674285D01*
X117177142Y-95331428D01*
X117120000Y-95217142D01*
X117062857Y-95160000D01*
X116948571Y-95102857D01*
X116777142Y-95102857D01*
X116662857Y-95160000D01*
X116605714Y-95217142D01*
X116548571Y-95331428D01*
X116548571Y-95674285D01*
X116605714Y-95788571D01*
X116662857Y-95845714D01*
X116777142Y-95902857D01*
X116948571Y-95902857D01*
X116034285Y-95902857D02*
X116034285Y-95102857D01*
X116034285Y-95331428D02*
X115977142Y-95217142D01*
X115920000Y-95160000D01*
X115805714Y-95102857D01*
X115691428Y-95102857D01*
X114777142Y-95102857D02*
X114777142Y-96074285D01*
X114834285Y-96188571D01*
X114891428Y-96245714D01*
X115005714Y-96302857D01*
X115177142Y-96302857D01*
X115291428Y-96245714D01*
X114777142Y-95845714D02*
X114891428Y-95902857D01*
X115120000Y-95902857D01*
X115234285Y-95845714D01*
X115291428Y-95788571D01*
X115348571Y-95674285D01*
X115348571Y-95331428D01*
X115291428Y-95217142D01*
X115234285Y-95160000D01*
X115120000Y-95102857D01*
X114891428Y-95102857D01*
X114777142Y-95160000D01*
X113348571Y-94645714D02*
X114377142Y-96188571D01*
X112720000Y-94702857D02*
X112491428Y-94702857D01*
X112377142Y-94760000D01*
X112262857Y-94874285D01*
X112205714Y-95102857D01*
X112205714Y-95502857D01*
X112262857Y-95731428D01*
X112377142Y-95845714D01*
X112491428Y-95902857D01*
X112720000Y-95902857D01*
X112834285Y-95845714D01*
X112948571Y-95731428D01*
X113005714Y-95502857D01*
X113005714Y-95102857D01*
X112948571Y-94874285D01*
X112834285Y-94760000D01*
X112720000Y-94702857D01*
X111691428Y-95902857D02*
X111691428Y-94702857D01*
X111691428Y-95274285D02*
X111005714Y-95274285D01*
X111005714Y-95902857D02*
X111005714Y-94702857D01*
X109862857Y-95902857D02*
X110434285Y-95902857D01*
X110434285Y-94702857D01*
X109577142Y-96360000D02*
X109520000Y-96302857D01*
X109405714Y-96131428D01*
X109348571Y-96017142D01*
X109291428Y-95845714D01*
X109234285Y-95560000D01*
X109234285Y-95331428D01*
X109291428Y-95045714D01*
X109348571Y-94874285D01*
X109405714Y-94760000D01*
X109520000Y-94588571D01*
X109577142Y-94531428D01*
D12*
X163608333Y-75611666D02*
X165208333Y-75611666D01*
X164408333Y-75611666D02*
X164408333Y-72811666D01*
X164675000Y-73211666D01*
X164941666Y-73478333D01*
X165208333Y-73611666D01*
X162675000Y-72811666D02*
X160808333Y-72811666D01*
X162008333Y-75611666D01*
X151520833Y-71061666D02*
X153120833Y-71061666D01*
X152320833Y-71061666D02*
X152320833Y-68261666D01*
X152587500Y-68661666D01*
X152854166Y-68928333D01*
X153120833Y-69061666D01*
X148987500Y-68261666D02*
X150320833Y-68261666D01*
X150454166Y-69595000D01*
X150320833Y-69461666D01*
X150054166Y-69328333D01*
X149387500Y-69328333D01*
X149120833Y-69461666D01*
X148987500Y-69595000D01*
X148854166Y-69861666D01*
X148854166Y-70528333D01*
X148987500Y-70795000D01*
X149120833Y-70928333D01*
X149387500Y-71061666D01*
X150054166Y-71061666D01*
X150320833Y-70928333D01*
X150454166Y-70795000D01*
X151495833Y-75686666D02*
X153095833Y-75686666D01*
X152295833Y-75686666D02*
X152295833Y-72886666D01*
X152562500Y-73286666D01*
X152829166Y-73553333D01*
X153095833Y-73686666D01*
X150562500Y-72886666D02*
X148829166Y-72886666D01*
X149762500Y-73953333D01*
X149362500Y-73953333D01*
X149095833Y-74086666D01*
X148962500Y-74220000D01*
X148829166Y-74486666D01*
X148829166Y-75153333D01*
X148962500Y-75420000D01*
X149095833Y-75553333D01*
X149362500Y-75686666D01*
X150162500Y-75686666D01*
X150429166Y-75553333D01*
X150562500Y-75420000D01*
X170575000Y-68052142D02*
X168575000Y-71052142D01*
X168575000Y-68052142D02*
X170575000Y-71052142D01*
D10*
X107003333Y-55452380D02*
X107003333Y-56166666D01*
X107050952Y-56309523D01*
X107146190Y-56404761D01*
X107289047Y-56452380D01*
X107384285Y-56452380D01*
X106003333Y-56452380D02*
X106574761Y-56452380D01*
X106289047Y-56452380D02*
X106289047Y-55452380D01*
X106384285Y-55595238D01*
X106479523Y-55690476D01*
X106574761Y-55738095D01*
X172963333Y-55452380D02*
X172963333Y-56166666D01*
X173010952Y-56309523D01*
X173106190Y-56404761D01*
X173249047Y-56452380D01*
X173344285Y-56452380D01*
X172058571Y-55452380D02*
X172249047Y-55452380D01*
X172344285Y-55500000D01*
X172391904Y-55547619D01*
X172487142Y-55690476D01*
X172534761Y-55880952D01*
X172534761Y-56261904D01*
X172487142Y-56357142D01*
X172439523Y-56404761D01*
X172344285Y-56452380D01*
X172153809Y-56452380D01*
X172058571Y-56404761D01*
X172010952Y-56357142D01*
X171963333Y-56261904D01*
X171963333Y-56023809D01*
X172010952Y-55928571D01*
X172058571Y-55880952D01*
X172153809Y-55833333D01*
X172344285Y-55833333D01*
X172439523Y-55880952D01*
X172487142Y-55928571D01*
X172534761Y-56023809D01*
D12*
X175975000Y-68027142D02*
X173975000Y-71027142D01*
X173975000Y-68027142D02*
X175975000Y-71027142D01*
X108055357Y-75539642D02*
X109769642Y-75539642D01*
X108912500Y-75539642D02*
X108912500Y-72539642D01*
X109198214Y-72968214D01*
X109483928Y-73253928D01*
X109769642Y-73396785D01*
X122025000Y-67839642D02*
X120025000Y-67839642D01*
X121310714Y-70839642D01*
D10*
X148783333Y-55452380D02*
X148783333Y-56166666D01*
X148830952Y-56309523D01*
X148926190Y-56404761D01*
X149069047Y-56452380D01*
X149164285Y-56452380D01*
X147878571Y-55785714D02*
X147878571Y-56452380D01*
X148116666Y-55404761D02*
X148354761Y-56119047D01*
X147735714Y-56119047D01*
D12*
X171833333Y-73028333D02*
X171700000Y-72895000D01*
X171433333Y-72761666D01*
X170766666Y-72761666D01*
X170500000Y-72895000D01*
X170366666Y-73028333D01*
X170233333Y-73295000D01*
X170233333Y-73561666D01*
X170366666Y-73961666D01*
X171966666Y-75561666D01*
X170233333Y-75561666D01*
X169166666Y-73028333D02*
X169033333Y-72895000D01*
X168766666Y-72761666D01*
X168100000Y-72761666D01*
X167833333Y-72895000D01*
X167700000Y-73028333D01*
X167566666Y-73295000D01*
X167566666Y-73561666D01*
X167700000Y-73961666D01*
X169300000Y-75561666D01*
X167566666Y-75561666D01*
D10*
X130803333Y-55452380D02*
X130803333Y-56166666D01*
X130850952Y-56309523D01*
X130946190Y-56404761D01*
X131089047Y-56452380D01*
X131184285Y-56452380D01*
X130422380Y-55452380D02*
X129803333Y-55452380D01*
X130136666Y-55833333D01*
X129993809Y-55833333D01*
X129898571Y-55880952D01*
X129850952Y-55928571D01*
X129803333Y-56023809D01*
X129803333Y-56261904D01*
X129850952Y-56357142D01*
X129898571Y-56404761D01*
X129993809Y-56452380D01*
X130279523Y-56452380D01*
X130374761Y-56404761D01*
X130422380Y-56357142D01*
D12*
X133483333Y-70749166D02*
X135083333Y-70749166D01*
X134283333Y-70749166D02*
X134283333Y-67949166D01*
X134550000Y-68349166D01*
X134816666Y-68615833D01*
X135083333Y-68749166D01*
X130816666Y-70749166D02*
X132416666Y-70749166D01*
X131616666Y-70749166D02*
X131616666Y-67949166D01*
X131883333Y-68349166D01*
X132150000Y-68615833D01*
X132416666Y-68749166D01*
X128208333Y-75374166D02*
X129808333Y-75374166D01*
X129008333Y-75374166D02*
X129008333Y-72574166D01*
X129275000Y-72974166D01*
X129541666Y-73240833D01*
X129808333Y-73374166D01*
X126475000Y-72574166D02*
X126208333Y-72574166D01*
X125941666Y-72707500D01*
X125808333Y-72840833D01*
X125675000Y-73107500D01*
X125541666Y-73640833D01*
X125541666Y-74307500D01*
X125675000Y-74840833D01*
X125808333Y-75107500D01*
X125941666Y-75240833D01*
X126208333Y-75374166D01*
X126475000Y-75374166D01*
X126741666Y-75240833D01*
X126875000Y-75107500D01*
X127008333Y-74840833D01*
X127141666Y-74307500D01*
X127141666Y-73640833D01*
X127008333Y-73107500D01*
X126875000Y-72840833D01*
X126741666Y-72707500D01*
X126475000Y-72574166D01*
D10*
X119103333Y-55452380D02*
X119103333Y-56166666D01*
X119150952Y-56309523D01*
X119246190Y-56404761D01*
X119389047Y-56452380D01*
X119484285Y-56452380D01*
X118674761Y-55547619D02*
X118627142Y-55500000D01*
X118531904Y-55452380D01*
X118293809Y-55452380D01*
X118198571Y-55500000D01*
X118150952Y-55547619D01*
X118103333Y-55642857D01*
X118103333Y-55738095D01*
X118150952Y-55880952D01*
X118722380Y-56452380D01*
X118103333Y-56452380D01*
X108864285Y-81697380D02*
X109435714Y-81697380D01*
X109150000Y-81697380D02*
X109150000Y-80697380D01*
X109245238Y-80840238D01*
X109340476Y-80935476D01*
X109435714Y-80983095D01*
X154927380Y-98436904D02*
X154927380Y-97636904D01*
X154736904Y-97636904D01*
X154622619Y-97675000D01*
X154546428Y-97751190D01*
X154508333Y-97827380D01*
X154470238Y-97979761D01*
X154470238Y-98094047D01*
X154508333Y-98246428D01*
X154546428Y-98322619D01*
X154622619Y-98398809D01*
X154736904Y-98436904D01*
X154927380Y-98436904D01*
X153822619Y-98398809D02*
X153898809Y-98436904D01*
X154051190Y-98436904D01*
X154127380Y-98398809D01*
X154165476Y-98322619D01*
X154165476Y-98017857D01*
X154127380Y-97941666D01*
X154051190Y-97903571D01*
X153898809Y-97903571D01*
X153822619Y-97941666D01*
X153784523Y-98017857D01*
X153784523Y-98094047D01*
X154165476Y-98170238D01*
X153479761Y-98398809D02*
X153403571Y-98436904D01*
X153251190Y-98436904D01*
X153175000Y-98398809D01*
X153136904Y-98322619D01*
X153136904Y-98284523D01*
X153175000Y-98208333D01*
X153251190Y-98170238D01*
X153365476Y-98170238D01*
X153441666Y-98132142D01*
X153479761Y-98055952D01*
X153479761Y-98017857D01*
X153441666Y-97941666D01*
X153365476Y-97903571D01*
X153251190Y-97903571D01*
X153175000Y-97941666D01*
X152794047Y-98436904D02*
X152794047Y-97903571D01*
X152794047Y-97636904D02*
X152832142Y-97675000D01*
X152794047Y-97713095D01*
X152755952Y-97675000D01*
X152794047Y-97636904D01*
X152794047Y-97713095D01*
X152070238Y-97903571D02*
X152070238Y-98551190D01*
X152108333Y-98627380D01*
X152146428Y-98665476D01*
X152222619Y-98703571D01*
X152336904Y-98703571D01*
X152413095Y-98665476D01*
X152070238Y-98398809D02*
X152146428Y-98436904D01*
X152298809Y-98436904D01*
X152375000Y-98398809D01*
X152413095Y-98360714D01*
X152451190Y-98284523D01*
X152451190Y-98055952D01*
X152413095Y-97979761D01*
X152375000Y-97941666D01*
X152298809Y-97903571D01*
X152146428Y-97903571D01*
X152070238Y-97941666D01*
X151689285Y-97903571D02*
X151689285Y-98436904D01*
X151689285Y-97979761D02*
X151651190Y-97941666D01*
X151575000Y-97903571D01*
X151460714Y-97903571D01*
X151384523Y-97941666D01*
X151346428Y-98017857D01*
X151346428Y-98436904D01*
X150660714Y-98398809D02*
X150736904Y-98436904D01*
X150889285Y-98436904D01*
X150965476Y-98398809D01*
X151003571Y-98322619D01*
X151003571Y-98017857D01*
X150965476Y-97941666D01*
X150889285Y-97903571D01*
X150736904Y-97903571D01*
X150660714Y-97941666D01*
X150622619Y-98017857D01*
X150622619Y-98094047D01*
X151003571Y-98170238D01*
X149936904Y-98436904D02*
X149936904Y-97636904D01*
X149936904Y-98398809D02*
X150013095Y-98436904D01*
X150165476Y-98436904D01*
X150241666Y-98398809D01*
X150279761Y-98360714D01*
X150317857Y-98284523D01*
X150317857Y-98055952D01*
X150279761Y-97979761D01*
X150241666Y-97941666D01*
X150165476Y-97903571D01*
X150013095Y-97903571D01*
X149936904Y-97941666D01*
X148946428Y-98436904D02*
X148946428Y-97636904D01*
X148946428Y-97941666D02*
X148870238Y-97903571D01*
X148717857Y-97903571D01*
X148641666Y-97941666D01*
X148603571Y-97979761D01*
X148565476Y-98055952D01*
X148565476Y-98284523D01*
X148603571Y-98360714D01*
X148641666Y-98398809D01*
X148717857Y-98436904D01*
X148870238Y-98436904D01*
X148946428Y-98398809D01*
X148298809Y-97903571D02*
X148108333Y-98436904D01*
X147917857Y-97903571D02*
X148108333Y-98436904D01*
X148184523Y-98627380D01*
X148222619Y-98665476D01*
X148298809Y-98703571D01*
X147041666Y-98208333D02*
X146660714Y-98208333D01*
X147117857Y-98436904D02*
X146851190Y-97636904D01*
X146584523Y-98436904D01*
X146203571Y-98436904D02*
X146279761Y-98398809D01*
X146317857Y-98322619D01*
X146317857Y-97636904D01*
X145594047Y-98398809D02*
X145670238Y-98436904D01*
X145822619Y-98436904D01*
X145898809Y-98398809D01*
X145936904Y-98322619D01*
X145936904Y-98017857D01*
X145898809Y-97941666D01*
X145822619Y-97903571D01*
X145670238Y-97903571D01*
X145594047Y-97941666D01*
X145555952Y-98017857D01*
X145555952Y-98094047D01*
X145936904Y-98170238D01*
X145289285Y-98436904D02*
X144870238Y-97903571D01*
X145289285Y-97903571D02*
X144870238Y-98436904D01*
X143955952Y-98436904D02*
X143955952Y-97636904D01*
X143498809Y-98436904D02*
X143841666Y-97979761D01*
X143498809Y-97636904D02*
X143955952Y-98094047D01*
X143155952Y-98436904D02*
X143155952Y-97903571D01*
X143155952Y-97636904D02*
X143194047Y-97675000D01*
X143155952Y-97713095D01*
X143117857Y-97675000D01*
X143155952Y-97636904D01*
X143155952Y-97713095D01*
X142432142Y-98436904D02*
X142432142Y-98017857D01*
X142470238Y-97941666D01*
X142546428Y-97903571D01*
X142698809Y-97903571D01*
X142775000Y-97941666D01*
X142432142Y-98398809D02*
X142508333Y-98436904D01*
X142698809Y-98436904D01*
X142775000Y-98398809D01*
X142813095Y-98322619D01*
X142813095Y-98246428D01*
X142775000Y-98170238D01*
X142698809Y-98132142D01*
X142508333Y-98132142D01*
X142432142Y-98094047D01*
X141936904Y-98436904D02*
X142013095Y-98398809D01*
X142051190Y-98360714D01*
X142089285Y-98284523D01*
X142089285Y-98055952D01*
X142051190Y-97979761D01*
X142013095Y-97941666D01*
X141936904Y-97903571D01*
X141822619Y-97903571D01*
X141746428Y-97941666D01*
X141708333Y-97979761D01*
X141670238Y-98055952D01*
X141670238Y-98284523D01*
X141708333Y-98360714D01*
X141746428Y-98398809D01*
X141822619Y-98436904D01*
X141936904Y-98436904D01*
X141365476Y-98398809D02*
X141289285Y-98436904D01*
X141136904Y-98436904D01*
X141060714Y-98398809D01*
X141022619Y-98322619D01*
X141022619Y-98284523D01*
X141060714Y-98208333D01*
X141136904Y-98170238D01*
X141251190Y-98170238D01*
X141327380Y-98132142D01*
X141365476Y-98055952D01*
X141365476Y-98017857D01*
X141327380Y-97941666D01*
X141251190Y-97903571D01*
X141136904Y-97903571D01*
X141060714Y-97941666D01*
X140070238Y-98132142D02*
X139460714Y-98132142D01*
X138241666Y-98741666D02*
X138279761Y-98703571D01*
X138355952Y-98589285D01*
X138394047Y-98513095D01*
X138432142Y-98398809D01*
X138470238Y-98208333D01*
X138470238Y-98055952D01*
X138432142Y-97865476D01*
X138394047Y-97751190D01*
X138355952Y-97675000D01*
X138279761Y-97560714D01*
X138241666Y-97522619D01*
X138013095Y-97903571D02*
X137822619Y-98436904D01*
X137632142Y-97903571D01*
X137175000Y-97636904D02*
X137098809Y-97636904D01*
X137022619Y-97675000D01*
X136984523Y-97713095D01*
X136946428Y-97789285D01*
X136908333Y-97941666D01*
X136908333Y-98132142D01*
X136946428Y-98284523D01*
X136984523Y-98360714D01*
X137022619Y-98398809D01*
X137098809Y-98436904D01*
X137175000Y-98436904D01*
X137251190Y-98398809D01*
X137289285Y-98360714D01*
X137327380Y-98284523D01*
X137365476Y-98132142D01*
X137365476Y-97941666D01*
X137327380Y-97789285D01*
X137289285Y-97713095D01*
X137251190Y-97675000D01*
X137175000Y-97636904D01*
X136565476Y-98360714D02*
X136527380Y-98398809D01*
X136565476Y-98436904D01*
X136603571Y-98398809D01*
X136565476Y-98360714D01*
X136565476Y-98436904D01*
X136222619Y-97713095D02*
X136184523Y-97675000D01*
X136108333Y-97636904D01*
X135917857Y-97636904D01*
X135841666Y-97675000D01*
X135803571Y-97713095D01*
X135765476Y-97789285D01*
X135765476Y-97865476D01*
X135803571Y-97979761D01*
X136260714Y-98436904D01*
X135765476Y-98436904D01*
X135079761Y-98436904D02*
X135079761Y-98017857D01*
X135117857Y-97941666D01*
X135194047Y-97903571D01*
X135346428Y-97903571D01*
X135422619Y-97941666D01*
X135079761Y-98398809D02*
X135155952Y-98436904D01*
X135346428Y-98436904D01*
X135422619Y-98398809D01*
X135460714Y-98322619D01*
X135460714Y-98246428D01*
X135422619Y-98170238D01*
X135346428Y-98132142D01*
X135155952Y-98132142D01*
X135079761Y-98094047D01*
X134775000Y-98741666D02*
X134736904Y-98703571D01*
X134660714Y-98589285D01*
X134622619Y-98513095D01*
X134584523Y-98398809D01*
X134546428Y-98208333D01*
X134546428Y-98055952D01*
X134584523Y-97865476D01*
X134622619Y-97751190D01*
X134660714Y-97675000D01*
X134736904Y-97560714D01*
X134775000Y-97522619D01*
X133555952Y-98132142D02*
X132946428Y-98132142D01*
X131727380Y-97636904D02*
X131727380Y-98208333D01*
X131765476Y-98322619D01*
X131841666Y-98398809D01*
X131955952Y-98436904D01*
X132032142Y-98436904D01*
X131003571Y-98436904D02*
X131003571Y-98017857D01*
X131041666Y-97941666D01*
X131117857Y-97903571D01*
X131270238Y-97903571D01*
X131346428Y-97941666D01*
X131003571Y-98398809D02*
X131079761Y-98436904D01*
X131270238Y-98436904D01*
X131346428Y-98398809D01*
X131384523Y-98322619D01*
X131384523Y-98246428D01*
X131346428Y-98170238D01*
X131270238Y-98132142D01*
X131079761Y-98132142D01*
X131003571Y-98094047D01*
X130622619Y-97903571D02*
X130622619Y-98436904D01*
X130622619Y-97979761D02*
X130584523Y-97941666D01*
X130508333Y-97903571D01*
X130394047Y-97903571D01*
X130317857Y-97941666D01*
X130279761Y-98017857D01*
X130279761Y-98436904D01*
X129327380Y-97713095D02*
X129289285Y-97675000D01*
X129213095Y-97636904D01*
X129022619Y-97636904D01*
X128946428Y-97675000D01*
X128908333Y-97713095D01*
X128870238Y-97789285D01*
X128870238Y-97865476D01*
X128908333Y-97979761D01*
X129365476Y-98436904D01*
X128870238Y-98436904D01*
X128375000Y-97636904D02*
X128298809Y-97636904D01*
X128222619Y-97675000D01*
X128184523Y-97713095D01*
X128146428Y-97789285D01*
X128108333Y-97941666D01*
X128108333Y-98132142D01*
X128146428Y-98284523D01*
X128184523Y-98360714D01*
X128222619Y-98398809D01*
X128298809Y-98436904D01*
X128375000Y-98436904D01*
X128451190Y-98398809D01*
X128489285Y-98360714D01*
X128527380Y-98284523D01*
X128565476Y-98132142D01*
X128565476Y-97941666D01*
X128527380Y-97789285D01*
X128489285Y-97713095D01*
X128451190Y-97675000D01*
X128375000Y-97636904D01*
X127803571Y-97713095D02*
X127765476Y-97675000D01*
X127689285Y-97636904D01*
X127498809Y-97636904D01*
X127422619Y-97675000D01*
X127384523Y-97713095D01*
X127346428Y-97789285D01*
X127346428Y-97865476D01*
X127384523Y-97979761D01*
X127841666Y-98436904D01*
X127346428Y-98436904D01*
X126660714Y-97636904D02*
X126813095Y-97636904D01*
X126889285Y-97675000D01*
X126927380Y-97713095D01*
X127003571Y-97827380D01*
X127041666Y-97979761D01*
X127041666Y-98284523D01*
X127003571Y-98360714D01*
X126965476Y-98398809D01*
X126889285Y-98436904D01*
X126736904Y-98436904D01*
X126660714Y-98398809D01*
X126622619Y-98360714D01*
X126584523Y-98284523D01*
X126584523Y-98094047D01*
X126622619Y-98017857D01*
X126660714Y-97979761D01*
X126736904Y-97941666D01*
X126889285Y-97941666D01*
X126965476Y-97979761D01*
X127003571Y-98017857D01*
X127041666Y-98094047D01*
D12*
X176958333Y-73078333D02*
X176825000Y-72945000D01*
X176558333Y-72811666D01*
X175891666Y-72811666D01*
X175625000Y-72945000D01*
X175491666Y-73078333D01*
X175358333Y-73345000D01*
X175358333Y-73611666D01*
X175491666Y-74011666D01*
X177091666Y-75611666D01*
X175358333Y-75611666D01*
X172691666Y-75611666D02*
X174291666Y-75611666D01*
X173491666Y-75611666D02*
X173491666Y-72811666D01*
X173758333Y-73211666D01*
X174025000Y-73478333D01*
X174291666Y-73611666D01*
X146120833Y-71086666D02*
X147720833Y-71086666D01*
X146920833Y-71086666D02*
X146920833Y-68286666D01*
X147187500Y-68686666D01*
X147454166Y-68953333D01*
X147720833Y-69086666D01*
X143720833Y-68286666D02*
X144254166Y-68286666D01*
X144520833Y-68420000D01*
X144654166Y-68553333D01*
X144920833Y-68953333D01*
X145054166Y-69486666D01*
X145054166Y-70553333D01*
X144920833Y-70820000D01*
X144787500Y-70953333D01*
X144520833Y-71086666D01*
X143987500Y-71086666D01*
X143720833Y-70953333D01*
X143587500Y-70820000D01*
X143454166Y-70553333D01*
X143454166Y-69886666D01*
X143587500Y-69620000D01*
X143720833Y-69486666D01*
X143987500Y-69353333D01*
X144520833Y-69353333D01*
X144787500Y-69486666D01*
X144920833Y-69620000D01*
X145054166Y-69886666D01*
X104519642Y-72825357D02*
X104376785Y-72682500D01*
X104091071Y-72539642D01*
X103376785Y-72539642D01*
X103091071Y-72682500D01*
X102948214Y-72825357D01*
X102805357Y-73111071D01*
X102805357Y-73396785D01*
X102948214Y-73825357D01*
X104662500Y-75539642D01*
X102805357Y-75539642D01*
X115178571Y-72464642D02*
X115750000Y-72464642D01*
X116035714Y-72607500D01*
X116178571Y-72750357D01*
X116464285Y-73178928D01*
X116607142Y-73750357D01*
X116607142Y-74893214D01*
X116464285Y-75178928D01*
X116321428Y-75321785D01*
X116035714Y-75464642D01*
X115464285Y-75464642D01*
X115178571Y-75321785D01*
X115035714Y-75178928D01*
X114892857Y-74893214D01*
X114892857Y-74178928D01*
X115035714Y-73893214D01*
X115178571Y-73750357D01*
X115464285Y-73607500D01*
X116035714Y-73607500D01*
X116321428Y-73750357D01*
X116464285Y-73893214D01*
X116607142Y-74178928D01*
D10*
X161173333Y-55452380D02*
X161173333Y-56166666D01*
X161220952Y-56309523D01*
X161316190Y-56404761D01*
X161459047Y-56452380D01*
X161554285Y-56452380D01*
X160220952Y-55452380D02*
X160697142Y-55452380D01*
X160744761Y-55928571D01*
X160697142Y-55880952D01*
X160601904Y-55833333D01*
X160363809Y-55833333D01*
X160268571Y-55880952D01*
X160220952Y-55928571D01*
X160173333Y-56023809D01*
X160173333Y-56261904D01*
X160220952Y-56357142D01*
X160268571Y-56404761D01*
X160363809Y-56452380D01*
X160601904Y-56452380D01*
X160697142Y-56404761D01*
X160744761Y-56357142D01*
D12*
X159808333Y-68478333D02*
X159675000Y-68345000D01*
X159408333Y-68211666D01*
X158741666Y-68211666D01*
X158475000Y-68345000D01*
X158341666Y-68478333D01*
X158208333Y-68745000D01*
X158208333Y-69011666D01*
X158341666Y-69411666D01*
X159941666Y-71011666D01*
X158208333Y-71011666D01*
X156475000Y-68211666D02*
X156208333Y-68211666D01*
X155941666Y-68345000D01*
X155808333Y-68478333D01*
X155675000Y-68745000D01*
X155541666Y-69278333D01*
X155541666Y-69945000D01*
X155675000Y-70478333D01*
X155808333Y-70745000D01*
X155941666Y-70878333D01*
X156208333Y-71011666D01*
X156475000Y-71011666D01*
X156741666Y-70878333D01*
X156875000Y-70745000D01*
X157008333Y-70478333D01*
X157141666Y-69945000D01*
X157141666Y-69278333D01*
X157008333Y-68745000D01*
X156875000Y-68478333D01*
X156741666Y-68345000D01*
X156475000Y-68211666D01*
X109937500Y-67914642D02*
X108080357Y-67914642D01*
X109080357Y-69057500D01*
X108651785Y-69057500D01*
X108366071Y-69200357D01*
X108223214Y-69343214D01*
X108080357Y-69628928D01*
X108080357Y-70343214D01*
X108223214Y-70628928D01*
X108366071Y-70771785D01*
X108651785Y-70914642D01*
X109508928Y-70914642D01*
X109794642Y-70771785D01*
X109937500Y-70628928D01*
D10*
X139335714Y-58422380D02*
X139335714Y-59231904D01*
X139288095Y-59327142D01*
X139240476Y-59374761D01*
X139145238Y-59422380D01*
X138954761Y-59422380D01*
X138859523Y-59374761D01*
X138811904Y-59327142D01*
X138764285Y-59231904D01*
X138764285Y-58422380D01*
X138288095Y-59422380D02*
X138288095Y-58422380D01*
X137907142Y-58422380D01*
X137811904Y-58470000D01*
X137764285Y-58517619D01*
X137716666Y-58612857D01*
X137716666Y-58755714D01*
X137764285Y-58850952D01*
X137811904Y-58898571D01*
X137907142Y-58946190D01*
X138288095Y-58946190D01*
D12*
X128083333Y-70774166D02*
X129683333Y-70774166D01*
X128883333Y-70774166D02*
X128883333Y-67974166D01*
X129150000Y-68374166D01*
X129416666Y-68640833D01*
X129683333Y-68774166D01*
X127016666Y-68240833D02*
X126883333Y-68107500D01*
X126616666Y-67974166D01*
X125950000Y-67974166D01*
X125683333Y-68107500D01*
X125550000Y-68240833D01*
X125416666Y-68507500D01*
X125416666Y-68774166D01*
X125550000Y-69174166D01*
X127150000Y-70774166D01*
X125416666Y-70774166D01*
X163608333Y-70986666D02*
X165208333Y-70986666D01*
X164408333Y-70986666D02*
X164408333Y-68186666D01*
X164675000Y-68586666D01*
X164941666Y-68853333D01*
X165208333Y-68986666D01*
X162275000Y-70986666D02*
X161741666Y-70986666D01*
X161475000Y-70853333D01*
X161341666Y-70720000D01*
X161075000Y-70320000D01*
X160941666Y-69786666D01*
X160941666Y-68720000D01*
X161075000Y-68453333D01*
X161208333Y-68320000D01*
X161475000Y-68186666D01*
X162008333Y-68186666D01*
X162275000Y-68320000D01*
X162408333Y-68453333D01*
X162541666Y-68720000D01*
X162541666Y-69386666D01*
X162408333Y-69653333D01*
X162275000Y-69786666D01*
X162008333Y-69920000D01*
X161475000Y-69920000D01*
X161208333Y-69786666D01*
X161075000Y-69653333D01*
X160941666Y-69386666D01*
X120285714Y-72464642D02*
X121714285Y-72464642D01*
X121857142Y-73893214D01*
X121714285Y-73750357D01*
X121428571Y-73607500D01*
X120714285Y-73607500D01*
X120428571Y-73750357D01*
X120285714Y-73893214D01*
X120142857Y-74178928D01*
X120142857Y-74893214D01*
X120285714Y-75178928D01*
X120428571Y-75321785D01*
X120714285Y-75464642D01*
X121428571Y-75464642D01*
X121714285Y-75321785D01*
X121857142Y-75178928D01*
X115910714Y-69150357D02*
X116196428Y-69007500D01*
X116339285Y-68864642D01*
X116482142Y-68578928D01*
X116482142Y-68436071D01*
X116339285Y-68150357D01*
X116196428Y-68007500D01*
X115910714Y-67864642D01*
X115339285Y-67864642D01*
X115053571Y-68007500D01*
X114910714Y-68150357D01*
X114767857Y-68436071D01*
X114767857Y-68578928D01*
X114910714Y-68864642D01*
X115053571Y-69007500D01*
X115339285Y-69150357D01*
X115910714Y-69150357D01*
X116196428Y-69293214D01*
X116339285Y-69436071D01*
X116482142Y-69721785D01*
X116482142Y-70293214D01*
X116339285Y-70578928D01*
X116196428Y-70721785D01*
X115910714Y-70864642D01*
X115339285Y-70864642D01*
X115053571Y-70721785D01*
X114910714Y-70578928D01*
X114767857Y-70293214D01*
X114767857Y-69721785D01*
X114910714Y-69436071D01*
X115053571Y-69293214D01*
X115339285Y-69150357D01*
D10*
X163867857Y-84046857D02*
X163867857Y-82846857D01*
X163867857Y-83418285D02*
X163182142Y-83418285D01*
X163182142Y-84046857D02*
X163182142Y-82846857D01*
X162382142Y-82846857D02*
X162153571Y-82846857D01*
X162039285Y-82904000D01*
X161925000Y-83018285D01*
X161867857Y-83246857D01*
X161867857Y-83646857D01*
X161925000Y-83875428D01*
X162039285Y-83989714D01*
X162153571Y-84046857D01*
X162382142Y-84046857D01*
X162496428Y-83989714D01*
X162610714Y-83875428D01*
X162667857Y-83646857D01*
X162667857Y-83246857D01*
X162610714Y-83018285D01*
X162496428Y-82904000D01*
X162382142Y-82846857D01*
X161353571Y-84046857D02*
X161353571Y-82846857D01*
X160667857Y-84046857D01*
X160667857Y-82846857D01*
X160096428Y-84046857D02*
X160096428Y-82846857D01*
X159810714Y-82846857D01*
X159639285Y-82904000D01*
X159525000Y-83018285D01*
X159467857Y-83132571D01*
X159410714Y-83361142D01*
X159410714Y-83532571D01*
X159467857Y-83761142D01*
X159525000Y-83875428D01*
X159639285Y-83989714D01*
X159810714Y-84046857D01*
X160096428Y-84046857D01*
X158953571Y-83704000D02*
X158382142Y-83704000D01*
X159067857Y-84046857D02*
X158667857Y-82846857D01*
X158267857Y-84046857D01*
X156267857Y-83932571D02*
X156325000Y-83989714D01*
X156496428Y-84046857D01*
X156610714Y-84046857D01*
X156782142Y-83989714D01*
X156896428Y-83875428D01*
X156953571Y-83761142D01*
X157010714Y-83532571D01*
X157010714Y-83361142D01*
X156953571Y-83132571D01*
X156896428Y-83018285D01*
X156782142Y-82904000D01*
X156610714Y-82846857D01*
X156496428Y-82846857D01*
X156325000Y-82904000D01*
X156267857Y-82961142D01*
X155353571Y-83418285D02*
X155182142Y-83475428D01*
X155125000Y-83532571D01*
X155067857Y-83646857D01*
X155067857Y-83818285D01*
X155125000Y-83932571D01*
X155182142Y-83989714D01*
X155296428Y-84046857D01*
X155753571Y-84046857D01*
X155753571Y-82846857D01*
X155353571Y-82846857D01*
X155239285Y-82904000D01*
X155182142Y-82961142D01*
X155125000Y-83075428D01*
X155125000Y-83189714D01*
X155182142Y-83304000D01*
X155239285Y-83361142D01*
X155353571Y-83418285D01*
X155753571Y-83418285D01*
X153867857Y-84046857D02*
X154267857Y-83475428D01*
X154553571Y-84046857D02*
X154553571Y-82846857D01*
X154096428Y-82846857D01*
X153982142Y-82904000D01*
X153925000Y-82961142D01*
X153867857Y-83075428D01*
X153867857Y-83246857D01*
X153925000Y-83361142D01*
X153982142Y-83418285D01*
X154096428Y-83475428D01*
X154553571Y-83475428D01*
X152725000Y-84046857D02*
X153410714Y-84046857D01*
X153067857Y-84046857D02*
X153067857Y-82846857D01*
X153182142Y-83018285D01*
X153296428Y-83132571D01*
X153410714Y-83189714D01*
X151582142Y-84046857D02*
X152267857Y-84046857D01*
X151925000Y-84046857D02*
X151925000Y-82846857D01*
X152039285Y-83018285D01*
X152153571Y-83132571D01*
X152267857Y-83189714D01*
X150839285Y-82846857D02*
X150725000Y-82846857D01*
X150610714Y-82904000D01*
X150553571Y-82961142D01*
X150496428Y-83075428D01*
X150439285Y-83304000D01*
X150439285Y-83589714D01*
X150496428Y-83818285D01*
X150553571Y-83932571D01*
X150610714Y-83989714D01*
X150725000Y-84046857D01*
X150839285Y-84046857D01*
X150953571Y-83989714D01*
X151010714Y-83932571D01*
X151067857Y-83818285D01*
X151125000Y-83589714D01*
X151125000Y-83304000D01*
X151067857Y-83075428D01*
X151010714Y-82961142D01*
X150953571Y-82904000D01*
X150839285Y-82846857D01*
X149696428Y-82846857D02*
X149582142Y-82846857D01*
X149467857Y-82904000D01*
X149410714Y-82961142D01*
X149353571Y-83075428D01*
X149296428Y-83304000D01*
X149296428Y-83589714D01*
X149353571Y-83818285D01*
X149410714Y-83932571D01*
X149467857Y-83989714D01*
X149582142Y-84046857D01*
X149696428Y-84046857D01*
X149810714Y-83989714D01*
X149867857Y-83932571D01*
X149925000Y-83818285D01*
X149982142Y-83589714D01*
X149982142Y-83304000D01*
X149925000Y-83075428D01*
X149867857Y-82961142D01*
X149810714Y-82904000D01*
X149696428Y-82846857D01*
X148896428Y-82846857D02*
X148096428Y-84046857D01*
X148096428Y-82846857D02*
X148896428Y-84046857D01*
X147753571Y-82846857D02*
X146953571Y-84046857D01*
X146953571Y-82846857D02*
X147753571Y-84046857D01*
X145639285Y-83989714D02*
X145467857Y-84046857D01*
X145182142Y-84046857D01*
X145067857Y-83989714D01*
X145010714Y-83932571D01*
X144953571Y-83818285D01*
X144953571Y-83704000D01*
X145010714Y-83589714D01*
X145067857Y-83532571D01*
X145182142Y-83475428D01*
X145410714Y-83418285D01*
X145525000Y-83361142D01*
X145582142Y-83304000D01*
X145639285Y-83189714D01*
X145639285Y-83075428D01*
X145582142Y-82961142D01*
X145525000Y-82904000D01*
X145410714Y-82846857D01*
X145125000Y-82846857D01*
X144953571Y-82904000D01*
X144439285Y-82846857D02*
X144439285Y-83818285D01*
X144382142Y-83932571D01*
X144325000Y-83989714D01*
X144210714Y-84046857D01*
X143982142Y-84046857D01*
X143867857Y-83989714D01*
X143810714Y-83932571D01*
X143753571Y-83818285D01*
X143753571Y-82846857D01*
X143182142Y-84046857D02*
X143182142Y-82846857D01*
X142725000Y-82846857D01*
X142610714Y-82904000D01*
X142553571Y-82961142D01*
X142496428Y-83075428D01*
X142496428Y-83246857D01*
X142553571Y-83361142D01*
X142610714Y-83418285D01*
X142725000Y-83475428D01*
X143182142Y-83475428D01*
X141982142Y-83418285D02*
X141582142Y-83418285D01*
X141410714Y-84046857D02*
X141982142Y-84046857D01*
X141982142Y-82846857D01*
X141410714Y-82846857D01*
X140210714Y-84046857D02*
X140610714Y-83475428D01*
X140896428Y-84046857D02*
X140896428Y-82846857D01*
X140439285Y-82846857D01*
X140325000Y-82904000D01*
X140267857Y-82961142D01*
X140210714Y-83075428D01*
X140210714Y-83246857D01*
X140267857Y-83361142D01*
X140325000Y-83418285D01*
X140439285Y-83475428D01*
X140896428Y-83475428D01*
X138382142Y-83418285D02*
X138210714Y-83475428D01*
X138153571Y-83532571D01*
X138096428Y-83646857D01*
X138096428Y-83818285D01*
X138153571Y-83932571D01*
X138210714Y-83989714D01*
X138325000Y-84046857D01*
X138782142Y-84046857D01*
X138782142Y-82846857D01*
X138382142Y-82846857D01*
X138267857Y-82904000D01*
X138210714Y-82961142D01*
X138153571Y-83075428D01*
X138153571Y-83189714D01*
X138210714Y-83304000D01*
X138267857Y-83361142D01*
X138382142Y-83418285D01*
X138782142Y-83418285D01*
X137010714Y-84046857D02*
X137582142Y-84046857D01*
X137582142Y-82846857D01*
X136667857Y-83704000D02*
X136096428Y-83704000D01*
X136782142Y-84046857D02*
X136382142Y-82846857D01*
X135982142Y-84046857D01*
X134896428Y-83932571D02*
X134953571Y-83989714D01*
X135125000Y-84046857D01*
X135239285Y-84046857D01*
X135410714Y-83989714D01*
X135525000Y-83875428D01*
X135582142Y-83761142D01*
X135639285Y-83532571D01*
X135639285Y-83361142D01*
X135582142Y-83132571D01*
X135525000Y-83018285D01*
X135410714Y-82904000D01*
X135239285Y-82846857D01*
X135125000Y-82846857D01*
X134953571Y-82904000D01*
X134896428Y-82961142D01*
X134382142Y-84046857D02*
X134382142Y-82846857D01*
X133696428Y-84046857D02*
X134210714Y-83361142D01*
X133696428Y-82846857D02*
X134382142Y-83532571D01*
X132782142Y-83418285D02*
X132610714Y-83475428D01*
X132553571Y-83532571D01*
X132496428Y-83646857D01*
X132496428Y-83818285D01*
X132553571Y-83932571D01*
X132610714Y-83989714D01*
X132725000Y-84046857D01*
X133182142Y-84046857D01*
X133182142Y-82846857D01*
X132782142Y-82846857D01*
X132667857Y-82904000D01*
X132610714Y-82961142D01*
X132553571Y-83075428D01*
X132553571Y-83189714D01*
X132610714Y-83304000D01*
X132667857Y-83361142D01*
X132782142Y-83418285D01*
X133182142Y-83418285D01*
X131982142Y-84046857D02*
X131982142Y-82846857D01*
X130725000Y-84046857D02*
X131125000Y-83475428D01*
X131410714Y-84046857D02*
X131410714Y-82846857D01*
X130953571Y-82846857D01*
X130839285Y-82904000D01*
X130782142Y-82961142D01*
X130725000Y-83075428D01*
X130725000Y-83246857D01*
X130782142Y-83361142D01*
X130839285Y-83418285D01*
X130953571Y-83475428D01*
X131410714Y-83475428D01*
X130210714Y-84046857D02*
X130210714Y-82846857D01*
X129925000Y-82846857D01*
X129753571Y-82904000D01*
X129639285Y-83018285D01*
X129582142Y-83132571D01*
X129525000Y-83361142D01*
X129525000Y-83532571D01*
X129582142Y-83761142D01*
X129639285Y-83875428D01*
X129753571Y-83989714D01*
X129925000Y-84046857D01*
X130210714Y-84046857D01*
X128096428Y-83589714D02*
X127182142Y-83589714D01*
X125696428Y-83418285D02*
X125296428Y-83418285D01*
X125125000Y-84046857D02*
X125696428Y-84046857D01*
X125696428Y-82846857D01*
X125125000Y-82846857D01*
X124210714Y-83418285D02*
X124610714Y-83418285D01*
X124610714Y-84046857D02*
X124610714Y-82846857D01*
X124039285Y-82846857D01*
X123582142Y-84046857D02*
X123582142Y-82846857D01*
X122096428Y-84046857D02*
X122096428Y-82846857D01*
X121696428Y-83704000D01*
X121296428Y-82846857D01*
X121296428Y-84046857D01*
X120496428Y-82846857D02*
X120267857Y-82846857D01*
X120153571Y-82904000D01*
X120039285Y-83018285D01*
X119982142Y-83246857D01*
X119982142Y-83646857D01*
X120039285Y-83875428D01*
X120153571Y-83989714D01*
X120267857Y-84046857D01*
X120496428Y-84046857D01*
X120610714Y-83989714D01*
X120725000Y-83875428D01*
X120782142Y-83646857D01*
X120782142Y-83246857D01*
X120725000Y-83018285D01*
X120610714Y-82904000D01*
X120496428Y-82846857D01*
X119467857Y-84046857D02*
X119467857Y-82846857D01*
X119182142Y-82846857D01*
X119010714Y-82904000D01*
X118896428Y-83018285D01*
X118839285Y-83132571D01*
X118782142Y-83361142D01*
X118782142Y-83532571D01*
X118839285Y-83761142D01*
X118896428Y-83875428D01*
X119010714Y-83989714D01*
X119182142Y-84046857D01*
X119467857Y-84046857D01*
X118267857Y-83418285D02*
X117867857Y-83418285D01*
X117696428Y-84046857D02*
X118267857Y-84046857D01*
X118267857Y-82846857D01*
X117696428Y-82846857D01*
X116610714Y-84046857D02*
X117182142Y-84046857D01*
X117182142Y-82846857D01*
X168667857Y-84778857D02*
X168382142Y-85978857D01*
X168153571Y-85121714D01*
X167925000Y-85978857D01*
X167639285Y-84778857D01*
X167182142Y-85978857D02*
X167182142Y-84778857D01*
X165925000Y-85978857D02*
X166325000Y-85407428D01*
X166610714Y-85978857D02*
X166610714Y-84778857D01*
X166153571Y-84778857D01*
X166039285Y-84836000D01*
X165982142Y-84893142D01*
X165925000Y-85007428D01*
X165925000Y-85178857D01*
X165982142Y-85293142D01*
X166039285Y-85350285D01*
X166153571Y-85407428D01*
X166610714Y-85407428D01*
X165410714Y-85978857D02*
X165410714Y-84778857D01*
X164839285Y-85978857D02*
X164839285Y-84778857D01*
X164153571Y-85978857D01*
X164153571Y-84778857D01*
X162953571Y-84836000D02*
X163067857Y-84778857D01*
X163239285Y-84778857D01*
X163410714Y-84836000D01*
X163525000Y-84950285D01*
X163582142Y-85064571D01*
X163639285Y-85293142D01*
X163639285Y-85464571D01*
X163582142Y-85693142D01*
X163525000Y-85807428D01*
X163410714Y-85921714D01*
X163239285Y-85978857D01*
X163125000Y-85978857D01*
X162953571Y-85921714D01*
X162896428Y-85864571D01*
X162896428Y-85464571D01*
X163125000Y-85464571D01*
X161467857Y-85978857D02*
X161467857Y-84778857D01*
X161467857Y-85350285D02*
X160782142Y-85350285D01*
X160782142Y-85978857D02*
X160782142Y-84778857D01*
X160267857Y-85636000D02*
X159696428Y-85636000D01*
X160382142Y-85978857D02*
X159982142Y-84778857D01*
X159582142Y-85978857D01*
X158496428Y-85978857D02*
X158896428Y-85407428D01*
X159182142Y-85978857D02*
X159182142Y-84778857D01*
X158725000Y-84778857D01*
X158610714Y-84836000D01*
X158553571Y-84893142D01*
X158496428Y-85007428D01*
X158496428Y-85178857D01*
X158553571Y-85293142D01*
X158610714Y-85350285D01*
X158725000Y-85407428D01*
X159182142Y-85407428D01*
X157982142Y-85978857D02*
X157982142Y-84778857D01*
X157296428Y-85978857D01*
X157296428Y-84778857D01*
X156725000Y-85350285D02*
X156325000Y-85350285D01*
X156153571Y-85978857D02*
X156725000Y-85978857D01*
X156725000Y-84778857D01*
X156153571Y-84778857D01*
X155696428Y-85921714D02*
X155525000Y-85978857D01*
X155239285Y-85978857D01*
X155125000Y-85921714D01*
X155067857Y-85864571D01*
X155010714Y-85750285D01*
X155010714Y-85636000D01*
X155067857Y-85521714D01*
X155125000Y-85464571D01*
X155239285Y-85407428D01*
X155467857Y-85350285D01*
X155582142Y-85293142D01*
X155639285Y-85236000D01*
X155696428Y-85121714D01*
X155696428Y-85007428D01*
X155639285Y-84893142D01*
X155582142Y-84836000D01*
X155467857Y-84778857D01*
X155182142Y-84778857D01*
X155010714Y-84836000D01*
X154553571Y-85921714D02*
X154382142Y-85978857D01*
X154096428Y-85978857D01*
X153982142Y-85921714D01*
X153925000Y-85864571D01*
X153867857Y-85750285D01*
X153867857Y-85636000D01*
X153925000Y-85521714D01*
X153982142Y-85464571D01*
X154096428Y-85407428D01*
X154325000Y-85350285D01*
X154439285Y-85293142D01*
X154496428Y-85236000D01*
X154553571Y-85121714D01*
X154553571Y-85007428D01*
X154496428Y-84893142D01*
X154439285Y-84836000D01*
X154325000Y-84778857D01*
X154039285Y-84778857D01*
X153867857Y-84836000D01*
X152610714Y-84778857D02*
X151925000Y-84778857D01*
X152267857Y-85978857D02*
X152267857Y-84778857D01*
X151296428Y-84778857D02*
X151067857Y-84778857D01*
X150953571Y-84836000D01*
X150839285Y-84950285D01*
X150782142Y-85178857D01*
X150782142Y-85578857D01*
X150839285Y-85807428D01*
X150953571Y-85921714D01*
X151067857Y-85978857D01*
X151296428Y-85978857D01*
X151410714Y-85921714D01*
X151525000Y-85807428D01*
X151582142Y-85578857D01*
X151582142Y-85178857D01*
X151525000Y-84950285D01*
X151410714Y-84836000D01*
X151296428Y-84778857D01*
X149410714Y-85921714D02*
X149239285Y-85978857D01*
X148953571Y-85978857D01*
X148839285Y-85921714D01*
X148782142Y-85864571D01*
X148725000Y-85750285D01*
X148725000Y-85636000D01*
X148782142Y-85521714D01*
X148839285Y-85464571D01*
X148953571Y-85407428D01*
X149182142Y-85350285D01*
X149296428Y-85293142D01*
X149353571Y-85236000D01*
X149410714Y-85121714D01*
X149410714Y-85007428D01*
X149353571Y-84893142D01*
X149296428Y-84836000D01*
X149182142Y-84778857D01*
X148896428Y-84778857D01*
X148725000Y-84836000D01*
X148382142Y-84778857D02*
X147696428Y-84778857D01*
X148039285Y-85978857D02*
X148039285Y-84778857D01*
X147353571Y-85636000D02*
X146782142Y-85636000D01*
X147467857Y-85978857D02*
X147067857Y-84778857D01*
X146667857Y-85978857D01*
X146267857Y-85978857D02*
X146267857Y-84778857D01*
X145582142Y-85978857D01*
X145582142Y-84778857D01*
X145010714Y-85978857D02*
X145010714Y-84778857D01*
X144725000Y-84778857D01*
X144553571Y-84836000D01*
X144439285Y-84950285D01*
X144382142Y-85064571D01*
X144325000Y-85293142D01*
X144325000Y-85464571D01*
X144382142Y-85693142D01*
X144439285Y-85807428D01*
X144553571Y-85921714D01*
X144725000Y-85978857D01*
X145010714Y-85978857D01*
X143810714Y-85521714D02*
X142896428Y-85521714D01*
X142382142Y-85636000D02*
X141810714Y-85636000D01*
X142496428Y-85978857D02*
X142096428Y-84778857D01*
X141696428Y-85978857D01*
X140725000Y-85978857D02*
X141296428Y-85978857D01*
X141296428Y-84778857D01*
X140096428Y-84778857D02*
X139867857Y-84778857D01*
X139753571Y-84836000D01*
X139639285Y-84950285D01*
X139582142Y-85178857D01*
X139582142Y-85578857D01*
X139639285Y-85807428D01*
X139753571Y-85921714D01*
X139867857Y-85978857D01*
X140096428Y-85978857D01*
X140210714Y-85921714D01*
X140325000Y-85807428D01*
X140382142Y-85578857D01*
X140382142Y-85178857D01*
X140325000Y-84950285D01*
X140210714Y-84836000D01*
X140096428Y-84778857D01*
X139067857Y-85978857D02*
X139067857Y-84778857D01*
X138382142Y-85978857D01*
X138382142Y-84778857D01*
X137810714Y-85350285D02*
X137410714Y-85350285D01*
X137239285Y-85978857D02*
X137810714Y-85978857D01*
X137810714Y-84778857D01*
X137239285Y-84778857D01*
X135810714Y-85350285D02*
X135410714Y-85350285D01*
X135239285Y-85978857D02*
X135810714Y-85978857D01*
X135810714Y-84778857D01*
X135239285Y-84778857D01*
X134039285Y-85864571D02*
X134096428Y-85921714D01*
X134267857Y-85978857D01*
X134382142Y-85978857D01*
X134553571Y-85921714D01*
X134667857Y-85807428D01*
X134724999Y-85693142D01*
X134782142Y-85464571D01*
X134782142Y-85293142D01*
X134724999Y-85064571D01*
X134667857Y-84950285D01*
X134553571Y-84836000D01*
X134382142Y-84778857D01*
X134267857Y-84778857D01*
X134096428Y-84836000D01*
X134039285Y-84893142D01*
X133524999Y-84778857D02*
X133524999Y-85750285D01*
X133467857Y-85864571D01*
X133410714Y-85921714D01*
X133296428Y-85978857D01*
X133067857Y-85978857D01*
X132953571Y-85921714D01*
X132896428Y-85864571D01*
X132839285Y-85750285D01*
X132839285Y-84778857D01*
X131353571Y-85521714D02*
X130439285Y-85521714D01*
X128267857Y-85864571D02*
X128324999Y-85921714D01*
X128496428Y-85978857D01*
X128610714Y-85978857D01*
X128782142Y-85921714D01*
X128896428Y-85807428D01*
X128953571Y-85693142D01*
X129010714Y-85464571D01*
X129010714Y-85293142D01*
X128953571Y-85064571D01*
X128896428Y-84950285D01*
X128782142Y-84836000D01*
X128610714Y-84778857D01*
X128496428Y-84778857D01*
X128324999Y-84836000D01*
X128267857Y-84893142D01*
X127524999Y-84778857D02*
X127296428Y-84778857D01*
X127182142Y-84836000D01*
X127067857Y-84950285D01*
X127010714Y-85178857D01*
X127010714Y-85578857D01*
X127067857Y-85807428D01*
X127182142Y-85921714D01*
X127296428Y-85978857D01*
X127524999Y-85978857D01*
X127639285Y-85921714D01*
X127753571Y-85807428D01*
X127810714Y-85578857D01*
X127810714Y-85178857D01*
X127753571Y-84950285D01*
X127639285Y-84836000D01*
X127524999Y-84778857D01*
X126496428Y-85978857D02*
X126496428Y-84778857D01*
X125810714Y-85978857D01*
X125810714Y-84778857D01*
X125239285Y-85978857D02*
X125239285Y-84778857D01*
X124553571Y-85978857D01*
X124553571Y-84778857D01*
X123982142Y-85350285D02*
X123582142Y-85350285D01*
X123410714Y-85978857D02*
X123982142Y-85978857D01*
X123982142Y-84778857D01*
X123410714Y-84778857D01*
X122210714Y-85864571D02*
X122267857Y-85921714D01*
X122439285Y-85978857D01*
X122553571Y-85978857D01*
X122724999Y-85921714D01*
X122839285Y-85807428D01*
X122896428Y-85693142D01*
X122953571Y-85464571D01*
X122953571Y-85293142D01*
X122896428Y-85064571D01*
X122839285Y-84950285D01*
X122724999Y-84836000D01*
X122553571Y-84778857D01*
X122439285Y-84778857D01*
X122267857Y-84836000D01*
X122210714Y-84893142D01*
X121867857Y-84778857D02*
X121182142Y-84778857D01*
X121524999Y-85978857D02*
X121524999Y-84778857D01*
X120553571Y-84778857D02*
X120324999Y-84778857D01*
X120210714Y-84836000D01*
X120096428Y-84950285D01*
X120039285Y-85178857D01*
X120039285Y-85578857D01*
X120096428Y-85807428D01*
X120210714Y-85921714D01*
X120324999Y-85978857D01*
X120553571Y-85978857D01*
X120667857Y-85921714D01*
X120782142Y-85807428D01*
X120839285Y-85578857D01*
X120839285Y-85178857D01*
X120782142Y-84950285D01*
X120667857Y-84836000D01*
X120553571Y-84778857D01*
X118839285Y-85978857D02*
X119239285Y-85407428D01*
X119524999Y-85978857D02*
X119524999Y-84778857D01*
X119067857Y-84778857D01*
X118953571Y-84836000D01*
X118896428Y-84893142D01*
X118839285Y-85007428D01*
X118839285Y-85178857D01*
X118896428Y-85293142D01*
X118953571Y-85350285D01*
X119067857Y-85407428D01*
X119524999Y-85407428D01*
X117010714Y-85350285D02*
X116839285Y-85407428D01*
X116782142Y-85464571D01*
X116724999Y-85578857D01*
X116724999Y-85750285D01*
X116782142Y-85864571D01*
X116839285Y-85921714D01*
X116953571Y-85978857D01*
X117410714Y-85978857D01*
X117410714Y-84778857D01*
X117010714Y-84778857D01*
X116896428Y-84836000D01*
X116839285Y-84893142D01*
X116782142Y-85007428D01*
X116782142Y-85121714D01*
X116839285Y-85236000D01*
X116896428Y-85293142D01*
X117010714Y-85350285D01*
X117410714Y-85350285D01*
X115982142Y-84778857D02*
X115753571Y-84778857D01*
X115639285Y-84836000D01*
X115524999Y-84950285D01*
X115467857Y-85178857D01*
X115467857Y-85578857D01*
X115524999Y-85807428D01*
X115639285Y-85921714D01*
X115753571Y-85978857D01*
X115982142Y-85978857D01*
X116096428Y-85921714D01*
X116210714Y-85807428D01*
X116267857Y-85578857D01*
X116267857Y-85178857D01*
X116210714Y-84950285D01*
X116096428Y-84836000D01*
X115982142Y-84778857D01*
X115010714Y-85636000D02*
X114439285Y-85636000D01*
X115124999Y-85978857D02*
X114724999Y-84778857D01*
X114324999Y-85978857D01*
X113239285Y-85978857D02*
X113639285Y-85407428D01*
X113924999Y-85978857D02*
X113924999Y-84778857D01*
X113467857Y-84778857D01*
X113353571Y-84836000D01*
X113296428Y-84893142D01*
X113239285Y-85007428D01*
X113239285Y-85178857D01*
X113296428Y-85293142D01*
X113353571Y-85350285D01*
X113467857Y-85407428D01*
X113924999Y-85407428D01*
X112724999Y-85978857D02*
X112724999Y-84778857D01*
X112439285Y-84778857D01*
X112267857Y-84836000D01*
X112153571Y-84950285D01*
X112096428Y-85064571D01*
X112039285Y-85293142D01*
X112039285Y-85464571D01*
X112096428Y-85693142D01*
X112153571Y-85807428D01*
X112267857Y-85921714D01*
X112439285Y-85978857D01*
X112724999Y-85978857D01*
X109940476Y-87047380D02*
X110511904Y-87047380D01*
X110226190Y-87047380D02*
X110226190Y-86047380D01*
X110321428Y-86190238D01*
X110416666Y-86285476D01*
X110511904Y-86333095D01*
X109559523Y-86142619D02*
X109511904Y-86095000D01*
X109416666Y-86047380D01*
X109178571Y-86047380D01*
X109083333Y-86095000D01*
X109035714Y-86142619D01*
X108988095Y-86237857D01*
X108988095Y-86333095D01*
X109035714Y-86475952D01*
X109607142Y-87047380D01*
X108988095Y-87047380D01*
D12*
X158333333Y-75611666D02*
X159933333Y-75611666D01*
X159133333Y-75611666D02*
X159133333Y-72811666D01*
X159400000Y-73211666D01*
X159666666Y-73478333D01*
X159933333Y-73611666D01*
X156733333Y-74011666D02*
X157000000Y-73878333D01*
X157133333Y-73745000D01*
X157266666Y-73478333D01*
X157266666Y-73345000D01*
X157133333Y-73078333D01*
X157000000Y-72945000D01*
X156733333Y-72811666D01*
X156200000Y-72811666D01*
X155933333Y-72945000D01*
X155800000Y-73078333D01*
X155666666Y-73345000D01*
X155666666Y-73478333D01*
X155800000Y-73745000D01*
X155933333Y-73878333D01*
X156200000Y-74011666D01*
X156733333Y-74011666D01*
X157000000Y-74145000D01*
X157133333Y-74278333D01*
X157266666Y-74545000D01*
X157266666Y-75078333D01*
X157133333Y-75345000D01*
X157000000Y-75478333D01*
X156733333Y-75611666D01*
X156200000Y-75611666D01*
X155933333Y-75478333D01*
X155800000Y-75345000D01*
X155666666Y-75078333D01*
X155666666Y-74545000D01*
X155800000Y-74278333D01*
X155933333Y-74145000D01*
X156200000Y-74011666D01*
X102966071Y-68939642D02*
X102966071Y-70939642D01*
X103680357Y-67796785D02*
X104394642Y-69939642D01*
X102537500Y-69939642D01*
D10*
X171036904Y-86167619D02*
X170989285Y-86120000D01*
X170894047Y-86072380D01*
X170655952Y-86072380D01*
X170560714Y-86120000D01*
X170513095Y-86167619D01*
X170465476Y-86262857D01*
X170465476Y-86358095D01*
X170513095Y-86500952D01*
X171084523Y-87072380D01*
X170465476Y-87072380D01*
X170084523Y-86167619D02*
X170036904Y-86120000D01*
X169941666Y-86072380D01*
X169703571Y-86072380D01*
X169608333Y-86120000D01*
X169560714Y-86167619D01*
X169513095Y-86262857D01*
X169513095Y-86358095D01*
X169560714Y-86500952D01*
X170132142Y-87072380D01*
X169513095Y-87072380D01*
D13*
X110196000Y-83050000D02*
G75*
G03*
X110196000Y-83050000I-381000J0D01*
G01*
M02*
